<svg width="254" height="222" viewBox="0 0 254 222" fill="none" xmlns="http://www.w3.org/2000/svg">
<path d="M124.647 222.001C192.462 222.001 247.437 189.692 247.437 149.838C247.437 109.983 192.462 77.6748 124.647 77.6748C56.8318 77.6748 1.85693 109.983 1.85693 149.838C1.85693 189.692 56.8318 222.001 124.647 222.001Z" fill="#F5F5F5"/>
<path d="M22.3184 176.103L30.4985 180.879C30.9256 181.102 31.3986 181.218 31.8784 181.218C32.3582 181.218 32.8311 181.102 33.2583 180.879L97.7608 142.955C98.517 142.511 98.517 141.792 97.7608 141.354L89.4813 136.617C89.0535 136.397 88.5808 136.282 88.1014 136.282C87.622 136.282 87.1493 136.397 86.7215 136.617L22.3184 174.497C21.5622 174.94 21.5622 175.66 22.3184 176.103Z" fill="#E0E0E0"/>
<path d="M226.258 176.103L218.078 180.879C217.65 181.101 217.178 181.216 216.698 181.216C216.218 181.216 215.745 181.101 215.318 180.879L150.816 142.955C150.059 142.511 150.065 141.792 150.816 141.354L159.095 136.617C159.523 136.397 159.996 136.282 160.475 136.282C160.954 136.282 161.427 136.397 161.855 136.617L226.258 174.485C227.014 174.94 227.014 175.66 226.258 176.103Z" fill="#E0E0E0"/>
<path d="M219.789 152.483C219.789 152.483 220.186 143.971 223.896 137.134C227.605 130.296 233.009 125.829 238.274 125.048C243.54 124.267 248.138 128.936 242.69 132.723C237.242 136.51 227.406 140.651 223.603 153.697L219.789 152.483Z" fill="#188255"/>
<g opacity="0.2">
<path d="M219.789 152.483C219.789 152.483 220.186 143.971 223.896 137.134C227.605 130.296 233.009 125.829 238.274 125.048C243.54 124.267 248.138 128.936 242.69 132.723C237.242 136.51 227.406 140.651 223.603 153.697L219.789 152.483Z" fill="black"/>
</g>
<path d="M221.202 150.186H221.141C221.106 150.174 221.073 150.155 221.045 150.13C221.017 150.105 220.995 150.075 220.978 150.041C220.962 150.007 220.952 149.97 220.95 149.932C220.947 149.894 220.952 149.856 220.965 149.82C225.645 135.443 235.901 128.886 240.67 127.425C240.743 127.403 240.822 127.411 240.889 127.448C240.956 127.485 241.007 127.548 241.029 127.622C241.05 127.697 241.042 127.777 241.006 127.845C240.97 127.914 240.909 127.965 240.835 127.987C236.16 129.42 226.109 135.853 221.517 150.017C221.49 150.077 221.444 150.125 221.387 150.156C221.33 150.186 221.265 150.197 221.202 150.186Z" fill="white"/>
<path d="M250.191 149.904C249.76 151.107 248.535 151.803 247.431 152.359C246.327 152.916 245.063 153.511 244.5 154.657C243.396 156.978 245.665 159.978 244.445 162.242C244.154 162.699 243.775 163.091 243.331 163.394C242.887 163.697 242.387 163.906 241.862 164.006C240.995 164.19 240.12 164.329 239.24 164.422C238.821 164.448 238.401 164.448 237.981 164.422C236.762 164.321 235.442 164.355 234.377 165.057C232.721 166.181 232.307 168.428 231.358 170.249C230.77 171.313 229.962 172.234 228.99 172.949C228.018 173.664 226.905 174.155 225.728 174.389C224.95 174.547 223.52 174.788 222.676 174.389C222.616 174.363 222.558 174.331 222.504 174.294C222.388 174.176 222.239 174.024 222.173 173.94C222.107 173.856 222.173 173.906 222.14 173.889C221.754 172.766 222.184 171.513 222.14 170.316C222.14 170.237 222.14 170.17 222.14 170.097C221.997 168.709 221.87 167.333 221.748 165.945C221.52 163.398 221.336 160.845 221.196 158.287C221.108 156.629 220.793 154.826 221.378 153.23C222.035 151.46 223.928 151.298 224.541 149.561C224.784 148.87 224.889 148.14 225.121 147.443C225.488 146.418 226.124 145.515 226.962 144.833C227.799 144.151 228.804 143.717 229.868 143.578C233.179 143.185 236.32 145.713 239.615 145.263C240.471 145.134 241.271 144.814 242.121 144.6C244.776 143.909 247.928 144.477 249.589 146.69C249.936 147.138 250.171 147.663 250.276 148.222C250.381 148.782 250.352 149.359 250.191 149.904Z" fill="#188255"/>
<path d="M221.489 168.569H221.461C221.388 168.554 221.324 168.51 221.282 168.447C221.241 168.384 221.226 168.306 221.241 168.232C224.69 150.433 242.635 146.691 246.89 146.719C246.965 146.722 247.036 146.754 247.088 146.808C247.141 146.862 247.17 146.935 247.172 147.011C247.172 147.049 247.164 147.087 247.15 147.122C247.135 147.157 247.114 147.189 247.087 147.216C247.061 147.242 247.029 147.263 246.994 147.277C246.959 147.291 246.922 147.298 246.885 147.298C242.723 147.27 225.171 150.927 221.798 168.344C221.783 168.414 221.744 168.476 221.686 168.518C221.629 168.559 221.559 168.578 221.489 168.569Z" fill="white"/>
<path d="M241.028 158.36C240.971 158.351 240.917 158.326 240.874 158.287C239.107 156.924 237.067 155.974 234.898 155.506C232.729 155.038 230.486 155.063 228.328 155.579C228.291 155.587 228.254 155.587 228.217 155.581C228.181 155.574 228.146 155.56 228.115 155.54C228.083 155.52 228.056 155.493 228.035 155.462C228.014 155.431 227.999 155.396 227.991 155.359C227.983 155.323 227.982 155.284 227.989 155.247C227.995 155.21 228.009 155.175 228.029 155.143C228.049 155.111 228.075 155.083 228.105 155.062C228.136 155.04 228.17 155.025 228.206 155.017C230.452 154.483 232.786 154.461 235.042 154.952C237.297 155.442 239.419 156.433 241.255 157.854C241.299 157.896 241.33 157.951 241.342 158.011C241.354 158.072 241.347 158.134 241.322 158.191C241.297 158.247 241.255 158.293 241.202 158.324C241.149 158.354 241.089 158.367 241.028 158.36Z" fill="white"/>
<path d="M28.0037 150.584C27.7094 146.921 26.8797 143.323 25.5419 139.909C23.3341 134.415 19.1502 128.875 14.3095 127.83C9.46876 126.785 7.40993 130.105 8.43107 133.364C9.31421 136.173 12.913 138.499 15.6452 140.949C18.3775 143.398 23.4831 149.315 24.9017 155.034L27.6339 155.338L28.0037 150.584Z" fill="#188255"/>
<g opacity="0.15">
<path d="M28.0037 150.584C27.7094 146.921 26.8797 143.323 25.5419 139.909C23.3341 134.415 19.1502 128.875 14.3095 127.83C9.46876 126.785 7.40993 130.105 8.43107 133.364C9.31421 136.173 12.913 138.499 15.6452 140.949C18.3775 143.398 23.4831 149.315 24.9017 155.034L27.6339 155.338L28.0037 150.584Z" fill="black"/>
</g>
<path d="M26.1379 153.163C26.0597 153.161 25.9848 153.13 25.9285 153.075C25.8722 153.019 25.8385 152.944 25.8343 152.865C25.3265 138.487 11.5164 130.453 11.3729 130.391C11.2997 130.351 11.2452 130.283 11.2214 130.202C11.1976 130.121 11.2064 130.033 11.2459 129.959C11.2854 129.884 11.3524 129.829 11.4321 129.804C11.5118 129.78 11.5977 129.789 11.6709 129.829C11.8144 129.914 25.9226 138.122 26.447 152.865C26.4485 152.947 26.4181 153.027 26.3624 153.087C26.3066 153.147 26.23 153.182 26.1489 153.185L26.1379 153.163Z" fill="white"/>
<path d="M26.298 172.811C26.298 172.811 23.4719 174.626 19.0617 173.856C17.6362 173.666 16.3066 173.021 15.2642 172.013C14.1272 170.816 13.945 169.614 13.6083 168.013C13.521 167.345 13.2952 166.703 12.946 166.131C11.9966 164.805 10.1089 164.827 8.53025 164.484C6.3224 163.996 4.24701 162.361 3.60122 160.136C2.95542 157.911 4.00415 155.191 6.11817 154.315L3.52394 152.629C2.72097 152.149 1.97939 151.57 1.31609 150.905C0.650969 150.225 0.257564 149.318 0.212158 148.359C0.25405 147.657 0.49033 146.981 0.893708 146.409C1.29708 145.837 1.8511 145.394 2.49177 145.129C3.78512 144.624 5.18734 144.478 6.55422 144.707C7.93632 144.875 9.2954 145.201 10.6056 145.679C10.963 145.845 11.3502 145.933 11.7427 145.938C12.2626 145.849 12.7491 145.618 13.1502 145.269C16.1198 143.275 20.955 143.426 22.5336 147.185C22.7709 147.747 22.9089 148.309 23.1573 148.871C24.0846 150.893 26.6788 150.287 28.3513 151.23C28.8808 151.568 29.3304 152.021 29.6682 152.556C30.006 153.091 30.2235 153.696 30.3052 154.326C30.6364 156.332 30.09 158.613 29.7533 160.596C29.4166 162.58 28.9308 164.417 28.4009 166.293C27.9704 167.844 27.4957 169.378 26.9879 170.901C26.8444 171.243 26.6071 172.609 26.298 172.811Z" fill="#188255"/>
<path d="M28.0533 168.176C26.5708 164.031 24.1394 160.306 20.9606 157.309C20.9278 157.239 20.8709 157.183 20.8005 157.152C19.8845 156.276 18.9246 155.449 17.9248 154.674C17.5499 152.011 17.8874 149.294 18.9018 146.809C18.9188 146.772 18.9285 146.732 18.9304 146.691C18.9323 146.65 18.9262 146.61 18.9127 146.571C18.8991 146.533 18.8782 146.498 18.8512 146.468C18.8243 146.437 18.7917 146.413 18.7555 146.396C18.7193 146.378 18.68 146.368 18.64 146.367C18.6 146.365 18.56 146.371 18.5224 146.385C18.4847 146.398 18.4501 146.42 18.4204 146.447C18.3908 146.475 18.3668 146.508 18.3498 146.545C17.3537 148.946 16.9738 151.566 17.2459 154.158C13.18 151.175 8.67012 148.876 3.88835 147.348C3.84993 147.337 3.80973 147.334 3.77014 147.339C3.73055 147.344 3.69238 147.357 3.65789 147.378C3.6234 147.398 3.5933 147.426 3.56936 147.458C3.54542 147.491 3.52814 147.528 3.51853 147.567C3.50767 147.606 3.50449 147.646 3.50918 147.686C3.51388 147.726 3.52635 147.765 3.54588 147.8C3.5654 147.835 3.59159 147.866 3.6229 147.891C3.65422 147.915 3.69004 147.933 3.72828 147.944C3.85523 147.983 12.4714 150.466 19.5807 156.849C15.2202 156.068 10.0096 158.214 9.77229 158.315C9.70676 158.342 9.65251 158.391 9.61889 158.455C9.58528 158.518 9.57439 158.591 9.58813 158.662C9.60186 158.732 9.63935 158.796 9.69412 158.841C9.7489 158.887 9.81753 158.911 9.8882 158.911C9.92643 158.919 9.96587 158.919 10.0041 158.911C10.0648 158.883 16.1806 156.366 20.4914 157.731C23.6235 160.671 26.0195 164.331 27.4793 168.406C27.5006 168.466 27.5396 168.518 27.5909 168.556C27.6421 168.593 27.7034 168.613 27.7663 168.614H27.8657C27.9083 168.6 27.9477 168.578 27.981 168.548C28.0143 168.517 28.0408 168.48 28.0586 168.439C28.0764 168.397 28.0852 168.352 28.0843 168.306C28.0834 168.261 28.0728 168.216 28.0533 168.176Z" fill="white"/>
<path d="M18.2725 60.853C17.5135 61.7299 16.5319 62.3772 15.4354 62.724L15.3195 62.7521H15.2312L15.038 62.7858H14.8172H14.6737C14.652 62.7915 14.6292 62.7915 14.6075 62.7858C14.1672 62.7875 13.7364 62.6553 13.3706 62.406C13.0047 62.1567 12.7204 61.8018 12.5542 61.3868C12.3956 61.0174 12.295 60.6249 12.2561 60.2238C12.4272 60.1451 12.5983 60.0496 12.7749 59.9485C14.0483 59.1032 15.1078 57.9641 15.8673 56.6237C16.6269 55.2834 17.0652 53.7795 17.1465 52.2344C17.1465 52.0209 17.1465 51.8186 17.1465 51.6332C17.6287 51.3994 18.158 51.2839 18.692 51.2961H18.7858H18.8631C18.8904 51.2906 18.9186 51.2906 18.9459 51.2961C19.3248 51.3542 19.6823 51.5117 19.9833 51.753C20.2842 51.9943 20.5183 52.3113 20.6625 52.6726C21.5622 54.8245 20.5024 58.4596 18.2725 60.853Z" fill="#188255"/>
<path d="M26.3586 54.0997C26.3155 54.0787 26.2684 54.0672 26.2206 54.066L24.3549 53.9593C24.3142 53.9608 24.2735 53.9539 24.2354 53.9391C24.1973 53.9242 24.1625 53.9017 24.1331 53.8728C24.1037 53.844 24.0804 53.8094 24.0644 53.7712C24.0485 53.7329 24.0403 53.6918 24.0403 53.6503C24.0679 53.3469 24.079 53.0491 24.0845 52.7626C24.0868 52.4473 24.0721 52.1322 24.0403 51.8187C24.0462 51.6127 24.1201 51.4148 24.2501 51.2568L26.331 48.6836C26.3943 48.6137 26.4392 48.5286 26.4614 48.4362C26.4836 48.3438 26.4824 48.2472 26.4579 48.1554L25.4699 45.9081C25.4573 45.8796 25.436 45.8559 25.4092 45.8407C25.3522 45.8212 25.2906 45.8206 25.2331 45.8387C25.1757 45.8569 25.1253 45.8929 25.0891 45.9418L22.8812 48.0094C22.8219 48.0779 22.7414 48.1236 22.653 48.1389C22.5646 48.1543 22.4737 48.1383 22.3955 48.0936C22.1093 47.8577 21.7891 47.6682 21.4461 47.5318C21.3695 47.503 21.3052 47.448 21.2639 47.3763C21.2227 47.3046 21.2071 47.2206 21.2198 47.1385L21.9042 43.9641C21.9148 43.9213 21.9113 43.8763 21.8944 43.8357C21.8775 43.7951 21.848 43.7613 21.8104 43.7394C21.7467 43.7092 21.676 43.6975 21.6062 43.7057L19.3983 43.9248C19.2982 43.9373 19.2026 43.9745 19.1198 44.0333C19.0371 44.092 18.9697 44.1705 18.9236 44.2619L17.7424 47.4869C17.6399 47.692 17.4728 47.8562 17.2677 47.9532C16.7937 48.1794 16.3394 48.4463 15.9099 48.751C15.7222 48.8746 15.518 48.8858 15.4407 48.751L14.3368 47.0149C14.2595 46.8913 14.0774 46.9194 13.9339 47.0711L11.5439 49.6443C11.4751 49.7132 11.4225 49.7969 11.39 49.8893C11.3575 49.9818 11.346 50.0805 11.3562 50.1781L12.0241 52.4704C12.0521 52.6665 12.0089 52.8662 11.9026 53.0322C11.4979 53.6559 11.1293 54.3031 10.7987 54.9706C10.6819 55.1659 10.4964 55.3085 10.2799 55.3695L8.23208 55.8695C8.1299 55.8934 8.03468 55.9415 7.95413 56.0098C7.87358 56.0782 7.80996 56.1648 7.76843 56.2628L6.73626 59.7912C6.72539 59.8297 6.72387 59.8703 6.73184 59.9096C6.7398 59.9488 6.75702 59.9855 6.782 60.0164C6.80699 60.0474 6.83898 60.0717 6.87525 60.0873C6.91151 60.1028 6.95095 60.1092 6.99016 60.1058L8.86132 60.2182C8.9023 60.2159 8.94332 60.2222 8.98179 60.2367C9.02026 60.2513 9.05537 60.2738 9.0849 60.3028C9.11444 60.3318 9.13777 60.3667 9.15344 60.4053C9.1691 60.4439 9.17676 60.4854 9.17594 60.5272C9.12356 61.1366 9.12356 61.7495 9.17594 62.3588C9.17453 62.5637 9.10443 62.7619 8.97723 62.9207L6.89081 65.4939C6.82747 65.5638 6.7826 65.6489 6.76039 65.7413C6.73819 65.8337 6.73938 65.9303 6.76386 66.022L7.75188 68.2694C7.76608 68.2983 7.78691 68.3234 7.81259 68.3424C7.83772 68.3506 7.86473 68.3506 7.88987 68.3424C7.9825 68.3356 8.0692 68.2934 8.13273 68.2245L10.3406 66.1513C10.4006 66.0837 10.4815 66.039 10.5698 66.0247C10.6582 66.0104 10.7487 66.0273 10.8263 66.0726C11.1118 66.3096 11.4322 66.4992 11.7757 66.6344C11.8533 66.6635 11.9185 66.7193 11.9598 66.7922C12.0012 66.8651 12.0161 66.9504 12.002 67.0333L11.312 70.2078C11.304 70.2489 11.3088 70.2915 11.3256 70.3297C11.3424 70.368 11.3704 70.3999 11.4059 70.4213C11.468 70.4563 11.5396 70.4701 11.6101 70.4606L13.818 70.2415C13.9181 70.229 14.0137 70.1917 14.0965 70.133C14.1792 70.0742 14.2466 69.9957 14.2926 69.9044L15.4738 66.6794C15.5774 66.4737 15.7441 66.308 15.9485 66.2074C16.187 66.0972 16.4192 65.9734 16.644 65.8366C16.8593 65.7074 17.0801 65.5669 17.3008 65.4153C17.5216 65.2636 17.6872 65.2804 17.7645 65.4153L18.8684 67.1457C18.8825 67.1669 18.9015 67.1843 18.9236 67.1963C19.0119 67.2581 19.1554 67.1963 19.2714 67.0895L21.6614 64.5219C21.7346 64.4506 21.7896 64.3621 21.8214 64.2641C21.8531 64.1662 21.8607 64.0617 21.8435 63.9601L21.1812 61.6621C21.1482 61.4659 21.1918 61.2643 21.3026 61.1003C21.7106 60.4767 22.0793 59.8274 22.4065 59.1563C22.4681 59.0566 22.5486 58.9704 22.6434 58.9028C22.7382 58.8353 22.8453 58.7877 22.9585 58.763L25.0007 58.263C25.1029 58.2391 25.1982 58.191 25.2787 58.1227C25.3593 58.0544 25.4229 57.9677 25.4644 57.8697L26.4966 54.3413C26.501 54.2915 26.4901 54.2414 26.4654 54.1982C26.4407 54.1549 26.4033 54.1205 26.3586 54.0997ZM15.4407 62.724L15.3193 62.7521H15.231L15.0378 62.7858H14.8115H14.6073C14.1664 62.7872 13.7351 62.6541 13.3692 62.4037C13.0032 62.1534 12.7193 61.7973 12.554 61.3812C12.3948 61.012 12.2942 60.6195 12.2559 60.2182C12.2336 60.0036 12.2225 59.7879 12.2228 59.5721C12.3565 57.2107 13.3135 54.9754 14.9219 53.2682C15.4078 52.7375 15.9654 52.2797 16.5778 51.9086C16.756 51.802 16.9403 51.7063 17.1297 51.622C17.6132 51.3925 18.1419 51.2791 18.6752 51.2905H18.7691H18.8463H18.9347C19.3125 51.3495 19.6689 51.5074 19.9688 51.7487C20.2688 51.99 20.502 52.3064 20.6458 52.667C21.5675 54.7459 20.5078 58.3754 18.2778 60.7744C17.5299 61.6816 16.5469 62.357 15.4407 62.724Z" fill="#F5F5F5"/>
<path d="M17.7204 47.5034C17.6114 47.6974 17.448 47.8539 17.2512 47.9529C16.7822 48.1787 16.3334 48.4457 15.9099 48.7507C15.7223 48.8743 15.518 48.8856 15.4408 48.7507L14.3368 47.0202C14.3241 46.9979 14.3048 46.9803 14.2816 46.9697L12.1897 45.7392C12.4145 45.6025 12.6467 45.4787 12.8852 45.3684L12.9624 45.3235C13.0449 45.2711 13.1209 45.2089 13.1888 45.1381L13.2715 45.0482C13.29 45.0285 13.3049 45.0056 13.3157 44.9807L13.3488 44.9189L17.7204 47.5034Z" fill="#EBEBEB"/>
<path d="M12.0463 52.5542C12.05 52.725 12.0039 52.8932 11.9138 53.0374C11.51 53.6617 11.1415 54.3088 10.8099 54.9757C10.7826 55.0313 10.7472 55.0825 10.705 55.1274L6.28931 52.5373C6.3127 52.5159 6.33313 52.4913 6.35002 52.4643C6.37198 52.4409 6.39056 52.4144 6.40522 52.3856C6.73244 51.7145 7.10116 51.0652 7.50915 50.4417C7.53091 50.41 7.54941 50.3761 7.56434 50.3405C7.56434 50.3405 7.56434 50.2956 7.56434 50.2731C7.56674 50.2601 7.56674 50.2468 7.56434 50.2338C7.5663 50.202 7.5663 50.1701 7.56434 50.1383C7.57237 50.0899 7.57237 50.0405 7.56434 49.9922L12.0463 52.5542Z" fill="#EBEBEB"/>
<path d="M12.1566 45.7339L9.8715 44.3855C9.84149 44.3672 9.80715 44.3575 9.77214 44.3574C9.72379 44.361 9.67672 44.3749 9.63394 44.3981C9.59117 44.4213 9.55364 44.4534 9.52376 44.4923L8.09417 46.0317L7.13375 47.0599C7.05522 47.1468 6.99676 47.2504 6.96265 47.3633L10.3241 49.3297L11.3673 49.9365C11.4028 49.8322 11.4592 49.7366 11.5329 49.6556L11.566 49.6219L13.9229 47.0824C13.9613 47.0326 14.0129 46.995 14.0716 46.9741C14.1302 46.9532 14.1936 46.9498 14.2541 46.9644L12.1566 45.7339Z" fill="#F5F5F5"/>
<path d="M21.7498 43.7338C21.6921 43.7034 21.6261 43.6936 21.5622 43.7057L19.3543 43.9248C19.2202 43.9407 19.0945 43.9997 18.9955 44.0933L14.5798 41.5089C14.6768 41.4115 14.8032 41.3501 14.9386 41.3347L17.1465 41.1156C17.2205 41.1035 17.2964 41.1174 17.3617 41.1549L17.9468 41.5032L18.2394 41.6718L20.105 42.7955L20.5631 43.0652L20.8998 43.2618L21.7498 43.7338Z" fill="#F5F5F5"/>
<path d="M10.6774 55.1506C10.5634 55.2662 10.4231 55.3511 10.2689 55.3979L8.22113 55.8979C8.07175 55.9342 7.93806 56.019 7.84027 56.1395L3.42456 53.5606C3.52488 53.4343 3.66215 53.3437 3.81646 53.3022L5.86424 52.8021C6.0172 52.7632 6.15545 52.6792 6.26166 52.5605L10.6774 55.1506Z" fill="#E6E6E6"/>
<path d="M9.1206 62.6167C9.0841 62.7279 9.03003 62.8322 8.96053 62.9257L6.87411 65.499C6.81395 65.5756 6.76896 65.6633 6.74164 65.7574L2.32593 63.1673C2.34859 63.0697 2.39403 62.9791 2.4584 62.9032L4.54482 60.33C4.61428 60.2406 4.6684 60.14 4.70489 60.0322L9.1206 62.6167Z" fill="#E6E6E6"/>
<path d="M3.47433 58.0943L3.53505 58.1336L3.45777 58.0831L3.30322 57.9932L3.47433 58.0943Z" fill="#E0E0E0"/>
<path d="M18.2725 60.853C17.5135 61.7299 16.5319 62.3772 15.4354 62.724L15.3195 62.7521H15.2312L15.038 62.7858H14.8172H14.6737C14.652 62.7915 14.6292 62.7915 14.6075 62.7858C14.1672 62.7875 13.7364 62.6553 13.3706 62.406C13.0047 62.1567 12.7204 61.8018 12.5542 61.3868C12.3956 61.0174 12.295 60.6249 12.2561 60.2238C12.4272 60.1451 12.5983 60.0496 12.7749 59.9485C14.0483 59.1032 15.1078 57.9641 15.8673 56.6237C16.6269 55.2834 17.0652 53.7795 17.1465 52.2344C17.1465 52.0209 17.1465 51.8186 17.1465 51.6332C17.6287 51.3994 18.158 51.2839 18.692 51.2961H18.7858H18.8631C18.8904 51.2906 18.9186 51.2906 18.9459 51.2961C19.3248 51.3542 19.6823 51.5117 19.9833 51.753C20.2842 51.9943 20.5183 52.3113 20.6625 52.6726C21.5622 54.8245 20.5024 58.4596 18.2725 60.853Z" fill="#E0E0E0"/>
<path d="M12.0461 52.5547L7.63039 49.9702C7.63575 49.9424 7.63575 49.9138 7.63039 49.886L6.96252 47.5936C6.9412 47.5184 6.9412 47.4385 6.96252 47.3633L10.324 49.3297L11.3672 49.9365C11.3437 50.0191 11.3437 50.1068 11.3672 50.1893L12.0351 52.4817C12.0418 52.5054 12.0455 52.53 12.0461 52.5547Z" fill="#E0E0E0"/>
<path d="M19.0229 44.093C18.9728 44.1401 18.9333 44.1976 18.907 44.2616L17.7258 47.4865L13.3101 44.8965L14.5078 41.6659C14.531 41.6017 14.5711 41.5453 14.6237 41.5029L19.0229 44.093Z" fill="#E0E0E0"/>
<path d="M25.3707 45.8349C25.3153 45.8227 25.2578 45.8262 25.2042 45.845C25.1507 45.8638 25.1032 45.8973 25.0671 45.9417L22.8593 48.0149C22.7985 48.0829 22.7171 48.1283 22.628 48.1435C22.5389 48.1588 22.4473 48.1432 22.368 48.0991C22.0818 47.8632 21.7616 47.6737 21.4186 47.5373C21.3421 47.5085 21.2777 47.4535 21.2364 47.3818C21.1952 47.3101 21.1796 47.2261 21.1923 47.144L21.8768 43.9696C21.8883 43.9269 21.8853 43.8814 21.8683 43.8406C21.8512 43.7998 21.8212 43.7661 21.7829 43.7449L20.9495 43.2504C20.9749 43.2446 21.0013 43.2446 21.0267 43.2504L21.0764 43.2842L25.3707 45.8349Z" fill="#E0E0E0"/>
<path d="M26.3475 54.0938C26.3044 54.0727 26.2574 54.0612 26.2096 54.0601L24.3439 53.9533C24.3031 53.9548 24.2625 53.948 24.2243 53.9331C24.1862 53.9183 24.1515 53.8957 24.1221 53.8669C24.0927 53.838 24.0694 53.8035 24.0534 53.7652C24.0375 53.727 24.0293 53.6859 24.0293 53.6443C24.0569 53.3409 24.0735 53.0431 24.0735 52.751L26.3475 54.0938Z" fill="#E0E0E0"/>
<path d="M3.43006 53.5381C3.39982 53.5792 3.37565 53.6247 3.3583 53.6729L3.23135 54.1112L2.55795 56.4147L2.33165 57.2013C2.31816 57.2433 2.31816 57.2885 2.33165 57.3305C2.33745 57.3561 2.34674 57.3806 2.35925 57.4036C2.37623 57.4237 2.39468 57.4425 2.41444 57.4597H2.44756L2.7953 57.6676L2.88913 57.7182L3.16511 57.8755L3.30862 57.9654L3.47973 58.0665L3.54045 58.1059L3.7226 58.207L4.71613 58.7688L6.81359 60.0049C6.77155 59.9776 6.73955 59.9369 6.72258 59.8891C6.70561 59.8413 6.70462 59.7892 6.71976 59.7408L7.6305 56.7013L7.75745 56.263C7.77653 56.2098 7.80454 56.1604 7.84025 56.1169L3.43006 53.5381Z" fill="#E0E0E0"/>
<path d="M18.9293 67.2023L16.6387 65.8258C16.8539 65.6966 17.0747 65.5561 17.2955 65.4044C17.5163 65.2527 17.6819 65.2696 17.7592 65.4044L18.8631 67.1405C18.8787 67.1673 18.9017 67.1888 18.9293 67.2023Z" fill="#E0E0E0"/>
<path d="M12.0462 67.0328L11.3562 70.2129C11.3482 70.254 11.3529 70.2966 11.3697 70.3348C11.3865 70.3731 11.4146 70.405 11.45 70.4264L7.91748 68.3475C8.00933 68.3377 8.09506 68.2961 8.16034 68.2296L10.3682 66.162C10.4273 66.0934 10.5075 66.0473 10.5957 66.0309C10.6839 66.0146 10.7749 66.0291 10.8539 66.0721C11.1382 66.3108 11.4589 66.5006 11.8033 66.6339C11.8847 66.6588 11.9543 66.713 11.999 66.7865C12.0438 66.86 12.0605 66.9476 12.0462 67.0328Z" fill="#E0E0E0"/>
<path d="M9.15943 62.3638C9.16582 62.45 9.1526 62.5365 9.12079 62.6167L4.70508 60.0322C4.7344 59.9494 4.74753 59.8616 4.74372 59.7737C4.74372 59.4647 4.70508 59.1501 4.70508 58.8242L6.80254 60.0603C6.84849 60.0851 6.89955 60.0986 6.95157 60.0996L8.82273 60.2064C8.86398 60.2048 8.90511 60.2119 8.9436 60.2271C8.98209 60.2423 9.01713 60.2653 9.04658 60.2947C9.07602 60.3242 9.09926 60.3594 9.11487 60.3983C9.13048 60.4372 9.13812 60.479 9.13735 60.521C9.09166 61.1347 9.09905 61.7514 9.15943 62.3638Z" fill="#E0E0E0"/>
<path d="M7.7904 68.3196L6.89621 67.7915L6.7251 67.6959L5.28448 66.8419L4.89259 66.6172L3.41332 65.7407C3.40004 65.7345 3.38861 65.7248 3.3802 65.7126C3.36724 65.7004 3.35772 65.6849 3.35261 65.6677L2.35907 63.4203C2.33929 63.3602 2.33929 63.2951 2.35907 63.2349C2.35907 63.2349 2.35907 63.1843 2.35907 63.1562L6.77478 65.7463C6.74395 65.8316 6.74395 65.9252 6.77478 66.0104L7.7628 68.2578C7.76793 68.28 7.7773 68.301 7.7904 68.3196Z" fill="#E0E0E0"/>
<path d="M44.5238 17.8329C44.4654 17.8029 44.4015 17.7857 44.3362 17.7824L41.7695 17.6363C41.7133 17.6386 41.6572 17.6292 41.6047 17.6087C41.5522 17.5882 41.5043 17.557 41.464 17.5171C41.4237 17.4771 41.3919 17.4292 41.3704 17.3763C41.3489 17.3234 41.3382 17.2665 41.339 17.2093C41.3721 16.7991 41.3942 16.389 41.3997 15.9901C41.3982 15.5584 41.3742 15.127 41.3279 14.6979C41.3358 14.4167 41.4348 14.1461 41.6094 13.9281L44.4741 10.3998C44.5599 10.3019 44.6208 10.1842 44.6516 10.0569C44.6824 9.92959 44.6821 9.79654 44.6508 9.66937L43.2874 6.60732C43.2727 6.56599 43.2431 6.53187 43.2046 6.51181C43.1264 6.48976 43.0435 6.4913 42.9661 6.51623C42.8887 6.54116 42.8201 6.58842 42.7686 6.65227L39.7052 9.49519C39.6219 9.58675 39.5111 9.64748 39.3901 9.66783C39.2692 9.68817 39.1451 9.66697 39.0373 9.60756C38.6449 9.28089 38.2031 9.02096 37.7291 8.83784C37.6215 8.79534 37.5318 8.716 37.4754 8.61347C37.419 8.51094 37.3994 8.39162 37.42 8.276L38.3639 3.9161C38.3811 3.85759 38.3779 3.79482 38.3547 3.73848C38.3316 3.68214 38.29 3.6357 38.2369 3.60709C38.1488 3.56003 38.0484 3.54234 37.9499 3.55652L34.9583 3.85991C34.8198 3.87514 34.6874 3.92592 34.5735 4.00749C34.4596 4.08905 34.3679 4.19873 34.307 4.32624L32.6676 8.74233C32.5247 9.0242 32.2936 9.24957 32.0108 9.38283C31.3662 9.69615 30.7477 10.0626 30.1617 10.4784C29.9078 10.647 29.6098 10.6582 29.5159 10.4784L27.987 8.10183C27.8766 7.93327 27.6337 7.96698 27.435 8.17486L24.1508 11.7201C24.0557 11.8134 23.9832 11.928 23.9391 12.0547C23.895 12.1815 23.8806 12.317 23.8969 12.4505L24.8077 15.608C24.8486 15.8731 24.7894 16.1441 24.6421 16.3665C24.0854 17.2242 23.5803 18.1154 23.1297 19.0353C22.9737 19.3101 22.7181 19.5118 22.4177 19.5971L19.6082 20.2826C19.4662 20.3199 19.3347 20.39 19.2236 20.4874C19.1126 20.5849 19.0251 20.707 18.9679 20.8444L17.5659 25.6538C17.5519 25.7068 17.5504 25.7625 17.5616 25.8162C17.5728 25.87 17.5963 25.9203 17.6302 25.963C17.6641 26.0057 17.7075 26.0397 17.7567 26.0621C17.806 26.0845 17.8598 26.0948 17.9136 26.092L20.4858 26.2381C20.5418 26.2366 20.5975 26.2465 20.6497 26.2673C20.7019 26.2881 20.7495 26.3193 20.7896 26.3591C20.8297 26.3989 20.8616 26.4465 20.8834 26.4991C20.9051 26.5516 20.9163 26.6081 20.9163 26.6651C20.8418 27.5024 20.8418 28.3449 20.9163 29.1822C20.9143 29.4635 20.8168 29.7354 20.6403 29.9519L17.7757 33.4859C17.6887 33.5818 17.6268 33.6985 17.596 33.8252C17.5651 33.9519 17.5661 34.0845 17.599 34.2106L18.9624 37.2727C18.9689 37.2936 18.9796 37.3129 18.9939 37.3294C19.0081 37.3458 19.0256 37.359 19.0452 37.3682C19.0793 37.379 19.1159 37.379 19.15 37.3682C19.2757 37.3589 19.3935 37.3029 19.4812 37.2109L22.5336 34.3961C22.6168 34.3045 22.7277 34.2438 22.8486 34.2234C22.9695 34.2031 23.0937 34.2243 23.2015 34.2837C23.5966 34.6078 24.0377 34.8692 24.5096 35.059C24.6193 35.0987 24.711 35.1775 24.7679 35.2808C24.8247 35.3842 24.8428 35.505 24.8187 35.6209L23.8804 39.9808C23.8655 40.0371 23.8693 40.0968 23.8913 40.1507C23.9132 40.2046 23.9521 40.2495 24.0018 40.2785C24.0878 40.3259 24.1866 40.3437 24.2833 40.3291L27.2749 40.0313C27.4135 40.014 27.5458 39.9625 27.6603 39.8812C27.7748 39.7999 27.868 39.6914 27.9318 39.565L29.5546 35.1377C29.6965 34.8556 29.9252 34.6287 30.2059 34.4916C30.5205 34.3399 30.8406 34.1713 31.1608 33.9803C31.4809 33.7893 31.7569 33.6095 32.0605 33.4185C32.3641 33.2274 32.6124 33.233 32.7008 33.4185L34.2352 35.8007C34.2519 35.83 34.2769 35.8535 34.307 35.8681C34.4339 35.9467 34.6216 35.8962 34.7817 35.722L38.0934 32.188C38.1879 32.0942 38.26 31.9796 38.304 31.8529C38.348 31.7263 38.3628 31.591 38.3473 31.4576L37.4366 28.2607C37.3967 27.995 37.4579 27.7237 37.6077 27.5022C38.1557 26.6366 38.6516 25.7379 39.0925 24.811C39.1697 24.6738 39.2729 24.5534 39.396 24.457C39.5192 24.3605 39.6599 24.2899 39.81 24.2492L42.6195 23.5581C42.7619 23.5233 42.894 23.4541 43.0045 23.3563C43.115 23.2584 43.2007 23.135 43.2543 22.9963L44.6728 18.1532C44.6825 18.0907 44.6734 18.0268 44.6468 17.9697C44.6203 17.9126 44.5774 17.8649 44.5238 17.8329ZM29.5214 29.6766L29.3559 29.7159C29.3174 29.7211 29.2784 29.7211 29.2399 29.7159L28.975 29.7609L28.6659 29.7946H28.3844C27.7782 29.8 27.1846 29.6189 26.6813 29.275C26.178 28.9312 25.7885 28.4405 25.5639 27.8674C25.3454 27.3587 25.2057 26.8185 25.1499 26.2662C25.1155 25.9735 25.1007 25.6788 25.1057 25.3841C25.1057 22.6198 26.5188 19.2038 28.8149 16.7261C29.4813 15.9974 30.2449 15.3675 31.0835 14.8552C31.3269 14.7075 31.5795 14.5762 31.8397 14.4619C32.502 14.1444 33.2273 13.9867 33.9592 14.0012H34.0917H34.2021H34.318C34.8388 14.0788 35.3302 14.2947 35.743 14.6271C36.1558 14.9595 36.4753 15.3966 36.6694 15.8946C37.9389 18.7487 36.4817 23.7604 33.4183 27.0303C32.3867 28.2645 31.0371 29.181 29.5214 29.6766Z" fill="#F5F5F5"/>
<path d="M32.6565 8.76451C32.5119 9.03569 32.2855 9.25236 32.0107 9.38253C31.3672 9.696 30.749 10.0604 30.1616 10.4725C29.9077 10.6467 29.6096 10.6635 29.5158 10.4725L27.9924 8.09591C27.9734 8.06299 27.9443 8.03733 27.9096 8.02288L26.3972 7.12392C26.7174 6.93852 27.032 6.76435 27.3466 6.61827L27.457 6.55647C27.5704 6.48626 27.6743 6.40126 27.7661 6.30364C27.809 6.26474 27.8478 6.22144 27.882 6.17441C27.9057 6.14911 27.9261 6.12078 27.9427 6.09014L27.9869 6.00586L32.6565 8.76451Z" fill="#EBEBEB"/>
<path d="M24.8242 15.7035C24.8295 15.9362 24.7661 16.1652 24.6421 16.3608C24.0873 17.2197 23.5824 18.1108 23.1297 19.0296C23.0905 19.1044 23.0402 19.1726 22.9807 19.2318L18.2834 16.4732C18.3172 16.4437 18.3469 16.4096 18.3718 16.3721C18.3981 16.3383 18.4221 16.3026 18.4435 16.2653C18.8874 15.3356 19.3907 14.4366 19.9504 13.5741C19.9808 13.533 20.0049 13.4876 20.0221 13.4392C20.0416 13.4085 20.0548 13.3741 20.0608 13.3381C20.0638 13.3214 20.0638 13.3043 20.0608 13.2875C20.0608 13.2426 20.0608 13.1976 20.0608 13.1583C20.0742 13.0916 20.0742 13.0228 20.0608 12.9561L24.8242 15.7035Z" fill="#EBEBEB"/>
<path d="M26.3973 7.12412L23.2566 5.27566C23.2166 5.25087 23.1709 5.2373 23.1241 5.23633C23.056 5.24115 22.9895 5.26007 22.9287 5.29195C22.868 5.32383 22.8143 5.36799 22.7709 5.42173L20.8059 7.53426L19.4867 8.9501C19.3793 9.07104 19.3001 9.21507 19.2549 9.37149L22.517 11.2705L23.9521 12.1077C23.9981 11.9628 24.0754 11.8303 24.1784 11.72L24.2226 11.675L27.4626 8.186C27.5146 8.1173 27.5849 8.06536 27.6652 8.03645C27.7455 8.00754 27.8323 8.0029 27.9152 8.02307L26.3973 7.12412Z" fill="#F5F5F5"/>
<path d="M38.1982 3.5843C38.117 3.54694 38.0272 3.53332 37.9388 3.54497L34.9416 3.84836C34.7588 3.87308 34.5876 3.95336 34.4504 4.07872L29.7532 1.32007C29.8906 1.19073 30.0643 1.10824 30.2499 1.08409L33.2471 0.780703C33.3481 0.764864 33.4513 0.784691 33.5396 0.836886L34.3455 1.31445L34.7429 1.55042L35.9517 2.26397L36.5865 2.6404C36.7466 2.72468 36.9011 2.82019 37.0446 2.90447L38.1982 3.5843Z" fill="#F5F5F5"/>
<path d="M22.9806 19.2372C22.8301 19.3985 22.6393 19.515 22.4287 19.5743L19.6137 20.2653C19.4111 20.3178 19.2308 20.4362 19.1003 20.6024L14.3921 17.8494C14.5326 17.6725 14.7267 17.5481 14.9441 17.4955L17.7535 16.81C17.9635 16.7521 18.1542 16.6375 18.3055 16.4785L22.9806 19.2372Z" fill="#E6E6E6"/>
<path d="M20.8446 29.5301C20.7959 29.6839 20.7191 29.8268 20.6183 29.9515L17.7591 33.4855C17.6751 33.5895 17.6131 33.71 17.5769 33.8395L12.8853 31.0808C12.9169 30.949 12.9773 30.8261 13.0619 30.7212L15.9321 27.1873C16.0283 27.0633 16.1013 26.9223 16.1474 26.7715L20.8446 29.5301Z" fill="#E6E6E6"/>
<path d="M14.4362 24.1085L14.5245 24.1647L14.4141 24.0972L14.2043 23.9736L14.4362 24.1085Z" fill="#E0E0E0"/>
<path d="M33.4128 27.1092C32.3798 28.3087 31.0434 29.1968 29.549 29.6768L29.3835 29.7161C29.345 29.7213 29.306 29.7213 29.2675 29.7161L29.0026 29.7611C28.9002 29.7779 28.797 29.7891 28.6935 29.7948H28.4065C27.8009 29.8007 27.2078 29.6197 26.7053 29.2757C26.2028 28.9317 25.8145 28.4408 25.5915 27.8677C25.3723 27.3592 25.2326 26.8189 25.1775 26.2664C25.4093 26.1597 25.6467 26.0305 25.8895 25.8956C29.2013 23.9404 31.9004 19.1985 31.9004 15.2936C31.9004 15.0015 31.9004 14.7318 31.8673 14.4621C32.5299 14.1462 33.2553 13.9904 33.9868 14.007H34.1193H34.2242C34.2626 14.0016 34.3016 14.0016 34.3401 14.007C34.8608 14.0843 35.3526 14.2994 35.7661 14.6306C36.1797 14.9619 36.5007 15.3978 36.697 15.8948C37.9389 18.822 36.4817 23.8168 33.4128 27.1092Z" fill="#E0E0E0"/>
<path d="M24.8242 15.7031L20.127 12.95C20.1326 12.9128 20.1326 12.8749 20.127 12.8377L19.2218 9.68573C19.1923 9.58299 19.1923 9.47383 19.2218 9.37109L22.4839 11.2701L23.919 12.1073C23.8767 12.2181 23.8652 12.3386 23.8859 12.4556L24.8021 15.6019C24.8154 15.634 24.8228 15.6683 24.8242 15.7031Z" fill="#E0E0E0"/>
<path d="M34.4505 4.07897C34.3803 4.1443 34.3256 4.22498 34.2904 4.31494L32.6677 8.74227L27.9705 5.98362C27.9705 5.98362 27.9705 5.98362 27.9705 5.94991L29.5932 1.52259C29.6257 1.43583 29.6788 1.35861 29.7478 1.29785L34.4505 4.07897Z" fill="#E0E0E0"/>
<path d="M43.1715 6.47191C43.0938 6.4548 43.0129 6.45991 42.9379 6.48668C42.8629 6.51346 42.7966 6.56085 42.7465 6.62361L39.6941 9.46654C39.6105 9.5594 39.4986 9.62095 39.3765 9.64133C39.2544 9.66171 39.1291 9.63972 39.0207 9.5789C38.6283 9.25223 38.1865 8.9923 37.7126 8.80918C37.6049 8.76668 37.5152 8.68735 37.4588 8.58482C37.4024 8.48229 37.3828 8.36296 37.4035 8.24733L38.3473 3.89306C38.363 3.83389 38.3584 3.77105 38.3344 3.71488C38.3103 3.65871 38.2681 3.61257 38.2148 3.58404L37.0447 2.8986C37.0829 2.89057 37.1224 2.89057 37.1606 2.8986L37.2268 2.93792L43.1715 6.47191Z" fill="#E0E0E0"/>
<path d="M44.5127 17.8214C44.4548 17.7907 44.3903 17.7753 44.3251 17.7764L41.7585 17.6303C41.702 17.6319 41.6458 17.6217 41.5932 17.6006C41.5407 17.5795 41.4929 17.5478 41.4527 17.5074C41.4125 17.467 41.3807 17.4187 41.3592 17.3655C41.3378 17.3123 41.3272 17.2552 41.3279 17.1977C41.361 16.7876 41.3831 16.3774 41.3831 15.9785L44.5127 17.8214Z" fill="#E0E0E0"/>
<path d="M18.3711 16.3828C18.3464 16.4204 18.3169 16.4544 18.2834 16.4839L18.3711 16.3828Z" fill="#E0E0E0"/>
<path d="M14.3809 17.8496C14.3234 17.9124 14.2801 17.9872 14.2539 18.0687L14.1049 18.6306L13.1831 21.7937L12.8685 22.8781C12.8492 22.9345 12.8492 22.9959 12.8685 23.0523C12.8731 23.087 12.8864 23.1199 12.9072 23.1478C12.9266 23.1779 12.9508 23.2045 12.9789 23.2264C12.9934 23.2406 13.0102 23.252 13.0286 23.2602L13.4978 23.5411L13.6302 23.6141L14.0056 23.8332L14.2098 23.9568L14.4416 24.0917L14.5299 24.1479L14.7783 24.2883L16.1472 25.0918L17.6761 25.9907C17.618 25.953 17.5739 25.8965 17.5509 25.8304C17.5279 25.7642 17.5273 25.6921 17.5492 25.6255L18.7911 21.3724L18.9677 20.7768C18.9888 20.7004 19.0287 20.6308 19.0836 20.5745L14.3809 17.8496Z" fill="#E0E0E0"/>
<path d="M34.3181 35.8225L31.1719 33.9628C31.4644 33.7886 31.7735 33.592 32.0716 33.4009C32.3696 33.2099 32.6235 33.2155 32.7119 33.4009L34.2408 35.7832C34.2644 35.8003 34.2904 35.8136 34.3181 35.8225Z" fill="#E0E0E0"/>
<path d="M24.8241 35.5982L23.8802 39.9805C23.8658 40.0375 23.8705 40.0977 23.8934 40.1516C23.9164 40.2056 23.9565 40.2502 24.0072 40.2783C23.814 40.1716 20.8555 38.4242 19.1499 37.4185C19.2746 37.4059 19.3914 37.3504 19.4811 37.2612L22.5334 34.3958C22.616 34.3034 22.7265 34.2416 22.8475 34.2202C22.9685 34.1988 23.093 34.2191 23.2013 34.2779C23.5935 34.6077 24.0352 34.8714 24.5095 35.0588C24.6157 35.0969 24.7055 35.1717 24.763 35.2703C24.8205 35.3689 24.8421 35.485 24.8241 35.5982Z" fill="#E0E0E0"/>
<path d="M20.8777 29.1822C20.8839 29.301 20.8651 29.4198 20.8225 29.5306L16.1252 26.7719C16.169 26.6594 16.1896 26.5389 16.186 26.418C16.1452 25.9866 16.1268 25.5534 16.1308 25.1201L17.6597 26.0191C17.7225 26.0546 17.7922 26.0757 17.8639 26.0809L20.4361 26.2269C20.4921 26.2254 20.5478 26.2354 20.6 26.2562C20.6522 26.277 20.6997 26.3082 20.7399 26.348C20.78 26.3878 20.8119 26.4354 20.8337 26.4879C20.8554 26.5405 20.8666 26.5969 20.8666 26.6539C20.7951 27.4953 20.7988 28.3415 20.8777 29.1822Z" fill="#E0E0E0"/>
<path d="M19.0175 37.3683L17.7866 36.6435L17.5548 36.5031L15.5732 35.3401C15.3856 35.2277 15.2089 35.1209 15.0213 35.0254L14.3423 34.6153C14.3238 34.605 14.307 34.5917 14.2927 34.576C14.276 34.5581 14.2629 34.5371 14.254 34.5142L12.8907 31.4465C12.8649 31.3643 12.8649 31.2759 12.8907 31.1937C12.8884 31.1581 12.8884 31.1225 12.8907 31.0869L17.5824 33.8456C17.5411 33.9656 17.5411 34.0963 17.5824 34.2164L18.9402 37.2784C18.9589 37.314 18.9853 37.3448 19.0175 37.3683Z" fill="#E0E0E0"/>
<path d="M213.381 20.5185C214.135 21.3982 215.116 22.0461 216.212 22.3895H216.334H216.416L216.61 22.4232H216.836H216.974C216.996 22.4289 217.018 22.4289 217.04 22.4232C217.48 22.4249 217.911 22.2927 218.277 22.0434C218.643 21.7941 218.927 21.4392 219.093 21.0242C219.253 20.655 219.353 20.2624 219.391 19.8612C219.226 19.7825 219.049 19.687 218.878 19.5859C217.603 18.7419 216.542 17.6032 215.782 16.2627C215.021 14.9221 214.582 13.4176 214.501 11.8718C214.501 11.6583 214.501 11.4616 214.501 11.2706C214.019 11.0368 213.49 10.9213 212.956 10.9335H212.862H212.784H212.702C212.323 10.9916 211.965 11.1491 211.664 11.3904C211.363 11.6317 211.129 11.9487 210.985 12.31C210.085 14.4899 211.145 18.1251 213.381 20.5185Z" fill="#188255"/>
<path d="M205.178 14.0457L206.211 17.5741C206.252 17.6721 206.316 17.7588 206.396 17.8271C206.477 17.8954 206.572 17.9435 206.674 17.9674L208.722 18.4675C208.939 18.5244 209.125 18.6656 209.241 18.8607C209.57 19.5307 209.939 20.1799 210.345 20.8047C210.455 20.9692 210.498 21.1704 210.466 21.3666L209.804 23.6589C209.787 23.7605 209.794 23.865 209.826 23.9629C209.858 24.0609 209.913 24.1494 209.986 24.2207L212.382 26.7883C212.497 26.9176 212.635 26.9569 212.724 26.9007C212.746 26.8887 212.765 26.8713 212.779 26.8501L213.883 25.114C213.96 24.9904 214.17 25.0017 214.352 25.114C214.534 25.2264 214.788 25.4118 215.009 25.541C215.23 25.6703 215.473 25.7995 215.699 25.9119C215.904 26.0088 216.071 26.1731 216.174 26.3782L217.355 29.6032C217.401 29.6952 217.47 29.7742 217.553 29.833C217.637 29.8918 217.734 29.9287 217.835 29.9403L220.01 30.1594C220.08 30.1689 220.152 30.1551 220.214 30.1201C220.25 30.0992 220.278 30.0671 220.294 30.0285C220.309 29.9899 220.313 29.9471 220.302 29.9066L219.612 26.7322C219.599 26.6493 219.615 26.5644 219.656 26.4918C219.697 26.4192 219.762 26.3632 219.839 26.3332C220.184 26.1981 220.506 26.0085 220.794 25.7714C220.872 25.7278 220.963 25.7124 221.051 25.7277C221.139 25.743 221.219 25.7881 221.279 25.8557L223.487 27.9233C223.551 27.9914 223.638 28.0333 223.73 28.0412C223.755 28.0471 223.782 28.0471 223.807 28.0412C223.836 28.0253 223.857 27.9993 223.868 27.9682L224.856 25.7208C224.88 25.6291 224.882 25.5325 224.859 25.4401C224.837 25.3477 224.792 25.2626 224.729 25.1927L222.648 22.6195C222.517 22.4624 222.445 22.2635 222.444 22.0576C222.499 21.4484 222.499 20.8353 222.444 20.226C222.444 20.1845 222.452 20.1434 222.468 20.1051C222.484 20.0669 222.507 20.0323 222.537 20.0034C222.566 19.9746 222.601 19.9521 222.639 19.9372C222.677 19.9224 222.718 19.9155 222.758 19.917L224.63 19.8103C224.669 19.8126 224.709 19.8054 224.745 19.7891C224.781 19.7728 224.813 19.748 224.838 19.7166C224.862 19.6853 224.88 19.6484 224.888 19.609C224.896 19.5696 224.894 19.5288 224.884 19.49L223.851 15.9616C223.81 15.8636 223.746 15.777 223.666 15.7086C223.585 15.6403 223.49 15.5923 223.388 15.5683L221.345 15.0683C221.129 15.0108 220.943 14.8698 220.827 14.675C220.497 14.0051 220.129 13.356 219.723 12.731C219.615 12.5656 219.572 12.3653 219.601 12.1692L220.269 9.87126C220.281 9.77358 220.27 9.67451 220.237 9.58188C220.205 9.48925 220.151 9.40559 220.081 9.33751L217.691 6.76427C217.548 6.61257 217.371 6.5901 217.289 6.71371L216.185 8.44418C216.107 8.56779 215.903 8.55655 215.721 8.44418C215.292 8.14201 214.84 7.87522 214.369 7.64636C214.164 7.54938 213.996 7.38518 213.894 7.18004L212.713 3.95506C212.667 3.86309 212.6 3.78409 212.517 3.72522C212.435 3.66636 212.339 3.62948 212.238 3.61795L210.063 3.39883C209.992 3.39105 209.919 3.40268 209.854 3.43254C209.816 3.45448 209.787 3.48831 209.77 3.52887C209.753 3.56944 209.749 3.61453 209.76 3.65728L210.472 6.83169C210.485 6.91384 210.471 6.99819 210.43 7.07074C210.39 7.14329 210.327 7.1997 210.251 7.2306C209.905 7.36445 209.583 7.55416 209.296 7.79244C209.218 7.83606 209.127 7.85147 209.039 7.83618C208.951 7.82089 208.87 7.77578 208.81 7.70817L206.603 5.64058C206.487 5.53383 206.365 5.49451 206.282 5.53945C206.258 5.55636 206.239 5.57969 206.227 5.60688L205.234 7.85425C205.209 7.94602 205.208 8.04261 205.23 8.13498C205.252 8.22735 205.297 8.31248 205.361 8.38238L207.441 10.9163C207.568 11.076 207.639 11.2732 207.646 11.4781C207.614 11.7917 207.599 12.1068 207.602 12.422C207.602 12.7086 207.602 12.9839 207.646 13.3097C207.646 13.3513 207.638 13.3924 207.622 13.4306C207.606 13.4689 207.582 13.5035 207.553 13.5323C207.524 13.5612 207.489 13.5837 207.451 13.5985C207.413 13.6134 207.372 13.6203 207.331 13.6188L205.465 13.7255C205.418 13.7274 205.371 13.7389 205.327 13.7592C205.272 13.7797 205.226 13.8203 205.199 13.8733C205.171 13.9262 205.164 13.9877 205.178 14.0457ZM213.375 20.5182C211.167 18.1247 210.063 14.4896 211.013 12.4108C211.154 12.0483 211.386 11.7301 211.686 11.4884C211.987 11.2467 212.345 11.09 212.724 11.0343H212.807H212.884H212.961C213.493 11.0233 214.019 11.1367 214.501 11.3658C214.683 11.45 214.871 11.5456 215.053 11.6523C215.667 12.0238 216.225 12.4836 216.709 13.0176C218.318 14.7219 219.276 16.9558 219.408 19.3158C219.414 19.5318 219.403 19.7478 219.375 19.962C219.337 20.3632 219.236 20.7558 219.077 21.125C218.912 21.541 218.628 21.8972 218.262 22.1475C217.896 22.3978 217.464 22.5309 217.024 22.5296H216.825H216.599L216.405 22.4959H216.323L216.201 22.4622C215.1 22.094 214.121 21.4209 213.375 20.5182Z" fill="#F5F5F5"/>
<path d="M213.932 7.1692C214.033 7.36778 214.196 7.52611 214.396 7.61867C214.867 7.84753 215.319 8.11431 215.748 8.41649C215.93 8.54009 216.135 8.55133 216.212 8.41649L217.316 6.68601C217.328 6.66207 217.348 6.64249 217.371 6.62983L219.463 5.39939C219.231 5.26455 218.999 5.13533 218.773 5.02858C218.744 5.01702 218.716 5.00193 218.69 4.98363C218.608 4.93127 218.532 4.86902 218.464 4.79822L218.381 4.70833C218.365 4.6872 218.35 4.66464 218.337 4.6409L218.304 4.5791L213.932 7.1692Z" fill="#EBEBEB"/>
<path d="M219.634 12.22C219.627 12.3887 219.671 12.5557 219.761 12.6975C220.167 13.3225 220.536 13.9716 220.865 14.6415C220.892 14.6975 220.929 14.7473 220.976 14.7876L225.391 12.1975C225.367 12.1773 225.346 12.1525 225.331 12.1245C225.309 12.1029 225.29 12.0783 225.275 12.0514C224.948 11.3785 224.58 10.7273 224.172 10.1018C224.152 10.0719 224.135 10.0398 224.122 10.0063C224.108 9.98409 224.099 9.95925 224.094 9.93327C224.094 9.93327 224.094 9.93327 224.094 9.89394C224.092 9.86214 224.092 9.83022 224.094 9.79842C224.081 9.7507 224.081 9.70007 224.094 9.65234L219.634 12.22Z" fill="#EBEBEB"/>
<path d="M219.491 5.39898L221.776 4.05056C221.809 4.04174 221.843 4.04174 221.875 4.05056C221.924 4.05408 221.972 4.06787 222.016 4.09107C222.06 4.11427 222.098 4.14638 222.129 4.1854L223.559 5.70799L224.519 6.73616C224.599 6.8242 224.658 6.93002 224.69 7.04518L221.329 9.00601L220.286 9.6128C220.253 9.50709 220.196 9.41079 220.12 9.33187L220.093 9.29817L217.73 6.75864C217.692 6.70829 217.641 6.6703 217.582 6.64935C217.523 6.62839 217.459 6.62537 217.399 6.64065L219.491 5.39898Z" fill="#F5F5F5"/>
<path d="M209.898 3.39903C209.959 3.38378 210.024 3.38378 210.085 3.39903L212.266 3.61815C212.4 3.63287 212.526 3.69208 212.624 3.7867L217.04 1.20223C216.942 1.1037 216.813 1.04226 216.676 1.02805L214.496 0.808936C214.421 0.796854 214.346 0.81072 214.28 0.848264L213.695 1.19661L213.408 1.36516L211.543 2.48884L211.079 2.76415L210.753 2.89899L209.898 3.39903Z" fill="#F5F5F5"/>
<path d="M220.976 14.7932C221.088 14.911 221.229 14.9963 221.384 15.0404L223.432 15.5405C223.578 15.5803 223.709 15.6646 223.807 15.7821L228.223 13.2032C228.122 13.0774 227.985 12.987 227.831 12.9448L225.789 12.4447C225.635 12.4044 225.495 12.3207 225.386 12.2031L220.976 14.7932Z" fill="#E6E6E6"/>
<path d="M222.527 22.2827C222.563 22.3952 222.619 22.4999 222.692 22.5917L224.773 25.165C224.835 25.2403 224.88 25.3285 224.906 25.4234L229.321 22.8333C229.297 22.7362 229.252 22.6459 229.189 22.5693L227.102 19.996C227.033 19.9077 226.98 19.8066 226.948 19.6982L222.527 22.2827Z" fill="#E6E6E6"/>
<path d="M228.173 17.7606L228.112 17.7999L228.19 17.7549L228.344 17.665L228.173 17.7606Z" fill="#E0E0E0"/>
<path d="M213.381 20.5185C214.135 21.3982 215.116 22.0461 216.212 22.3895H216.334H216.416L216.61 22.4232H216.836H216.974C216.996 22.4289 217.018 22.4289 217.04 22.4232C217.48 22.4249 217.911 22.2927 218.277 22.0434C218.643 21.7941 218.927 21.4392 219.093 21.0242C219.253 20.655 219.353 20.2624 219.391 19.8612C219.226 19.7825 219.049 19.687 218.878 19.5859C217.603 18.7419 216.542 17.6032 215.782 16.2627C215.021 14.9221 214.582 13.4176 214.501 11.8718C214.501 11.6583 214.501 11.4616 214.501 11.2706C214.019 11.0368 213.49 10.9213 212.956 10.9335H212.862H212.784H212.702C212.323 10.9916 211.965 11.1491 211.664 11.3904C211.363 11.6317 211.129 11.9487 210.985 12.31C210.085 14.4899 211.145 18.1251 213.381 20.5185Z" fill="#E0E0E0"/>
<path d="M219.634 12.22L224.05 9.63551C224.044 9.60961 224.044 9.58275 224.05 9.55685L224.718 7.25892C224.739 7.1856 224.739 7.1075 224.718 7.03418L221.356 8.99501L220.313 9.6018C220.337 9.68438 220.337 9.77204 220.313 9.85463L219.651 12.1469C219.639 12.1695 219.634 12.1946 219.634 12.22Z" fill="#E0E0E0"/>
<path d="M212.624 3.75928C212.675 3.80585 212.715 3.86347 212.74 3.92783L213.921 7.15281L218.337 4.56271L217.156 1.33774C217.133 1.27496 217.095 1.21897 217.045 1.1748L212.624 3.75928Z" fill="#E0E0E0"/>
<path d="M206.277 5.50018C206.333 5.48983 206.391 5.4942 206.445 5.51288C206.499 5.53155 206.548 5.56392 206.586 5.60693L208.794 7.68013C208.853 7.74862 208.934 7.79435 209.022 7.80969C209.11 7.82503 209.201 7.80904 209.28 7.76441C209.566 7.52613 209.889 7.33641 210.234 7.20256C210.311 7.17254 210.375 7.11629 210.415 7.0435C210.456 6.9707 210.47 6.8859 210.455 6.80365L209.771 3.62924C209.76 3.58649 209.764 3.5414 209.781 3.50083C209.798 3.46026 209.827 3.42644 209.865 3.40451L210.753 2.89885C210.726 2.89309 210.698 2.89309 210.67 2.89885C210.654 2.89591 210.637 2.89591 210.621 2.89885L206.277 5.50018Z" fill="#E0E0E0"/>
<path d="M205.3 13.76C205.343 13.739 205.39 13.7275 205.438 13.7263L207.309 13.6196C207.349 13.6211 207.39 13.6142 207.428 13.5993C207.466 13.5844 207.5 13.5618 207.529 13.5328C207.558 13.5039 207.581 13.4693 207.596 13.4311C207.611 13.3928 207.619 13.3518 207.618 13.3106C207.618 13.0072 207.579 12.7094 207.579 12.4229L205.3 13.76Z" fill="#E0E0E0"/>
<path d="M225.314 12.1309C225.329 12.1589 225.35 12.1837 225.375 12.2039L225.314 12.1309Z" fill="#E0E0E0"/>
<path d="M228.217 13.2031C228.251 13.2442 228.275 13.2921 228.289 13.3436L228.416 13.7762L229.089 16.0798L229.321 16.872C229.332 16.9143 229.332 16.9588 229.321 17.0012C229.317 17.0254 229.307 17.0484 229.294 17.0686C229.28 17.0899 229.263 17.1088 229.244 17.1248H229.205L228.863 17.3327L228.764 17.3832L228.493 17.5462L228.344 17.6361L228.173 17.7316L228.112 17.7709L227.93 17.872L226.937 18.4339L224.839 19.6699C224.882 19.6423 224.915 19.6007 224.932 19.5517C224.949 19.5028 224.95 19.4494 224.933 19.4003L224 16.3832L223.873 15.9505C223.857 15.8945 223.828 15.8428 223.791 15.7988L228.217 13.2031Z" fill="#E0E0E0"/>
<path d="M212.718 26.8673L215.009 25.5133C214.799 25.3841 214.573 25.2436 214.358 25.0919C214.142 24.9402 213.971 24.9571 213.894 25.0919L212.79 26.828C212.77 26.8474 212.745 26.861 212.718 26.8673Z" fill="#E0E0E0"/>
<path d="M219.634 26.699L220.319 29.8791C220.329 29.9202 220.325 29.9635 220.308 30.0021C220.291 30.0408 220.262 30.0726 220.225 30.0926C220.363 30.0139 222.521 28.7498 223.763 28.0137C223.671 28.0058 223.584 27.9639 223.52 27.8958L221.312 25.8282C221.254 25.7588 221.173 25.7124 221.084 25.697C220.996 25.6816 220.904 25.6982 220.827 25.7439C220.539 25.981 220.217 26.1706 219.872 26.3057C219.792 26.3316 219.725 26.3854 219.681 26.4576C219.638 26.5298 219.621 26.6154 219.634 26.699Z" fill="#E0E0E0"/>
<path d="M222.488 22.0301C222.483 22.1162 222.496 22.2024 222.527 22.2829L226.942 19.6984C226.911 19.6162 226.896 19.5283 226.898 19.44C226.928 19.1263 226.941 18.8112 226.937 18.4961L224.839 19.7321C224.793 19.757 224.742 19.7705 224.69 19.7715L222.819 19.8838C222.778 19.8823 222.738 19.8892 222.7 19.9041C222.662 19.9189 222.627 19.9414 222.597 19.9703C222.568 19.9991 222.545 20.0337 222.529 20.0719C222.513 20.1102 222.505 20.1513 222.505 20.1929C222.552 20.8046 222.546 21.4193 222.488 22.0301Z" fill="#E0E0E0"/>
<path d="M223.857 27.9858L224.751 27.4633L224.922 27.3622L226.368 26.5138L226.754 26.2834L228.239 25.407C228.25 25.4104 228.262 25.4104 228.272 25.407L228.306 25.362L229.294 23.1147C229.311 23.0542 229.311 22.9897 229.294 22.9292V22.8506L224.878 25.4407C224.909 25.5278 224.909 25.6232 224.878 25.7104L223.89 27.9577C223.88 27.9689 223.869 27.9784 223.857 27.9858Z" fill="#E0E0E0"/>
<path d="M221.964 43.5769L223.382 48.4256C223.436 48.5638 223.522 48.6868 223.633 48.7845C223.743 48.8822 223.875 48.9518 224.017 48.9874L226.826 49.6785C227.129 49.7625 227.387 49.9643 227.544 50.2403C227.992 51.1607 228.495 52.0519 229.051 52.9091C229.198 53.1319 229.258 53.4019 229.222 53.6676L228.306 56.8195C228.29 56.9529 228.305 57.0882 228.349 57.2148C228.393 57.3415 228.465 57.4561 228.559 57.5499L231.844 61.0839C232.004 61.2581 232.197 61.3143 232.324 61.2356C232.353 61.2172 232.378 61.1922 232.396 61.1625L233.93 58.7803C234.035 58.6118 234.322 58.623 234.57 58.7803C234.819 58.9377 235.172 59.1849 235.47 59.3422C235.768 59.4995 236.105 59.7018 236.419 59.8478C236.701 59.9863 236.931 60.2127 237.076 60.494L238.699 64.9213C238.76 65.0495 238.853 65.1597 238.968 65.2413C239.083 65.3229 239.216 65.3733 239.356 65.3876L242.348 65.691C242.444 65.7026 242.542 65.685 242.629 65.6404C242.68 65.6123 242.72 65.5677 242.743 65.5138C242.766 65.4598 242.77 65.3996 242.756 65.3427L241.812 60.9828C241.788 60.8669 241.806 60.746 241.863 60.6427C241.92 60.5394 242.012 60.4606 242.121 60.4209C242.594 60.2332 243.036 59.9716 243.429 59.6456C243.537 59.5862 243.661 59.565 243.782 59.5853C243.903 59.6057 244.014 59.6664 244.097 59.7579L247.155 62.6065C247.244 62.6977 247.361 62.7552 247.486 62.7694C247.523 62.7688 247.559 62.7592 247.591 62.7413C247.63 62.7213 247.659 62.6871 247.674 62.6458L249.037 59.5838C249.068 59.4574 249.068 59.3255 249.037 59.1992C249.006 59.073 248.946 58.9562 248.861 58.859L245.996 55.325C245.82 55.1063 245.722 54.8326 245.72 54.5497C245.795 53.7124 245.795 52.8699 245.72 52.0326C245.72 51.9756 245.731 51.9191 245.753 51.8666C245.775 51.814 245.807 51.7664 245.847 51.7266C245.887 51.6868 245.934 51.6556 245.987 51.6348C246.039 51.614 246.095 51.6041 246.151 51.6056L248.717 51.4595C248.772 51.4646 248.827 51.4559 248.878 51.4343C248.928 51.4127 248.973 51.3788 249.008 51.3356C249.043 51.2924 249.067 51.2411 249.077 51.1864C249.088 51.1316 249.086 51.0749 249.07 51.0213L247.668 46.1614C247.611 46.0281 247.524 45.9105 247.413 45.8178C247.303 45.7251 247.173 45.66 247.034 45.6276L244.224 44.9365C243.922 44.852 243.664 44.6503 243.507 44.3747C243.058 43.4549 242.555 42.5636 242 41.7059C241.851 41.4843 241.789 41.2132 241.829 40.9475L242.745 37.7955C242.761 37.6621 242.746 37.5267 242.702 37.4C242.658 37.2733 242.586 37.1587 242.491 37.0651L239.207 33.5311C239.008 33.3233 238.76 33.2839 238.655 33.4525L237.12 35.8347C237.016 36.0032 236.734 35.992 236.48 35.8347C235.89 35.422 235.27 35.0557 234.626 34.7391C234.344 34.6055 234.115 34.3801 233.974 34.0986L232.351 29.6713C232.291 29.5438 232.199 29.4341 232.085 29.3525C231.971 29.271 231.839 29.2202 231.7 29.2049L228.703 28.9016C228.606 28.893 228.509 28.9104 228.421 28.9521C228.37 28.9821 228.329 29.0284 228.305 29.0841C228.281 29.1399 228.275 29.202 228.289 29.2611L229.233 33.621C229.256 33.7361 229.238 33.8559 229.183 33.9588C229.127 34.0618 229.037 34.1412 228.929 34.1829C228.454 34.3667 228.013 34.6286 227.621 34.9582C227.512 35.0184 227.387 35.0394 227.264 35.018C227.142 34.9966 227.031 34.934 226.948 34.8402L223.89 31.9973C223.839 31.9326 223.77 31.8852 223.692 31.8611C223.615 31.837 223.531 31.8375 223.454 31.8625C223.419 31.8874 223.391 31.9201 223.371 31.958L222.013 35.0256C221.981 35.1514 221.979 35.2835 222.009 35.41C222.039 35.5365 222.099 35.6534 222.184 35.7504L225.049 39.2788C225.229 39.496 225.328 39.7702 225.33 40.0541C225.292 40.4755 225.275 40.9081 225.275 41.352C225.275 41.7958 225.303 42.1554 225.336 42.5712C225.337 42.6282 225.326 42.6848 225.305 42.7374C225.283 42.79 225.251 42.8376 225.211 42.8771C225.17 42.9166 225.122 42.9473 225.07 42.9671C225.017 42.987 224.961 42.9957 224.905 42.9926L222.339 43.1443C222.274 43.1431 222.209 43.1586 222.151 43.1892C222.079 43.2193 222.02 43.2754 221.985 43.3468C221.951 43.4182 221.943 43.5001 221.964 43.5769ZM233.224 52.4708C230.16 49.1784 228.703 44.1893 229.973 41.3295C230.168 40.8322 230.487 40.3956 230.9 40.0634C231.313 39.7311 231.803 39.5149 232.324 39.4361H232.44H232.55H232.683C233.414 39.4195 234.14 39.5752 234.802 39.8912C235.061 40.0077 235.314 40.139 235.558 40.2845C236.396 40.7956 237.158 41.4256 237.821 42.1554C240.123 44.6275 241.52 48.0491 241.536 50.8134C241.539 51.1101 241.523 51.4067 241.486 51.7011C241.433 52.2515 241.295 52.7899 241.078 53.2968C240.855 53.8707 240.465 54.3623 239.962 54.7063C239.458 55.0504 238.864 55.2309 238.257 55.2239H237.976L237.667 55.1958L237.402 55.1508L237.281 55.1227L237.115 55.0778C235.607 54.5901 234.26 53.6879 233.224 52.4708Z" fill="#F5F5F5"/>
<path d="M233.985 34.1266C234.128 34.3974 234.352 34.6141 234.626 34.7446C235.272 35.0587 235.892 35.4251 236.48 35.8402C236.729 36.0144 237.032 36.0256 237.121 35.8402L238.649 33.458C238.67 33.428 238.696 33.4031 238.727 33.3849H238.754L240.272 32.486C239.952 32.295 239.632 32.1264 239.323 31.9803L239.207 31.9129C239.094 31.8415 238.991 31.7567 238.898 31.6601C238.858 31.6216 238.821 31.5803 238.787 31.5365C238.763 31.5097 238.742 31.4794 238.727 31.4466L238.683 31.3623L233.985 34.1266Z" fill="#EBEBEB"/>
<path d="M241.818 41.0655C241.813 41.2999 241.876 41.5306 242 41.7285C242.554 42.586 243.059 43.4752 243.512 44.3916C243.55 44.4673 243.6 44.5357 243.661 44.5939L248.358 41.8352C248.325 41.8057 248.295 41.7717 248.27 41.7341C248.243 41.7032 248.218 41.6693 248.198 41.633C247.751 40.7107 247.248 39.8175 246.691 38.9586C246.66 38.9162 246.636 38.8687 246.62 38.8181C246.599 38.7902 246.586 38.7573 246.581 38.7226C246.578 38.704 246.578 38.685 246.581 38.6664C246.581 38.6664 246.581 38.5765 246.553 38.5372C246.54 38.4705 246.54 38.4017 246.553 38.335L241.818 41.0655Z" fill="#EBEBEB"/>
<path d="M240.272 32.492L243.413 30.638C243.453 30.6132 243.499 30.5996 243.545 30.5986C243.613 30.6049 243.679 30.625 243.738 30.6579C243.798 30.6907 243.851 30.7355 243.893 30.7897L245.858 32.9022L247.177 34.318C247.285 34.4369 247.364 34.5791 247.409 34.7338L244.141 36.6384L242.712 37.4756C242.665 37.3311 242.588 37.1988 242.486 37.0879L242.441 37.043L239.201 33.5539C239.151 33.4835 239.081 33.4303 239 33.4012C238.919 33.3721 238.832 33.3686 238.749 33.391L240.272 32.492Z" fill="#F5F5F5"/>
<path d="M228.444 28.9465C228.526 28.9124 228.615 28.8989 228.703 28.9072L231.695 29.2162C231.881 29.2349 232.055 29.3159 232.191 29.4465L236.889 26.6879C236.753 26.5549 236.579 26.4701 236.392 26.4463L233.395 26.1429C233.294 26.1292 233.191 26.1489 233.102 26.1991L232.291 26.6767L231.899 26.9126L230.685 27.6318L230.055 28.0026C229.895 28.0925 229.741 28.188 229.592 28.2667L228.444 28.9465Z" fill="#F5F5F5"/>
<path d="M243.661 44.5995C243.813 44.7605 244.003 44.8786 244.213 44.9422L247.023 45.6276C247.225 45.6837 247.406 45.8013 247.541 45.9647L252.25 43.2117C252.108 43.0379 251.914 42.9156 251.698 42.8634L248.888 42.1723C248.678 42.1144 248.488 41.9999 248.336 41.8408L243.661 44.5995Z" fill="#E6E6E6"/>
<path d="M245.792 54.8924C245.844 55.0464 245.92 55.1907 246.018 55.3194L248.883 58.8534C248.967 58.9573 249.029 59.0778 249.065 59.2074L253.757 56.4487C253.724 56.3144 253.662 56.1895 253.575 56.0835L250.71 52.5495C250.612 52.426 250.537 52.2851 250.489 52.1338L245.792 54.8924Z" fill="#E6E6E6"/>
<path d="M252.2 49.47L252.117 49.5262L252.228 49.4644L252.438 49.3408L252.2 49.47Z" fill="#E0E0E0"/>
<path d="M233.224 52.4708C234.265 53.6775 235.614 54.568 237.121 55.0441L237.281 55.0834L237.397 55.1115L237.667 55.1564L237.976 55.1845H238.169C238.199 55.1902 238.229 55.1902 238.258 55.1845C238.864 55.1915 239.458 55.0111 239.962 54.667C240.466 54.3229 240.855 53.8314 241.078 53.2574C241.297 52.7506 241.436 52.2123 241.492 51.6618C241.26 51.5494 241.023 51.4258 240.78 51.2854C237.468 49.3301 234.769 44.5938 234.769 40.689C234.769 40.3912 234.769 40.1272 234.802 39.8575C234.139 39.5374 233.411 39.3796 232.677 39.3968H232.55H232.44H232.324C231.804 39.4755 231.313 39.6918 230.9 40.024C230.488 40.3563 230.168 40.7928 229.973 41.2902C228.703 44.1893 230.16 49.1784 233.224 52.4708Z" fill="#E0E0E0"/>
<path d="M241.818 41.0654L246.509 38.3123C246.501 38.2754 246.501 38.2369 246.509 38.2L247.426 35.048C247.458 34.9457 247.458 34.8357 247.426 34.7334L244.158 36.638L242.728 37.4752C242.763 37.5866 242.763 37.7065 242.728 37.8179L241.818 40.9698C241.811 41.0014 241.811 41.0338 241.818 41.0654Z" fill="#E0E0E0"/>
<path d="M232.192 29.4466C232.261 29.5103 232.316 29.589 232.352 29.677L233.974 34.1099L238.672 31.3513L237.049 26.9183C237.016 26.8336 236.963 26.7584 236.894 26.6992L232.192 29.4466Z" fill="#E0E0E0"/>
<path d="M223.448 31.8401C223.525 31.8222 223.604 31.8263 223.678 31.8522C223.753 31.878 223.818 31.9244 223.868 31.9862L226.926 34.8291C227.009 34.922 227.121 34.9836 227.243 35.0039C227.365 35.0243 227.491 35.0023 227.599 34.9415C227.992 34.6181 228.431 34.3584 228.902 34.1718C229.011 34.1322 229.103 34.0533 229.16 33.95C229.217 33.8467 229.235 33.7258 229.211 33.6099L228.272 29.25C228.256 29.1915 228.26 29.1291 228.283 29.073C228.306 29.017 228.347 28.9704 228.399 28.941L229.547 28.2612C229.511 28.2528 229.473 28.2528 229.437 28.2612L229.371 28.3062L223.448 31.8401Z" fill="#E0E0E0"/>
<path d="M222.129 43.1837C222.188 43.1556 222.252 43.1403 222.317 43.1387L224.883 42.9926C224.996 42.9927 225.104 42.948 225.184 42.8683C225.264 42.7885 225.311 42.6799 225.314 42.5656C225.281 42.1499 225.253 41.7397 225.253 41.3408L222.129 43.1837Z" fill="#E0E0E0"/>
<path d="M248.287 41.7393C248.312 41.7768 248.341 41.8109 248.374 41.8404L248.287 41.7393Z" fill="#E0E0E0"/>
<path d="M252.261 43.2109C252.307 43.267 252.34 43.332 252.36 43.402L252.537 44.0031L253.459 47.1663L253.773 48.2507C253.793 48.309 253.793 48.3721 253.773 48.4305C253.766 48.4627 253.753 48.4932 253.735 48.5203C253.718 48.5528 253.694 48.5801 253.663 48.599L253.613 48.6327L253.139 48.9136L253.012 48.9923L252.631 49.217L252.432 49.3406L252.195 49.4699L252.112 49.5261L251.864 49.6665L250.495 50.4699L248.966 51.3745C249.025 51.3376 249.07 51.2815 249.094 51.2153C249.118 51.149 249.12 51.0765 249.098 51.0093L247.856 46.7505L247.68 46.155C247.657 46.0792 247.618 46.0099 247.564 45.9527L252.261 43.2109Z" fill="#E0E0E0"/>
<path d="M232.318 61.1905L235.47 59.3308C235.172 59.151 234.868 58.9543 234.57 58.7689C234.272 58.5835 234.018 58.5835 233.93 58.7689L232.396 61.1511C232.373 61.1692 232.346 61.1825 232.318 61.1905Z" fill="#E0E0E0"/>
<path d="M241.818 60.9654L242.761 65.3309C242.775 65.387 242.769 65.446 242.746 65.4987C242.723 65.5515 242.684 65.5951 242.634 65.623C242.822 65.5163 245.786 63.7746 247.492 62.7633C247.365 62.7519 247.246 62.6963 247.155 62.606L244.103 59.763C244.02 59.6706 243.91 59.6087 243.789 59.5874C243.668 59.566 243.543 59.5863 243.435 59.645C243.04 59.9724 242.596 60.2341 242.121 60.4204C242.016 60.4607 241.928 60.5373 241.872 60.6369C241.817 60.7365 241.797 60.8527 241.818 60.9654Z" fill="#E0E0E0"/>
<path d="M245.742 54.5436C245.733 54.662 245.75 54.781 245.792 54.8919L250.489 52.1333C250.446 52.0207 250.427 51.9 250.434 51.7793C250.473 51.3479 250.49 50.9147 250.484 50.4814L248.955 51.386C248.893 51.4242 248.823 51.4454 248.751 51.4478L246.178 51.5939C246.122 51.5916 246.066 51.601 246.014 51.6215C245.961 51.642 245.913 51.6732 245.873 51.7131C245.833 51.7531 245.801 51.801 245.779 51.8539C245.758 51.9068 245.747 51.9636 245.748 52.0209C245.821 52.8602 245.819 53.7046 245.742 54.5436Z" fill="#E0E0E0"/>
<path d="M247.619 62.7299C247.718 62.6737 248.204 62.3928 248.855 62.0051L249.087 61.8703L251.069 60.7016L251.621 60.387L252.305 59.9825C252.325 59.974 252.342 59.9605 252.355 59.9431C252.369 59.9258 252.382 59.9069 252.393 59.8869L253.751 56.8361C253.777 56.7521 253.777 56.6618 253.751 56.5777V56.4766L249.06 59.2352C249.101 59.3553 249.101 59.486 249.06 59.606L247.696 62.6624C247.678 62.6926 247.651 62.7162 247.619 62.7299Z" fill="#E0E0E0"/>
<path d="M155.965 9.43348V140.101C156.005 140.832 156.212 141.543 156.571 142.177C156.929 142.811 157.429 143.351 158.03 143.753L214.954 177.2C216.091 177.874 217.018 177.323 217.018 175.98V45.3184C216.978 44.5878 216.771 43.8768 216.412 43.2425C216.054 42.6083 215.554 42.0685 214.954 41.6664L158.03 8.21991C156.893 7.54569 155.965 8.09068 155.965 9.43348ZM158.94 25.0302C158.94 23.9065 159.735 23.4121 160.718 23.9908L212.47 54.3977C212.987 54.742 213.417 55.2051 213.726 55.7496C214.034 56.2942 214.213 56.905 214.247 57.5328V159.884C214.247 161.041 213.447 161.502 212.47 160.929L160.718 130.516C159.735 129.954 158.94 129.207 158.94 128.061V25.0302Z" fill="#188255"/>
<path opacity="0.5" d="M155.965 9.43348V140.101C156.005 140.832 156.212 141.543 156.571 142.177C156.929 142.811 157.429 143.351 158.03 143.753L214.954 177.2C216.091 177.874 217.018 177.323 217.018 175.98V45.3184C216.978 44.5878 216.771 43.8768 216.412 43.2425C216.054 42.6083 215.554 42.0685 214.954 41.6664L158.03 8.21991C156.893 7.54569 155.965 8.09068 155.965 9.43348ZM158.94 25.0302C158.94 23.9065 159.735 23.4121 160.718 23.9908L212.47 54.3977C212.987 54.742 213.417 55.2051 213.726 55.7496C214.034 56.2942 214.213 56.905 214.247 57.5328V159.884C214.247 161.041 213.447 161.502 212.47 160.929L160.718 130.516C159.735 129.954 158.94 129.207 158.94 128.061V25.0302Z" fill="black"/>
<path d="M215.208 177.329C215.822 177.593 216.486 177.718 217.153 177.696C217.82 177.674 218.475 177.504 219.071 177.2L221.439 175.806C222.044 175.408 222.547 174.869 222.908 174.234C223.269 173.599 223.477 172.887 223.515 172.154V41.4978C223.503 40.9538 223.381 40.4181 223.156 39.9246C223.084 39.7518 223.003 39.583 222.913 39.4189L216.4 43.2451C216.537 43.4946 216.657 43.7537 216.759 44.0204C216.913 44.4375 216.997 44.8782 217.007 45.3239V175.986C217.018 177.222 216.229 177.784 215.208 177.329Z" fill="#188255"/>
<path opacity="0.7" d="M215.208 177.329C215.822 177.593 216.486 177.718 217.153 177.696C217.82 177.674 218.475 177.504 219.071 177.2L221.439 175.806C222.044 175.408 222.547 174.869 222.908 174.234C223.269 173.599 223.477 172.887 223.515 172.154V41.4978C223.503 40.9538 223.381 40.4181 223.156 39.9246C223.084 39.7518 223.003 39.583 222.913 39.4189L216.4 43.2451C216.537 43.4946 216.657 43.7537 216.759 44.0204C216.913 44.4375 216.997 44.8782 217.007 45.3239V175.986C217.018 177.222 216.229 177.784 215.208 177.329Z" fill="black"/>
<path d="M185.998 148.978C184.193 147.922 182.73 148.781 182.73 150.899C182.791 152.054 183.119 153.178 183.687 154.179C184.254 155.181 185.046 156.032 185.998 156.664C187.803 157.72 189.265 156.861 189.265 154.742C189.204 153.588 188.876 152.464 188.309 151.462C187.741 150.461 186.949 149.61 185.998 148.978Z" stroke="#E6E6E6" stroke-miterlimit="10"/>
<path d="M186.467 27.7607C185.705 27.3112 185.081 27.6764 185.081 28.5754C185.109 29.0654 185.248 29.5421 185.489 29.9675C185.729 30.3928 186.064 30.755 186.467 31.025C187.234 31.4745 187.858 31.1093 187.858 30.2047C187.831 29.7147 187.691 29.2379 187.45 28.8132C187.208 28.3885 186.871 28.0279 186.467 27.7607Z" fill="black"/>
<path d="M191.848 36.3507L181.135 30.0525C180.494 29.6817 179.976 29.9457 179.976 30.648C180.004 31.0446 180.123 31.4289 180.325 31.7696C180.526 32.1103 180.804 32.3978 181.135 32.6089L191.848 38.9015C192.489 39.2779 193.007 39.0139 193.007 38.3059C192.979 37.9103 192.858 37.5272 192.657 37.1875C192.456 36.8479 192.179 36.5612 191.848 36.3507Z" fill="black"/>
<path d="M158.94 128.06C158.94 129.184 159.735 129.942 160.718 130.516L212.47 160.928C213.447 161.49 214.247 161.04 214.247 159.883V57.5322C214.213 56.9044 214.034 56.2936 213.726 55.749C213.417 55.2044 212.987 54.7414 212.47 54.3971L160.718 23.9902C159.735 23.4284 158.94 23.8778 158.94 25.0296V128.06Z" fill="#188255"/>
<path opacity="0.5" d="M158.94 128.06C158.94 129.184 159.735 129.942 160.718 130.516L212.47 160.928C213.447 161.49 214.247 161.04 214.247 159.883V57.5322C214.213 56.9044 214.034 56.2936 213.726 55.749C213.417 55.2044 212.987 54.7414 212.47 54.3971L160.718 23.9902C159.735 23.4284 158.94 23.8778 158.94 25.0296V128.06Z" fill="white"/>
<path d="M162.401 32.7721V31.8113C162.401 31.6034 162.484 31.4798 162.583 31.536L162.633 31.5697C162.696 31.6308 162.745 31.7052 162.776 31.7878C162.808 31.8703 162.821 31.959 162.815 32.0473V33.008C162.815 33.2159 162.732 33.3395 162.633 33.2777H162.583C162.517 33.2132 162.466 33.134 162.434 33.0464C162.403 32.9587 162.391 32.8649 162.401 32.7721Z" fill="#455A64"/>
<path d="M163.224 33.2387V31.5532C163.224 31.3453 163.301 31.2217 163.4 31.2835H163.45C163.513 31.3459 163.562 31.4214 163.593 31.5048C163.625 31.5882 163.638 31.6776 163.632 31.7667V33.4242C163.632 33.632 163.549 33.75 163.45 33.6938L163.4 33.6657C163.29 33.5518 163.226 33.3989 163.224 33.2387Z" fill="#455A64"/>
<path d="M164.041 33.7323V31.3725C164.041 31.1646 164.123 31.0467 164.223 31.1028L164.272 31.1309C164.335 31.1935 164.384 31.269 164.415 31.3524C164.447 31.4357 164.46 31.525 164.455 31.6141V33.9739C164.455 34.1817 164.372 34.2997 164.272 34.2435H164.223C164.156 34.1778 164.106 34.0977 164.074 34.0092C164.043 33.9206 164.031 33.826 164.041 33.7323Z" fill="#455A64"/>
<path d="M164.863 34.2098V30.1421C164.863 29.9342 164.94 29.8106 165.04 29.8724H165.089C165.152 29.935 165.2 30.0105 165.232 30.0938C165.263 30.1772 165.277 30.2665 165.271 30.3556V34.4233C165.271 34.6312 165.189 34.7548 165.089 34.693H165.04C164.977 34.6304 164.929 34.5547 164.899 34.4713C164.868 34.3878 164.856 34.2986 164.863 34.2098Z" fill="#455A64"/>
<path d="M167.082 35.795C167.063 35.7469 167.053 35.6952 167.054 35.6433V35.0477L166.138 34.4859C166.115 34.4732 166.094 34.4556 166.078 34.4343C166.062 34.413 166.05 34.3885 166.044 34.3623V34.1488C166.04 34.1133 166.04 34.0775 166.044 34.042C166.052 34.0153 166.061 33.989 166.072 33.9634L167.049 32.3958C167.049 32.3958 167.082 32.3509 167.098 32.3453C167.115 32.3397 167.132 32.3453 167.159 32.3453L167.286 32.4239C167.326 32.4437 167.357 32.4777 167.374 32.5194C167.384 32.5714 167.384 32.6248 167.374 32.6768V34.7668L167.579 34.8848C167.614 34.9058 167.643 34.9371 167.661 34.9747C167.671 35.0286 167.671 35.0838 167.661 35.1376V35.2781C167.673 35.3184 167.673 35.3613 167.661 35.4017C167.661 35.4017 167.617 35.4017 167.579 35.4017L167.374 35.2837V35.8793C167.386 35.9196 167.386 35.9625 167.374 36.0029C167.374 36.0029 167.33 36.0029 167.286 36.0029L167.132 35.913C167.103 35.8802 167.085 35.8388 167.082 35.795ZM167.115 34.5758V33.0869L166.447 34.2106L167.115 34.5758Z" fill="#455A64"/>
<path d="M168.169 36.0761C167.98 35.5863 167.888 35.063 167.899 34.5367C167.858 34.1112 167.953 33.6837 168.169 33.3175C168.353 33.104 168.607 33.0927 168.931 33.2837C169.203 33.4407 169.428 33.6698 169.582 33.9467C169.59 33.9742 169.59 34.0035 169.582 34.031C169.584 34.0497 169.584 34.0685 169.582 34.0872L169.499 34.3007C169.499 34.3007 169.499 34.3344 169.466 34.3288C169.45 34.3152 169.437 34.2979 169.428 34.2782C169.311 34.0849 169.15 33.923 168.958 33.8063C168.738 33.677 168.561 33.6827 168.44 33.8344C168.285 34.1121 168.219 34.4324 168.252 34.7502C168.241 35.1332 168.302 35.5148 168.434 35.8738C168.526 36.1341 168.701 36.3555 168.931 36.5031C169.001 36.5474 169.077 36.5815 169.157 36.6042C169.217 36.6202 169.28 36.6202 169.339 36.6042V35.6547L168.958 35.43C168.921 35.4084 168.892 35.3748 168.876 35.3345C168.866 35.2825 168.866 35.2291 168.876 35.1772V35.0423C168.876 34.9749 168.876 34.9356 168.876 34.9187C168.876 34.9019 168.92 34.9187 168.958 34.9187L169.566 35.2783C169.609 35.3028 169.643 35.3428 169.659 35.3907C169.679 35.4505 169.688 35.5131 169.687 35.5761V36.9582C169.692 36.9955 169.692 37.0333 169.687 37.0706C169.683 37.091 169.671 37.1091 169.654 37.1211C169.532 37.1646 169.401 37.1761 169.274 37.1544C169.147 37.1328 169.027 37.0789 168.925 36.9975C168.582 36.782 168.316 36.4586 168.169 36.0761Z" fill="#455A64"/>
<path d="M210.058 56.8357C210 56.6128 209.872 56.4154 209.693 56.2738L206.934 54.6557C206.696 54.5153 206.514 54.7906 206.514 55.285V57.3975C206.517 57.6891 206.57 57.978 206.669 58.2515C206.708 58.361 206.758 58.4664 206.818 58.5662C206.872 58.6597 206.945 58.7402 207.033 58.8021L209.793 60.4202C210.03 60.5551 210.218 60.2798 210.218 59.7854V57.6897C210.213 57.3978 210.159 57.109 210.058 56.8357ZM206.779 58.0998C206.737 57.981 206.716 57.8553 206.718 57.729V55.6333C206.718 55.2682 206.867 55.0434 207.039 55.1502L209.798 56.7683C209.846 56.7971 209.886 56.8377 209.914 56.8863C209.932 56.9184 209.947 56.9523 209.958 56.9874C210 57.1082 210.021 57.2357 210.019 57.3638V59.4539C210.019 59.8191 209.87 60.0438 209.699 59.9371L206.939 58.319C206.858 58.2644 206.8 58.1798 206.779 58.083V58.0998Z" fill="#455A64"/>
<path d="M208.512 56.3752V58.8529L207.033 57.9596L206.983 57.9203C206.986 57.8923 206.986 57.864 206.983 57.836V55.9538C206.983 55.6898 207.099 55.5212 207.226 55.5943L208.512 56.3752Z" fill="#455A64"/>
<path d="M210.35 57.7689C210.455 57.825 210.538 58.2239 210.538 58.6509V59.0386C210.538 59.4712 210.455 59.7803 210.35 59.7297L210.163 59.6398V57.6621L210.35 57.7689Z" fill="#455A64"/>
<path d="M203.522 55.9423C203.522 56.403 203.285 56.6389 202.97 56.4648C202.798 56.329 202.658 56.1544 202.562 55.9546C202.466 55.7548 202.417 55.5353 202.418 55.313C202.418 54.8523 202.656 54.6219 202.97 54.7905C203.144 54.9257 203.284 55.1001 203.38 55.3C203.476 55.5 203.525 55.7198 203.522 55.9423Z" fill="#455A64"/>
<path d="M202.987 53.4254C202.883 53.3491 202.762 53.2996 202.635 53.2809C202.508 53.2621 202.378 53.2748 202.257 53.3178C202.136 53.3607 202.027 53.4328 201.939 53.5278C201.85 53.6228 201.786 53.7379 201.751 53.8636C201.73 53.9375 201.724 54.015 201.733 54.0914C201.743 54.1677 201.767 54.2413 201.806 54.3074C201.905 54.4872 202.054 54.5322 202.115 54.3861C202.137 54.2956 202.181 54.2122 202.243 54.1434C202.305 54.0745 202.383 54.0224 202.469 53.9917C202.556 53.9611 202.648 53.9528 202.739 53.9677C202.829 53.9826 202.915 54.0202 202.987 54.0771C203.43 54.3984 203.74 54.8745 203.859 55.4143C203.92 55.6278 204.069 55.7626 204.174 55.6952C204.218 55.6435 204.246 55.58 204.256 55.5124C204.266 55.4447 204.257 55.3756 204.229 55.3131C204.051 54.5526 203.61 53.8826 202.987 53.4254Z" fill="#455A64"/>
<path d="M202.987 52.0881C202.834 51.9743 202.659 51.8969 202.472 51.8616C202.286 51.8263 202.095 51.834 201.912 51.8842C201.729 51.9343 201.56 52.0257 201.416 52.1514C201.273 52.2771 201.159 52.434 201.083 52.6106C201.057 52.687 201.047 52.7682 201.055 52.8487C201.063 52.9291 201.087 53.007 201.127 53.0769C201.221 53.2567 201.364 53.3016 201.431 53.1724C201.492 53.0281 201.584 52.8998 201.701 52.7969C201.818 52.694 201.956 52.6193 202.105 52.5782C202.254 52.5372 202.41 52.5309 202.562 52.5599C202.714 52.5888 202.857 52.6522 202.982 52.7454C203.74 53.2896 204.289 54.0835 204.538 54.9928C204.605 55.1951 204.748 55.3243 204.842 55.2569C204.93 55.2007 204.947 55.0209 204.886 54.8411C204.58 53.7298 203.91 52.7583 202.987 52.0881Z" fill="#455A64"/>
<path d="M155.982 9.07935C156.131 7.95567 156.992 7.58485 158.029 8.19726L214.954 41.6662C215.565 42.0543 216.069 42.596 216.416 43.2394L222.929 39.4132C222.579 38.7723 222.073 38.2328 221.461 37.8457L164.548 4.39359C163.906 4.06104 163.196 3.8877 162.476 3.8877C161.755 3.8877 161.045 4.06104 160.403 4.39359L158.029 5.78133C157.477 6.15069 157.008 6.63605 156.655 7.20487C156.302 7.77368 156.072 8.4128 155.982 9.07935Z" fill="#188255"/>
<path opacity="0.2" d="M155.982 9.07935C156.131 7.95567 156.992 7.58485 158.029 8.19726L214.954 41.6662C215.565 42.0543 216.069 42.596 216.416 43.2394L222.929 39.4132C222.579 38.7723 222.073 38.2328 221.461 37.8457L164.548 4.39359C163.906 4.06104 163.196 3.8877 162.476 3.8877C161.755 3.8877 161.045 4.06104 160.403 4.39359L158.029 5.78133C157.477 6.15069 157.008 6.63605 156.655 7.20487C156.302 7.77368 156.072 8.4128 155.982 9.07935Z" fill="black"/>
<path d="M91.264 8.21991L34.34 41.6664C33.7394 42.0685 33.2397 42.6083 32.8812 43.2425C32.5227 43.8768 32.3153 44.5878 32.2756 45.3184V175.98C32.2756 177.323 33.2029 177.874 34.34 177.2L91.264 143.753C91.8646 143.351 92.3642 142.811 92.7228 142.177C93.0813 141.543 93.2887 140.832 93.3284 140.101V9.43348C93.3284 8.09068 92.4011 7.54569 91.264 8.21991ZM90.3533 128.061C90.3533 129.185 89.5584 129.943 88.5759 130.516L36.8238 160.929C35.8468 161.491 35.0465 161.041 35.0465 159.884V57.5328C35.0806 56.905 35.2593 56.2942 35.568 55.7496C35.8768 55.2051 36.3069 54.742 36.8238 54.3977L88.5759 23.9908C89.5584 23.429 90.3533 23.8785 90.3533 25.0302V128.061Z" fill="#188255"/>
<path opacity="0.5" d="M91.264 8.21991L34.34 41.6664C33.7394 42.0685 33.2397 42.6083 32.8812 43.2425C32.5227 43.8768 32.3153 44.5878 32.2756 45.3184V175.98C32.2756 177.323 33.2029 177.874 34.34 177.2L91.264 143.753C91.8646 143.351 92.3642 142.811 92.7228 142.177C93.0813 141.543 93.2887 140.832 93.3284 140.101V9.43348C93.3284 8.09068 92.4011 7.54569 91.264 8.21991ZM90.3533 128.061C90.3533 129.185 89.5584 129.943 88.5759 130.516L36.8238 160.929C35.8468 161.491 35.0465 161.041 35.0465 159.884V57.5328C35.0806 56.905 35.2593 56.2942 35.568 55.7496C35.8768 55.2051 36.3069 54.742 36.8238 54.3977L88.5759 23.9908C89.5584 23.429 90.3533 23.8785 90.3533 25.0302V128.061Z" fill="black"/>
<path d="M34.0861 177.329C33.4712 177.593 32.8074 177.718 32.1403 177.696C31.4732 177.674 30.8189 177.504 30.2224 177.2L27.8544 175.806C27.2496 175.408 26.7462 174.869 26.3855 174.234C26.0247 173.599 25.8169 172.887 25.7791 172.154V41.4978C25.7904 40.9538 25.9126 40.4181 26.1378 39.9246C26.2099 39.7518 26.2909 39.583 26.3807 39.4189L32.8939 43.2451C32.7565 43.4946 32.6366 43.7537 32.5351 44.0204C32.3803 44.4375 32.2963 44.8782 32.2867 45.3239V175.986C32.2757 177.222 33.065 177.784 34.0861 177.329Z" fill="#188255"/>
<path opacity="0.7" d="M34.0861 177.329C33.4712 177.593 32.8074 177.718 32.1403 177.696C31.4732 177.674 30.8189 177.504 30.2224 177.2L27.8544 175.806C27.2496 175.408 26.7462 174.869 26.3855 174.234C26.0247 173.599 25.8169 172.887 25.7791 172.154V41.4978C25.7904 40.9538 25.9126 40.4181 26.1378 39.9246C26.2099 39.7518 26.2909 39.583 26.3807 39.4189L32.8939 43.2451C32.7565 43.4946 32.6366 43.7537 32.5351 44.0204C32.3803 44.4375 32.2963 44.8782 32.2867 45.3239V175.986C32.2757 177.222 33.065 177.784 34.0861 177.329Z" fill="black"/>
<path d="M63.2962 148.978C65.1011 147.922 66.5638 148.781 66.5638 150.899C66.5027 152.054 66.175 153.178 65.6072 154.179C65.0395 155.181 64.2477 156.032 63.2962 156.664C61.4913 157.72 60.0286 156.861 60.0286 154.742C60.0897 153.588 60.4174 152.464 60.9852 151.462C61.5529 150.461 62.3447 149.61 63.2962 148.978Z" stroke="#E6E6E6" stroke-miterlimit="10"/>
<path d="M62.827 27.7607C63.5887 27.3112 64.2124 27.6764 64.2124 28.5754C64.1852 29.0654 64.0457 29.5421 63.8052 29.9675C63.5646 30.3928 63.2296 30.755 62.827 31.025C62.0598 31.4745 61.436 31.1093 61.436 30.2047C61.4626 29.7147 61.6024 29.2379 61.8441 28.8132C62.0858 28.3885 62.4225 28.0279 62.827 27.7607Z" fill="black"/>
<path d="M57.4453 36.3507L68.1589 30.0525C68.7992 29.6817 69.318 29.9457 69.318 30.648C69.2899 31.0446 69.1703 31.4289 68.9689 31.7696C68.7675 32.1103 68.49 32.3978 68.1589 32.6089L57.4453 38.9015C56.805 39.2779 56.2861 39.0139 56.2861 38.3059C56.3151 37.9103 56.4351 37.5272 56.6365 37.1875C56.8378 36.8479 57.1149 36.5612 57.4453 36.3507Z" fill="black"/>
<path d="M90.3534 128.06C90.3534 129.184 89.5586 129.942 88.5761 130.516L36.824 160.928C35.847 161.49 35.0466 161.04 35.0466 159.883V57.5322C35.0808 56.9044 35.2594 56.2936 35.5682 55.749C35.8769 55.2044 36.3071 54.7414 36.824 54.3971L88.5761 23.9902C89.5586 23.4284 90.3534 23.8778 90.3534 25.0296V128.06Z" fill="#188255"/>
<path opacity="0.9" d="M90.3534 128.06C90.3534 129.184 89.5586 129.942 88.5761 130.516L36.824 160.928C35.847 161.49 35.0466 161.04 35.0466 159.883V57.5322C35.0808 56.9044 35.2594 56.2936 35.5682 55.749C35.8769 55.2044 36.3071 54.7414 36.824 54.3971L88.5761 23.9902C89.5586 23.4284 90.3534 23.8778 90.3534 25.0296V128.06Z" fill="white"/>
<path d="M76.8853 37.4916C76.8853 37.958 77.1226 38.1883 77.4372 38.0141C77.6077 37.8824 77.7461 37.7126 77.8418 37.5177C77.9375 37.3229 77.9879 37.1083 77.9892 36.8904C77.9892 36.4297 77.7518 36.1938 77.4372 36.3679C77.2668 36.4997 77.1284 36.6695 77.0327 36.8643C76.937 37.0592 76.8865 37.2738 76.8853 37.4916Z" fill="#455A64"/>
<path d="M76.179 36.8734C76.1516 36.9359 76.1422 37.005 76.152 37.0727C76.1617 37.1403 76.1903 37.2037 76.2342 37.2555C76.3391 37.3173 76.4881 37.1825 76.5488 36.969C76.6708 36.4304 76.9807 35.9552 77.4209 35.6318C77.4939 35.5749 77.5797 35.5375 77.6705 35.5229C77.7613 35.5084 77.8542 35.5171 77.9408 35.5484C78.0274 35.5796 78.105 35.6324 78.1665 35.7019C78.228 35.7714 78.2715 35.8555 78.293 35.9464C78.3538 36.0869 78.5028 36.0475 78.6021 35.8621C78.6415 35.7952 78.6667 35.7207 78.6762 35.6433C78.6857 35.5659 78.6793 35.4874 78.6573 35.4126C78.6214 35.2875 78.5566 35.1729 78.4681 35.0785C78.3797 34.9842 78.2703 34.9128 78.1492 34.8704C78.0281 34.828 77.8987 34.8159 77.7719 34.8349C77.6452 34.854 77.5248 34.9038 77.4209 34.98C76.7968 35.4387 76.3559 36.1108 76.179 36.8734Z" fill="#455A64"/>
<path d="M75.522 36.4015C75.4612 36.5813 75.4778 36.7611 75.5661 36.8172C75.66 36.879 75.8035 36.7554 75.8697 36.5532C76.1215 35.6453 76.6707 34.8523 77.4262 34.3058C77.551 34.2128 77.6947 34.1496 77.8468 34.1211C77.9988 34.0925 78.1553 34.0993 78.3044 34.1409C78.4535 34.1825 78.5915 34.2578 78.708 34.3613C78.8245 34.4648 78.9165 34.5937 78.9773 34.7384C79.0435 34.862 79.187 34.8227 79.2808 34.6429C79.3198 34.5726 79.3435 34.4945 79.3501 34.414C79.3568 34.3336 79.3463 34.2526 79.3195 34.1766C79.2437 34.0006 79.1299 33.8443 78.9867 33.7192C78.8435 33.594 78.6745 33.5033 78.4921 33.4536C78.3098 33.404 78.1188 33.3968 77.9334 33.4324C77.7479 33.4681 77.5727 33.5458 77.4207 33.6597C76.4997 34.3271 75.8299 35.2943 75.522 36.4015Z" fill="#455A64"/>
<path d="M38.3197 60.6564V59.8249C38.3178 59.7391 38.3352 59.6539 38.3706 59.576C38.406 59.4981 38.4584 59.4295 38.524 59.3754L38.5847 59.3417C38.6951 59.2743 38.7889 59.3417 38.7889 59.544V60.3755C38.7909 60.4613 38.7735 60.5464 38.7381 60.6244C38.7027 60.7023 38.6502 60.7709 38.5847 60.825L38.524 60.8587C38.408 60.9261 38.3197 60.8362 38.3197 60.6564Z" fill="#455A64"/>
<path d="M39.2636 60.1001V58.6618C39.2616 58.576 39.279 58.4908 39.3144 58.4129C39.3498 58.335 39.4023 58.2664 39.4678 58.2123L39.5285 58.1786C39.6444 58.1112 39.7383 58.1786 39.7383 58.3809V59.8192C39.7396 59.9055 39.7213 59.9909 39.6849 60.0688C39.6486 60.1468 39.595 60.2152 39.5285 60.2687L39.4678 60.3024C39.3574 60.3698 39.2636 60.2799 39.2636 60.1001Z" fill="#455A64"/>
<path d="M40.1965 59.5441V57.4989C40.1961 57.4136 40.2147 57.3293 40.2511 57.2524C40.2874 57.1755 40.3405 57.108 40.4063 57.0551L40.4615 57.0214C40.5774 56.954 40.6712 57.0214 40.6712 57.2236V59.2631C40.6725 59.3494 40.6543 59.4348 40.6179 59.5128C40.5815 59.5907 40.528 59.6591 40.4615 59.7126L40.4063 59.7463C40.3014 59.8137 40.1965 59.7238 40.1965 59.5441Z" fill="#455A64"/>
<path d="M41.1568 58.9873V55.4589C41.1557 55.374 41.1735 55.29 41.2088 55.2131C41.2442 55.1362 41.2962 55.0685 41.361 55.015L41.4217 54.9813C41.5376 54.9139 41.6315 54.9813 41.6315 55.1836V58.7064C41.6334 58.7922 41.616 58.8773 41.5806 58.9552C41.5452 59.0331 41.4928 59.1018 41.4273 59.1558L41.3665 59.1895C41.2506 59.257 41.1568 59.1671 41.1568 58.9873Z" fill="#455A64"/>
<path d="M43.7179 57.7235C43.7179 57.7235 43.7179 57.6729 43.7179 57.6224V57.1055L42.6526 57.7291C42.5974 57.7628 42.5698 57.7291 42.5698 57.6673V57.4819C42.5666 57.4483 42.5666 57.4144 42.5698 57.3808L42.6085 57.274L43.7124 54.757C43.7281 54.7218 43.7466 54.688 43.7676 54.6559C43.7893 54.6327 43.8133 54.612 43.8393 54.5941L43.9884 54.5098C44.0325 54.4798 44.0656 54.4798 44.0877 54.5098C44.1013 54.546 44.1013 54.586 44.0877 54.6221V56.4257L44.3251 56.2908C44.3692 56.2627 44.3968 56.2571 44.4189 56.2908C44.441 56.3245 44.4189 56.3414 44.4189 56.3976V56.5212C44.4286 56.5656 44.4286 56.6116 44.4189 56.656C44.3961 56.694 44.3637 56.7251 44.3251 56.7459L44.0877 56.8864V57.3976C44.0923 57.4447 44.0826 57.492 44.0599 57.5332C44.0372 57.5744 44.0026 57.6075 43.9608 57.628L43.7841 57.7291C43.7676 57.7291 43.7345 57.7348 43.7179 57.7235ZM43.7565 56.5998V55.3076L42.9893 57.0493L43.7565 56.5998Z" fill="#455A64"/>
<path d="M44.9767 56.6675C44.7669 56.5102 44.6676 56.1731 44.6676 55.6562C44.6605 55.1787 44.7665 54.7066 44.9767 54.2797C45.1759 53.89 45.4804 53.5664 45.8543 53.347C45.9875 53.2667 46.1303 53.2044 46.2793 53.1616C46.3871 53.1271 46.5027 53.1271 46.6105 53.1616C46.6139 53.1676 46.6157 53.1744 46.6157 53.1813C46.6157 53.1882 46.6139 53.195 46.6105 53.2009C46.6145 53.2213 46.6145 53.2424 46.6105 53.2627L46.5111 53.5437C46.5111 53.583 46.5111 53.6055 46.4725 53.6111H46.4283C46.234 53.592 46.039 53.6416 45.8764 53.7515C45.6204 53.9054 45.412 54.1293 45.2747 54.3977C45.1232 54.7139 45.0493 55.0629 45.0595 55.4146C45.0595 55.8135 45.1312 56.072 45.2692 56.1787C45.4072 56.2855 45.6059 56.2742 45.8488 56.1338C45.9399 56.079 46.0267 56.017 46.1082 55.9484C46.186 55.8878 46.2564 55.818 46.3179 55.7405V54.9033L45.8764 55.1618C45.8322 55.1899 45.7991 55.1955 45.7825 55.1618C45.7698 55.1274 45.7698 55.0894 45.7825 55.055V54.937C45.7719 54.8908 45.7719 54.8428 45.7825 54.7966C45.8053 54.7586 45.8377 54.7275 45.8764 54.7067L46.5829 54.2965C46.6326 54.2628 46.6657 54.2628 46.6878 54.2965C46.7098 54.3302 46.7209 54.3583 46.7209 54.4258V55.6225C46.7246 55.6598 46.7246 55.6975 46.7209 55.7349C46.7117 55.7656 46.6967 55.7942 46.6767 55.8191C46.4553 56.1317 46.1688 56.3907 45.8377 56.5776C45.479 56.7911 45.1643 56.8361 44.9767 56.6675Z" fill="#455A64"/>
<path d="M85.4078 29.7385C85.3545 29.6816 85.283 29.6458 85.2061 29.6376C85.1293 29.6293 85.0521 29.6492 84.9883 29.6936L81.809 31.5533C81.6533 31.6791 81.5284 31.84 81.4442 32.0233C81.3599 32.2066 81.3185 32.4072 81.3232 32.6095V34.4187C81.3147 34.52 81.3265 34.622 81.3578 34.7186C81.3891 34.8151 81.4393 34.9042 81.5054 34.9805C81.5517 35.0291 81.6113 35.0624 81.6765 35.076C81.7626 35.0916 81.8513 35.0735 81.9249 35.0254L85.1042 33.1601C85.2598 33.0343 85.3847 32.8734 85.469 32.6901C85.5533 32.5068 85.5947 32.3062 85.5899 32.1039V30.2947C85.5976 30.1943 85.5855 30.0934 85.5542 29.9978C85.5229 29.9023 85.4731 29.8141 85.4078 29.7385ZM81.6213 34.7277C81.5689 34.6527 81.5454 34.5607 81.5551 34.4692V32.677C81.5535 32.5234 81.5859 32.3714 81.6499 32.2323C81.7139 32.0932 81.8079 31.9706 81.9249 31.8735L85.1042 30.0082C85.1436 29.9826 85.1901 29.9708 85.2367 29.9745H85.2919C85.3442 30.0495 85.3678 30.1414 85.3581 30.2329V32.0421C85.3597 32.1957 85.3273 32.3476 85.2632 32.4867C85.1992 32.6258 85.1052 32.7485 84.9883 32.8455L81.809 34.7108C81.7317 34.767 81.6655 34.7726 81.6213 34.7277Z" fill="#455A64"/>
<path d="M83.6249 31.1826V33.3289L81.9138 34.3346H81.8586C81.8616 34.3103 81.8616 34.2858 81.8586 34.2615V32.6771C81.8589 32.5633 81.8837 32.451 81.9314 32.348C81.9791 32.2451 82.0485 32.1541 82.1346 32.0816L83.6249 31.1826Z" fill="#455A64"/>
<path d="M85.7499 30.2044C85.8658 30.137 85.9597 30.3842 85.9597 30.7663V31.1034C85.9875 31.3925 85.9109 31.6821 85.7444 31.918L85.5347 32.0585V30.373L85.7499 30.2044Z" fill="#455A64"/>
<path d="M93.3119 9.07929C93.1629 7.95561 92.3019 7.58479 91.2642 8.1972L34.3401 41.6662C33.7282 42.0543 33.2245 42.596 32.8774 43.2393L26.3643 39.4188C26.715 38.7779 27.2203 38.2384 27.8325 37.8513L84.7455 4.39353C85.3866 4.06103 86.0958 3.8877 86.8153 3.8877C87.5348 3.8877 88.2441 4.06103 88.8852 4.39353L91.2642 5.78127C91.8167 6.15062 92.2853 6.63599 92.6385 7.2048C92.9917 7.77362 93.2213 8.41274 93.3119 9.07929Z" fill="#188255"/>
<path opacity="0.2" d="M93.3119 9.07929C93.1629 7.95561 92.3019 7.58479 91.2642 8.1972L34.3401 41.6662C33.7282 42.0543 33.2245 42.596 32.8774 43.2393L26.3643 39.4188C26.715 38.7779 27.2203 38.2384 27.8325 37.8513L84.7455 4.39353C85.3866 4.06103 86.0958 3.8877 86.8153 3.8877C87.5348 3.8877 88.2441 4.06103 88.8852 4.39353L91.2642 5.78127C91.8167 6.15062 92.2853 6.63599 92.6385 7.2048C92.9917 7.77362 93.2213 8.41274 93.3119 9.07929Z" fill="black"/>
<path d="M198.119 134.695C198.119 134.695 192.218 140.707 184.375 138.409C184.375 138.409 186.737 140.78 192.296 139.19C196.044 138.117 198.119 134.695 198.119 134.695Z" fill="#188255"/>
<path d="M209.831 97.8496C209.831 97.8496 212.845 105.772 207.624 112.143C207.624 112.143 210.709 110.907 211.526 105.086C212.061 101.142 209.831 97.8496 209.831 97.8496Z" fill="#188255"/>
<path d="M197.506 137.218C203.026 131.436 205.427 124.689 205.482 117.795C205.482 117.795 207.088 121.896 204.582 128.369C202.076 134.841 197.506 137.218 197.506 137.218Z" fill="#188255"/>
<path d="M45.2358 128.857C45.2358 128.857 45.1641 137.352 52.2734 141.437C52.2734 141.437 48.9616 141.381 46.2017 136.234C44.2975 132.762 45.2358 128.857 45.2358 128.857Z" fill="#188255"/>
<path d="M43.4365 132.263C42.2095 125.076 43.8225 117.687 47.924 111.705C47.924 111.705 44.292 114.115 42.6803 120.88C41.0686 127.645 43.4365 132.263 43.4365 132.263Z" fill="#188255"/>
<path d="M167.071 84.9276L169.406 77.8203C163.257 78.944 161.585 79.798 159.769 84.9726L158.565 89.0965L151.202 112.166C149.458 112.632 127.744 118.722 126.987 118.818C126.987 118.818 126.954 118.874 126.932 118.902C119.839 119.363 117.549 119.683 117.549 119.683C119.541 124.987 123.278 127.976 128.439 129.055V128.931V128.97C137.574 127.386 152.56 123.79 157.434 122.144C159.487 121.475 160.365 119.121 161.209 117.155C164.659 109.126 168.263 98.3051 169.489 91.7933C170.283 87.8717 169.119 85.9108 167.071 84.9276Z" fill="#B16668"/>
<path d="M169.406 77.7915C169.406 77.7915 163.295 76.8364 160.646 82.5447C158.869 86.3989 153.432 102.906 153.432 102.906C153.432 102.906 157.296 107.962 165.757 108.271C165.757 108.271 173.75 89.5902 173.303 88.9946C172.855 88.3991 169.406 77.7915 169.406 77.7915Z" fill="#37474F"/>
<path d="M168.285 77.6736C166.8 77.8197 163.036 82.9437 162.959 91.6635C162.854 103.344 168.478 117.643 169.891 120.728C171.304 123.812 174.053 129.852 178.723 134.335C180.23 135.774 190.518 139.847 197.147 132.262C203.892 124.548 202.827 114.412 201.48 111.238C199.223 105.923 195.232 99.7372 195.376 92.7422C194.531 87.7193 192.914 81.2188 189.227 78.4939C187.709 78.1006 182.929 77.477 181.996 77.6062L168.285 77.6736Z" fill="#FAFAFA"/>
<path d="M187.714 86.9443L185.832 89.349C186.384 93.1639 189.227 98.6756 192.533 103.075C195.111 106.508 200.354 110.047 202.468 116.11C202.409 114.444 202.087 112.799 201.513 111.238C199.256 105.923 195.265 99.7375 195.409 92.7426C195.271 91.911 195.105 91.057 194.917 90.1525L193.151 88.5231L187.714 86.9443Z" fill="#EBEBEB"/>
<path d="M189.227 78.4941C192.456 79.3032 194.194 81.0393 197.02 84.3261C200.266 88.0342 206.89 95.8326 206.89 95.8326C211.521 104.002 207.359 112.311 203.887 110.946C203.887 110.946 196.06 103.165 191.258 97.2653C188.04 93.3324 186.401 91.085 186.218 86.7532C186.064 83.3485 186.66 79.8707 189.227 78.4941Z" fill="#B16668"/>
<path d="M187.538 78.1856C187.538 78.1856 190.325 77.5563 193.952 80.5285C197.578 83.5006 206.442 93.3216 206.442 93.3216C206.442 93.3216 206.707 103.721 200.2 108.413C200.2 108.413 190.596 98.6029 188.228 95.2094C186.58 92.713 185.644 89.8013 185.522 86.7966C185.401 83.7919 186.098 80.8116 187.538 78.1856Z" fill="#37474F"/>
<path d="M185.832 58.5205C185.832 58.5205 184.43 67.2347 183.773 68.6842C183.332 69.5831 182.567 70.2736 181.637 70.6114L181.499 64.5603L185.832 58.5205Z" fill="#263238"/>
<path d="M181.278 45.8734C181.278 45.8734 183.591 44.6879 185.175 46.1881C186.759 47.6882 186.864 52.8459 185.672 59.5262L181.687 59.3127L181.278 45.8734Z" fill="#263238"/>
<path d="M169.049 65.242C175.087 64.0262 179.013 58.0585 177.819 51.9127C176.624 45.7669 170.762 41.7703 164.724 42.9861C158.686 44.2019 154.76 50.1697 155.954 56.3154C157.149 62.4612 163.011 66.4578 169.049 65.242Z" fill="#263238"/>
<path d="M181.61 46.7556L185.059 43.5306C184.862 43.2899 184.62 43.0924 184.345 42.9501C184.071 42.8077 183.772 42.7235 183.465 42.7025C183.158 42.6815 182.849 42.7241 182.559 42.8278C182.269 42.9315 182.002 43.0942 181.775 43.3059C181.317 43.7488 181.044 44.3544 181.013 44.9969C180.982 45.6394 181.196 46.2693 181.61 46.7556Z" fill="#263238"/>
<path d="M160.972 47.4802C160.271 48.7107 156.766 53.8796 158.046 63.5883C159.25 72.7294 162.136 74.8757 163.671 75.3589C165.205 75.842 168.285 75.5667 170.979 74.797L171.464 78.6794C171.464 78.6794 169.891 81.2526 172.016 82.6741C174.141 84.0955 178.817 83.0505 179.898 82.174C182.443 80.1008 182.057 78.3535 182.057 78.3535L181.505 65.7457C181.505 65.7457 183.42 67.3526 185.887 65.4592C188.217 63.6782 188.321 58.9699 186.356 57.3518C184.391 55.7337 181.24 56.7001 180.809 59.3014C180.809 59.3014 180.726 49.6377 175.334 47.0701C168.429 43.7777 160.972 47.4802 160.972 47.4802Z" fill="#B16668"/>
<path d="M180.191 60.5604C180.494 60.3974 181.013 57.8129 182.509 56.9365C183.884 56.1274 181.289 44.5759 181.278 44.5197C181.124 43.6714 180.268 42.6769 179.711 42.0589C178.868 41.1489 177.812 40.4721 176.642 40.0924C175.033 39.5924 173.33 39.4884 171.674 39.789C169.102 40.1936 166.635 41.2835 164.035 41.2948C161.568 41.2948 159.211 40.3228 156.793 39.834C156.331 39.6861 155.83 39.7202 155.391 39.9295C155.166 40.0878 154.99 40.308 154.883 40.5644C154.58 41.308 154.552 42.1389 154.806 42.9016C155.071 43.6568 155.443 44.3685 155.91 45.0142C155.049 44.604 153.835 44.5703 153.338 45.3906C152.946 46.0367 153.189 46.8795 153.548 47.5425C155.06 50.3067 157.748 51.5203 160.574 52.1777C161.762 52.3826 162.963 52.4952 164.167 52.5148C167.214 52.6889 170.14 51.4473 172.949 50.2337C173.722 49.8966 175.229 49.3235 176.073 50.0202C177.122 50.8854 177.072 53.6834 177.387 55.9813C177.867 59.5827 179.043 61.1896 180.191 60.5604Z" fill="#263238"/>
<path d="M170.46 67.5107L167.385 68.9097C167.467 69.1211 167.59 69.3135 167.746 69.4754C167.902 69.6373 168.089 69.7654 168.295 69.852C168.502 69.9385 168.723 69.9818 168.946 69.9792C169.169 69.9766 169.389 69.9282 169.593 69.8368C170.004 69.6365 170.322 69.2832 170.484 68.8502C170.645 68.4172 170.637 67.9376 170.46 67.5107Z" fill="#9A4A4D"/>
<path d="M159.421 60.0433C159.443 60.2704 159.53 60.4859 159.672 60.6629C159.813 60.8399 160.003 60.9706 160.217 61.0387C160.431 61.1068 160.66 61.1093 160.875 61.0458C161.091 60.9824 161.283 60.8559 161.428 60.682C161.573 60.5081 161.665 60.2945 161.692 60.0679C161.719 59.8413 161.68 59.6117 161.579 59.4076C161.479 59.2036 161.322 59.0341 161.127 58.9204C160.933 58.8066 160.71 58.7536 160.486 58.7679C160.179 58.7937 159.894 58.9424 159.694 59.1815C159.495 59.4206 159.396 59.7305 159.421 60.0433Z" fill="#263238"/>
<path d="M168.285 59.4867C168.307 59.7138 168.394 59.9293 168.536 60.1063C168.678 60.2833 168.867 60.414 169.081 60.4821C169.295 60.5502 169.524 60.5526 169.74 60.4892C169.955 60.4258 170.147 60.2992 170.293 60.1253C170.438 59.9514 170.53 59.7379 170.556 59.5113C170.583 59.2847 170.544 59.0551 170.444 58.851C170.343 58.647 170.186 58.4775 169.992 58.3637C169.797 58.25 169.574 58.197 169.35 58.2113C169.198 58.2233 169.049 58.2659 168.913 58.3367C168.777 58.4074 168.656 58.5048 168.557 58.6233C168.458 58.7419 168.383 58.8792 168.336 59.0274C168.29 59.1755 168.272 59.3316 168.285 59.4867Z" fill="#263238"/>
<path d="M165.282 59.7344L165.078 66.7068L161.474 65.5607L165.282 59.7344Z" fill="#9A4A4D"/>
<path d="M170.979 74.8141C173.242 74.286 177.668 72.3476 178.507 70.6621C178.507 70.6621 178.59 71.7352 177.249 73.3646C175.908 74.9939 171.205 76.6233 171.205 76.6233L170.979 74.8141Z" fill="#9A4A4D"/>
<path d="M158.521 57.6225L161.077 56.4988C160.918 56.1507 160.635 55.8782 160.284 55.7379C159.933 55.5977 159.543 55.6005 159.194 55.7459C159.027 55.8215 158.876 55.9306 158.751 56.0668C158.626 56.203 158.529 56.3634 158.466 56.5386C158.403 56.7137 158.376 56.9 158.385 57.0862C158.395 57.2724 158.441 57.4548 158.521 57.6225Z" fill="#263238"/>
<path d="M168.975 55.9415L171.415 57.2899C171.589 56.9499 171.626 56.5541 171.517 56.1869C171.409 55.8196 171.164 55.5099 170.835 55.3235C170.674 55.2345 170.497 55.1799 170.315 55.1629C170.132 55.146 169.949 55.167 169.774 55.2249C169.6 55.2827 169.44 55.3761 169.302 55.4993C169.165 55.6226 169.053 55.773 168.975 55.9415Z" fill="#263238"/>
<path d="M95.5088 76.6236H76.4881C71.9464 76.6221 67.5904 74.788 64.3748 71.5233C61.1592 68.2586 59.3462 63.8294 59.333 59.2064V56.1669C59.3242 51.7065 61.0562 47.4252 64.148 44.2643C67.2397 41.1035 71.4382 39.322 75.8202 39.3116H78.9222C81.0921 39.305 83.242 39.7338 85.2489 40.5736C87.2559 41.4133 89.0805 42.6476 90.6184 44.2057C92.1563 45.7639 93.3774 47.6154 94.2118 49.6543C95.0462 51.6932 95.4775 53.8795 95.4812 56.0882L95.5088 76.6236Z" fill="#263238"/>
<path d="M79.7666 77.7131C86.5889 77.1906 90.8887 80.4099 91.0322 86.8655C91.1095 90.1186 88.3386 103.069 88.3386 103.069L79.7666 77.7131Z" fill="#FFA8A7"/>
<path d="M79.7668 77.7129C83.2386 78.0669 87.0692 84.101 90.4031 91.8601C91.7113 94.9165 94.1013 99.0292 91.0875 104.749C89.2219 108.283 85.3802 109.71 85.3802 109.71C83.9894 114.143 81.982 118.351 79.419 122.205C77.8181 127.394 74.9059 132.063 70.974 135.746C69.4285 137.139 59.9844 145.651 52.3728 139.083C47.8467 135.178 46.2681 128.97 46.7317 123.11C47.0022 119.666 47.7529 116.261 50.1318 113.794C51.5034 112.374 52.7708 110.853 53.9238 109.243C55.1326 103.383 53.7472 99.4056 53.6037 92.3882C54.4482 87.3653 56.5401 83.1066 60.2272 80.3873C62.958 79.2873 65.8301 78.5929 68.7551 78.3253L79.7668 77.7129Z" fill="#188255"/>
<path opacity="0.1" d="M79.6507 121.857L79.187 118.076C79.187 118.076 63.1801 92.5345 62.5012 91.8154C62.1038 91.3828 58.2621 88.7758 55.2594 86.7588C54.4734 88.5517 53.9169 90.44 53.6035 92.3772C53.747 99.3722 55.1325 103.35 53.9237 109.233C53.9237 109.233 53.1012 110.418 51.771 111.974C54.1444 112.604 58.0137 109.564 58.0137 109.564C58.0137 109.564 65.7412 120.683 69.1413 124.633C72.3151 128.335 74.2138 128.886 76.5597 128.723C77.7668 126.671 78.7268 124.479 79.4189 122.194C79.5017 122.087 79.5734 121.969 79.6507 121.857Z" fill="black"/>
<path opacity="0.05" d="M91.0877 104.749C91.2478 104.44 91.3968 104.136 91.5293 103.833C88.4217 106.26 86.258 104.552 83.6528 104.041C80.9592 103.513 78.9611 107.412 73.9216 106.929C67.2981 106.277 64.897 102.035 64.897 102.035C64.897 102.035 64.7204 109.378 72.9281 110.991C78.4146 112.07 80.4293 109.053 81.9472 109.053C82.6095 109.053 83.2001 109.575 85.3804 109.71C85.3804 109.71 89.2221 108.283 91.0877 104.749Z" fill="black"/>
<path d="M89.2275 48.4082C89.912 49.6105 93.3121 54.6278 92.0701 64.0499C90.9 72.9214 88.096 74.3653 86.6057 74.8373C85.1154 75.3092 82.1293 75.0339 79.513 74.2754L78.9224 79.6129C78.9224 79.6129 81.4614 83.2874 80.9591 85.7033C80.4568 88.1192 75.3843 87.8102 72.205 85.0291C70.2912 83.3191 69.0648 80.9504 68.7607 78.3769L69.3127 66.1287C69.3127 66.1287 67.4526 67.6906 65.057 65.8534C62.7995 64.1229 62.6946 59.5552 64.6044 57.9876C66.5142 56.4201 69.5721 57.3527 69.9861 59.8754C69.9861 59.8754 75.9031 61.2688 81.1413 58.7517C87.8255 55.5605 88.8025 50.9365 89.2275 48.4082Z" fill="#FFA8A7"/>
<path d="M70.0961 63.2405L69.936 57.667C70.68 57.6649 71.3958 57.9564 71.9331 58.4803C72.4704 59.0041 72.7873 59.7195 72.8173 60.4762C72.8233 60.8414 72.7569 61.204 72.6222 61.5425C72.4875 61.881 72.2872 62.1885 72.0333 62.4464C71.7793 62.7044 71.4769 62.9077 71.1441 63.0441C70.8112 63.1805 70.4548 63.2473 70.0961 63.2405Z" fill="#263238"/>
<path d="M82.0629 68.2861L85.0435 69.6458C84.9637 69.8496 84.8446 70.035 84.6932 70.1911C84.5418 70.3472 84.3612 70.4708 84.162 70.5547C83.9629 70.6385 83.7492 70.6808 83.5337 70.6791C83.3182 70.6774 83.1052 70.6317 82.9074 70.5447C82.5069 70.3526 82.1952 70.01 82.0377 69.5888C81.8802 69.1676 81.8892 68.7007 82.0629 68.2861Z" fill="#F28F8F"/>
<path d="M90.7286 60.6837C90.7288 60.8371 90.6983 60.989 90.6387 61.1299C90.5791 61.2708 90.4918 61.3978 90.3822 61.5031C90.2726 61.6084 90.1429 61.6897 90.0012 61.742C89.8596 61.7943 89.7089 61.8166 89.5584 61.8074C89.2599 61.7816 88.9837 61.6365 88.7902 61.4037C88.5967 61.1709 88.5018 60.8696 88.5262 60.5657C88.5453 60.2677 88.6798 59.9896 88.9003 59.7925C89.0095 59.695 89.1365 59.6203 89.274 59.5727C89.4115 59.525 89.557 59.5055 89.7019 59.5151C89.8469 59.5247 89.9886 59.5632 90.1189 59.6285C90.2492 59.6939 90.3657 59.7847 90.4615 59.8958C90.5573 60.007 90.6307 60.1362 90.6775 60.2762C90.7243 60.4162 90.7435 60.5642 90.7341 60.7118L90.7286 60.6837Z" fill="#263238"/>
<path d="M82.7308 61.3296C82.7078 61.5483 82.6221 61.7553 82.4846 61.9249C82.347 62.0946 82.1636 62.2194 81.957 62.2839C81.7504 62.3484 81.5297 62.3498 81.3224 62.2878C81.115 62.2259 80.9301 62.1034 80.7905 61.9355C80.6509 61.7675 80.5628 61.5616 80.5371 61.3432C80.5114 61.1248 80.5493 60.9035 80.646 60.7068C80.7427 60.5101 80.894 60.3466 81.0811 60.2366C81.2682 60.1266 81.483 60.0749 81.6987 60.0879C81.8478 60.0969 81.9936 60.1367 82.1272 60.2047C82.2608 60.2728 82.3794 60.3677 82.4759 60.4838C82.5725 60.5999 82.6448 60.7347 82.6886 60.8801C82.7324 61.0255 82.7468 61.1784 82.7308 61.3296Z" fill="#263238"/>
<path d="M85.9321 60.6104L86.1308 67.3806L89.6303 66.2681L85.9321 60.6104Z" fill="#F28F8F"/>
<path d="M79.5127 74.252C77.3049 73.7408 73.0216 71.8586 72.2047 70.2236C72.2047 70.2236 72.1275 71.2687 73.4301 72.8474C74.7327 74.4262 79.3195 75.9825 79.3195 75.9825L79.5127 74.252Z" fill="#F28F8F"/>
<path d="M91.0818 57.6663L88.6035 56.5764C88.7579 56.2393 89.0336 55.9755 89.3736 55.8396C89.7137 55.7036 90.0921 55.7059 90.4305 55.846C90.5931 55.9191 90.7396 56.0248 90.861 56.157C90.9825 56.2891 91.0765 56.4448 91.1373 56.6149C91.1981 56.7849 91.2246 56.9657 91.215 57.1464C91.2055 57.3271 91.1602 57.5039 91.0818 57.6663Z" fill="#263238"/>
<path d="M76.2395 126.745L81.6267 116.256C83.415 116.52 85.2034 116.773 86.9918 117.026C90.5519 117.526 104.003 119.205 104.765 119.217C106.25 119.193 107.715 118.868 109.076 118.262C111.206 117.447 112.785 116.143 114.507 115.784C115.305 115.624 116.122 115.586 116.93 115.671C117.951 115.745 117.686 116.301 118.697 116.481C118.986 116.507 119.262 116.618 119.491 116.801C119.878 117.172 119.596 117.396 119.392 117.7C119.175 118.084 119.036 118.508 118.984 118.947C118.906 119.323 118.603 120.604 119.127 120.812C121.672 121.818 121.959 123.301 125.259 126.184C126.838 127.56 127.688 128.555 128.753 129.257C129.421 130.285 129.471 130.942 127.097 132.358C125.519 133.313 122.682 135.167 118.04 133.684C112.984 132.072 110.395 129.189 109.092 129.128C99.8525 128.6 81.2679 127.819 76.2395 126.745Z" fill="#FFA8A7"/>
<path d="M81.6267 116.256L68.0152 93.5404C68.0152 93.5404 65.7798 80.8484 60.2325 80.4102C60.2325 80.4102 55.1545 81.7417 53.9953 84.8431C52.5989 88.5962 52.6651 92.2707 56.8324 100.575C59.9786 106.867 68.5065 118.728 71.9176 122.745C73.2975 124.369 74.8044 126.273 76.2395 126.723" fill="#FFA8A7"/>
<path d="M109.258 129.144C109.78 129.278 110.266 129.527 110.682 129.875C111.534 129.719 112.327 129.331 112.978 128.751C115.529 126.858 124.294 130.661 122.136 133.105C120.568 134.881 119.039 135.353 116.539 134.56C112.852 133.414 108.922 131.701 109.258 129.144Z" fill="#B16668"/>
<path d="M117.758 115.986C114.855 116.497 111.841 118.655 110.268 119.307C108.695 119.958 107.072 120.346 108.518 121.756C109.965 123.166 113.486 121.756 115.92 120.88C117.576 120.273 119.668 120.88 120.601 121.273C121.285 121.56 120.921 119.677 120.921 119.677C120.369 118.857 127.219 119.677 126.993 118.868C123.372 119.026 120.099 115.441 117.758 115.986Z" fill="#B16668"/>
</svg>
