<svg width="262" height="241" viewBox="0 0 262 241" fill="none" xmlns="http://www.w3.org/2000/svg">
<path d="M194.629 193.162H66.231L76.368 183.9H184.492L194.629 193.162Z" fill="white" stroke="#263238" stroke-linecap="round" stroke-linejoin="round"/>
<path d="M180.363 187.474C180.363 189.366 157.111 190.923 128.412 190.923C99.7125 190.923 76.4612 189.378 76.4612 187.474C76.4612 185.57 99.7125 184.02 128.412 184.02C157.111 184.02 180.363 185.564 180.363 187.474Z" fill="#188255"/>
<path opacity="0.5" d="M180.363 187.474C180.363 189.366 157.111 190.923 128.412 190.923C99.7125 190.923 76.4612 189.378 76.4612 187.474C76.4612 185.57 99.7125 184.02 128.412 184.02C157.111 184.02 180.363 185.564 180.363 187.474Z" fill="white"/>
<path d="M194.629 193.161H66.231V201.742H194.629V193.161Z" fill="#263238" stroke="#263238" stroke-linecap="round" stroke-linejoin="round"/>
<path d="M203.714 210.997H57.1462L66.231 201.742H194.629L203.714 210.997Z" fill="white" stroke="#263238" stroke-linecap="round" stroke-linejoin="round"/>
<path d="M203.687 210.997H57.1731V220.025H203.687V210.997Z" fill="#263238" stroke="#263238" stroke-linecap="round" stroke-linejoin="round"/>
<path d="M129.011 101.625V43.9195H152.209V19.6406" stroke="#263238" stroke-miterlimit="10"/>
<path d="M138.076 43.6484V19.6406" stroke="#263238" stroke-miterlimit="10"/>
<path d="M130.743 110.824H237.548V96.4492H257.962" stroke="#263238" stroke-miterlimit="10"/>
<path d="M125.508 110.326H23.9446V94.9678H1.95874" stroke="#263238" stroke-miterlimit="10"/>
<path d="M108.231 4.27637V26.0839H95.1436V39.9539H111.375V86.5383" stroke="#263238" stroke-miterlimit="10"/>
<path d="M179.957 68.6961V37.4759H188.855V24.0977H196.188" stroke="#263238" stroke-miterlimit="10"/>
<path d="M72.1121 65.7276V41.9405L64.7791 34.9991V17.6553" stroke="#263238" stroke-miterlimit="10"/>
<path d="M199.851 79.6036H218.173V68.205H230.215V61.7617H240.685" stroke="#263238" stroke-miterlimit="10"/>
<path d="M53.7827 83.5687H34.4144V69.1943H7.1936" stroke="#263238" stroke-miterlimit="10"/>
<path d="M71.5859 161.367V174.254H62.6876V188.628H37.032" stroke="#263238" stroke-miterlimit="10"/>
<path d="M169.486 163.354V176.732H189.9V171.285H195.661V182.677H213.465" stroke="#263238" stroke-miterlimit="10"/>
<path d="M153.701 19.6412C153.7 19.9202 153.611 20.1926 153.447 20.424C153.282 20.6555 153.048 20.8355 152.776 20.9414C152.503 21.0473 152.203 21.0744 151.914 21.0192C151.625 20.964 151.36 20.829 151.152 20.6312C150.944 20.4335 150.803 20.1819 150.746 19.9081C150.689 19.6343 150.719 19.3507 150.832 19.093C150.945 18.8353 151.136 18.6151 151.381 18.4602C151.626 18.3053 151.915 18.2227 152.209 18.2227C152.406 18.2227 152.6 18.2594 152.782 18.3308C152.963 18.4021 153.128 18.5067 153.267 18.6385C153.405 18.7703 153.515 18.9267 153.59 19.0988C153.664 19.2709 153.702 19.4552 153.701 19.6412Z" fill="#263238" stroke="#263238" stroke-linecap="round" stroke-linejoin="round"/>
<path d="M139.621 19.6412C139.62 19.9202 139.531 20.1926 139.367 20.424C139.202 20.6555 138.968 20.8355 138.696 20.9414C138.423 21.0473 138.123 21.0744 137.834 21.0192C137.545 20.964 137.28 20.829 137.072 20.6312C136.864 20.4335 136.723 20.1819 136.666 19.9081C136.609 19.6343 136.639 19.3507 136.752 19.093C136.865 18.8353 137.056 18.6151 137.301 18.4602C137.546 18.3053 137.835 18.2227 138.129 18.2227C138.326 18.2227 138.52 18.2594 138.702 18.3308C138.883 18.4021 139.048 18.5067 139.187 18.6385C139.325 18.7703 139.435 18.9267 139.51 19.0988C139.584 19.2709 139.622 19.4552 139.621 19.6412Z" fill="#263238" stroke="#263238" stroke-linecap="round" stroke-linejoin="round"/>
<path d="M109.736 3.86678C109.736 4.14761 109.648 4.42212 109.483 4.65553C109.318 4.88894 109.084 5.07075 108.81 5.17792C108.535 5.2851 108.234 5.31282 107.943 5.25758C107.652 5.20233 107.385 5.0666 107.176 4.86758C106.966 4.66857 106.824 4.41522 106.767 4.13964C106.71 3.86406 106.741 3.57864 106.855 3.31955C106.969 3.06046 107.163 2.83936 107.41 2.68425C107.657 2.52914 107.948 2.44701 108.244 2.44826C108.441 2.44825 108.635 2.48499 108.817 2.55636C108.998 2.62772 109.163 2.73231 109.302 2.86411C109.44 2.99592 109.55 3.15235 109.625 3.32441C109.699 3.49648 109.737 3.6808 109.736 3.86678Z" fill="#263238" stroke="#263238" stroke-linecap="round" stroke-linejoin="round"/>
<path d="M66.2844 16.9429C66.283 17.222 66.1944 17.4944 66.0297 17.7258C65.865 17.9572 65.6315 18.1372 65.3588 18.2432C65.086 18.3491 64.7863 18.3761 64.4973 18.3209C64.2084 18.2657 63.9431 18.1308 63.7352 17.933C63.5272 17.7353 63.3858 17.4836 63.3287 17.2098C63.2717 16.9361 63.3016 16.6524 63.4147 16.3948C63.5278 16.1371 63.7191 15.9169 63.9643 15.762C64.2095 15.6071 64.4977 15.5244 64.7924 15.5244C64.9889 15.5244 65.1835 15.5611 65.3649 15.6325C65.5464 15.7039 65.7111 15.8085 65.8497 15.9403C65.9884 16.0721 66.0981 16.2285 66.1727 16.4006C66.2473 16.5726 66.2852 16.757 66.2844 16.9429Z" fill="#263238" stroke="#263238" stroke-linecap="round" stroke-linejoin="round"/>
<path d="M8.68562 69.1945C8.68694 69.4756 8.6 69.7507 8.43584 69.9849C8.27168 70.2192 8.03771 70.402 7.76361 70.5101C7.48951 70.6182 7.18764 70.6469 6.89633 70.5923C6.60501 70.5378 6.33738 70.4026 6.1274 70.2038C5.91742 70.005 5.77456 69.7517 5.71695 69.4759C5.65934 69.2002 5.68958 68.9145 5.80383 68.655C5.91807 68.3955 6.11118 68.1741 6.35864 68.0187C6.6061 67.8633 6.89675 67.781 7.1937 67.7822C7.58938 67.7822 7.96886 67.931 8.24864 68.1959C8.52843 68.4607 8.68562 68.8199 8.68562 69.1945Z" fill="#263238" stroke="#263238" stroke-linecap="round" stroke-linejoin="round"/>
<path d="M3.49716 94.9234C3.49716 95.204 3.40927 95.4782 3.2446 95.7115C3.07993 95.9448 2.84589 96.1266 2.57206 96.234C2.29823 96.3413 1.99692 96.3694 1.70622 96.3147C1.41553 96.2599 1.1485 96.1248 0.938924 95.9265C0.729344 95.7281 0.586619 95.4753 0.528796 95.2001C0.470973 94.925 0.500649 94.6398 0.614072 94.3806C0.727496 94.1214 0.919574 93.8998 1.16601 93.7439C1.41245 93.5881 1.70219 93.5049 1.99858 93.5049C2.39603 93.5049 2.7772 93.6543 3.05823 93.9204C3.33927 94.1864 3.49716 94.5472 3.49716 94.9234Z" fill="#263238" stroke="#263238" stroke-linecap="round" stroke-linejoin="round"/>
<path d="M38.6571 188.358C38.6571 188.639 38.569 188.913 38.404 189.147C38.2391 189.38 38.0046 189.562 37.7304 189.669C37.4562 189.776 37.1546 189.804 36.8637 189.749C36.5728 189.694 36.3058 189.558 36.0965 189.359C35.8872 189.16 35.745 188.906 35.6879 188.631C35.6308 188.355 35.6615 188.07 35.7759 187.811C35.8904 187.552 36.0835 187.331 36.3308 187.175C36.5781 187.02 36.8685 186.938 37.1652 186.939C37.3616 186.939 37.5562 186.976 37.7376 187.048C37.9191 187.119 38.0838 187.224 38.2225 187.355C38.3611 187.487 38.4708 187.644 38.5454 187.816C38.62 187.988 38.6579 188.172 38.6571 188.358Z" fill="#263238" stroke="#263238" stroke-linecap="round" stroke-linejoin="round"/>
<path d="M215.716 182.4C215.717 182.68 215.63 182.955 215.466 183.189C215.302 183.423 215.069 183.606 214.795 183.715C214.521 183.823 214.22 183.852 213.929 183.798C213.638 183.744 213.37 183.609 213.16 183.411C212.95 183.213 212.806 182.96 212.748 182.685C212.689 182.41 212.719 182.124 212.832 181.864C212.945 181.605 213.137 181.383 213.384 181.227C213.63 181.071 213.92 180.987 214.217 180.987C214.414 180.986 214.608 181.022 214.79 181.093C214.972 181.164 215.137 181.267 215.276 181.399C215.416 181.53 215.526 181.686 215.601 181.858C215.677 182.029 215.716 182.214 215.716 182.4Z" fill="#263238" stroke="#263238" stroke-linecap="round" stroke-linejoin="round"/>
<path d="M260.214 96.172C260.214 96.4513 260.126 96.7243 259.962 96.9566C259.798 97.1888 259.565 97.3698 259.293 97.4767C259.02 97.5836 258.72 97.6116 258.431 97.5571C258.141 97.5026 257.876 97.3681 257.667 97.1706C257.458 96.9731 257.316 96.7214 257.259 96.4475C257.201 96.1736 257.231 95.8896 257.344 95.6316C257.456 95.3735 257.648 95.153 257.893 94.9978C258.138 94.8426 258.427 94.7598 258.722 94.7598C259.118 94.7598 259.497 94.9086 259.777 95.1734C260.057 95.4382 260.214 95.7974 260.214 96.172Z" fill="#263238" stroke="#263238" stroke-linecap="round" stroke-linejoin="round"/>
<path d="M242.883 61.4591C242.883 61.7384 242.796 62.0115 242.632 62.2437C242.468 62.4759 242.235 62.6569 241.963 62.7638C241.69 62.8707 241.39 62.8987 241.101 62.8442C240.811 62.7897 240.545 62.6552 240.337 62.4577C240.128 62.2602 239.986 62.0086 239.928 61.7346C239.871 61.4607 239.9 61.1767 240.013 60.9187C240.126 60.6606 240.317 60.4401 240.563 60.2849C240.808 60.1297 241.097 60.0469 241.392 60.0469C241.787 60.0469 242.167 60.1957 242.447 60.4605C242.726 60.7253 242.883 61.0846 242.883 61.4591Z" fill="#263238" stroke="#263238" stroke-linecap="round" stroke-linejoin="round"/>
<path d="M198.645 24.0607C198.645 24.34 198.558 24.613 198.394 24.8452C198.23 25.0775 197.997 25.2585 197.724 25.3654C197.452 25.4723 197.152 25.5002 196.862 25.4457C196.573 25.3913 196.307 25.2568 196.099 25.0592C195.89 24.8617 195.748 24.6101 195.69 24.3362C195.633 24.0622 195.662 23.7783 195.775 23.5202C195.888 23.2622 196.079 23.0416 196.325 22.8864C196.57 22.7313 196.858 22.6484 197.154 22.6484C197.549 22.6484 197.929 22.7972 198.208 23.0621C198.488 23.3269 198.645 23.6861 198.645 24.0607Z" fill="#263238" stroke="#263238" stroke-linecap="round" stroke-linejoin="round"/>
<path d="M148.553 173.856V161.562H109.47V173.856C109.458 177.876 107.991 181.77 105.314 184.889L103.602 186.894H154.407L152.702 184.889C150.025 181.77 148.56 177.875 148.553 173.856Z" fill="white"/>
<mask id="mask0_312_516" style="mask-type:luminance" maskUnits="userSpaceOnUse" x="103" y="161" width="52" height="26">
<path d="M148.553 173.856V161.562H109.47V173.856C109.458 177.876 107.991 181.77 105.314 184.889L103.602 186.894H154.407L152.702 184.889C150.025 181.77 148.56 177.875 148.553 173.856Z" fill="white"/>
</mask>
<g mask="url(#mask0_312_516)">
<path d="M107.072 182.467H150.95C149.38 179.84 148.554 176.874 148.553 173.855V161.562H109.47V173.855C109.468 176.874 108.642 179.84 107.072 182.467Z" fill="#188255"/>
<path opacity="0.3" d="M107.072 182.467H150.95C149.38 179.84 148.554 176.874 148.553 173.855V161.562H109.47V173.855C109.468 176.874 108.642 179.84 107.072 182.467Z" fill="white"/>
<path d="M107.072 169.506H150.95C149.38 166.879 148.554 163.912 148.553 160.894V148.6H109.47V160.894C109.468 163.912 108.642 166.879 107.072 169.506Z" fill="#263238"/>
</g>
<path d="M148.553 173.856V161.562H109.47V173.856C109.458 177.876 107.991 181.77 105.314 184.889L103.602 186.894H154.407L152.702 184.889C150.025 181.77 148.56 177.875 148.553 173.856Z" stroke="#263238" stroke-linecap="round" stroke-linejoin="round"/>
<path d="M201.896 56.2705H56.1272C53.0079 56.2705 50.4792 58.6641 50.4792 61.6168V160.088C50.4792 163.04 53.0079 165.434 56.1272 165.434H201.896C205.015 165.434 207.544 163.04 207.544 160.088V61.6168C207.544 58.6641 205.015 56.2705 201.896 56.2705Z" fill="#263238" stroke="#263238" stroke-linecap="round" stroke-linejoin="round"/>
<path d="M50.4792 148.468H207.544V160.087C207.544 161.505 206.949 162.865 205.889 163.867C204.83 164.87 203.394 165.433 201.896 165.433H56.1272C54.6293 165.433 53.1927 164.87 52.1335 163.867C51.0743 162.865 50.4792 161.505 50.4792 160.087V148.468Z" fill="white" stroke="#263238" stroke-linecap="round" stroke-linejoin="round"/>
<path d="M199.638 63.0664H58.3784V140.19H199.638V63.0664Z" fill="white" stroke="#263238" stroke-linecap="round" stroke-linejoin="round"/>
<path d="M131.909 159.671C131.921 159.127 131.761 158.591 131.45 158.133C131.139 157.674 130.691 157.314 130.162 157.097C129.634 156.881 129.05 156.819 128.484 156.918C127.918 157.017 127.396 157.274 126.985 157.655C126.574 158.036 126.292 158.525 126.175 159.058C126.058 159.592 126.112 160.146 126.329 160.651C126.547 161.155 126.918 161.587 127.396 161.891C127.873 162.195 128.436 162.357 129.011 162.357C129.772 162.364 130.504 162.085 131.047 161.581C131.59 161.078 131.9 160.391 131.909 159.671Z" fill="#263238" stroke="#263238" stroke-linecap="round" stroke-linejoin="round"/>
<path d="M154.421 186.913H103.609V189.107H154.421V186.913Z" fill="white" stroke="#263238" stroke-linecap="round" stroke-linejoin="round"/>
<path d="M129.224 59.0635C122.124 65.368 103.915 71.6726 82.7285 85.095C82.7285 85.095 84.0606 130.488 129.224 155.271V59.0635Z" fill="#188255" stroke="#263238" stroke-linecap="round" stroke-linejoin="round"/>
<path d="M129.224 59.0635C136.331 65.368 154.534 71.6726 175.727 85.095C175.727 85.095 174.395 130.488 129.224 155.271V59.0635Z" fill="#263238" stroke="#263238" stroke-linecap="round" stroke-linejoin="round"/>
<path d="M129.224 62.9277C120.633 68.564 105.787 73.9292 86.1387 86.3744C86.1387 86.3744 87.3708 128.426 129.224 151.412C171.085 128.426 172.317 86.3744 172.317 86.3744C152.669 73.9292 137.87 68.564 129.224 62.9277Z" fill="#263238" stroke="#263238" stroke-linecap="round" stroke-linejoin="round"/>
<path d="M172.317 86.3744C152.669 73.9355 137.869 68.564 129.224 62.9277V151.412C171.085 128.426 172.317 86.3744 172.317 86.3744Z" fill="#188255" stroke="#263238" stroke-linecap="round" stroke-linejoin="round"/>
<path d="M208.03 108.637H49.9932V118.321H208.03V108.637Z" fill="#263238" stroke="#263238" stroke-linecap="round" stroke-linejoin="round"/>
<path d="M53.1034 110.174C53.1074 110.373 53.0486 110.569 52.9347 110.736C52.8208 110.903 52.6568 111.035 52.4637 111.114C52.2706 111.192 52.057 111.215 51.8503 111.178C51.6436 111.142 51.453 111.048 51.3029 110.908C51.1528 110.769 51.05 110.591 51.0075 110.396C50.9649 110.201 50.9847 109.998 51.0643 109.814C51.1438 109.63 51.2795 109.472 51.454 109.361C51.6286 109.25 51.8341 109.191 52.0444 109.191C52.1823 109.189 52.3191 109.213 52.4471 109.262C52.5751 109.31 52.6916 109.382 52.7901 109.474C52.8885 109.565 52.9669 109.674 53.0206 109.794C53.0744 109.914 53.1025 110.044 53.1034 110.174Z" fill="white"/>
<path d="M51.4385 110.717C51.5544 110.832 51.7041 110.912 51.8683 110.947C52.0325 110.981 52.2039 110.969 52.3605 110.91C52.517 110.852 52.6517 110.751 52.7473 110.62C52.8429 110.489 52.8951 110.334 52.8971 110.175C52.8948 109.985 52.819 109.804 52.684 109.664C52.244 109.988 51.8278 110.34 51.4385 110.717Z" fill="#263238"/>
<path d="M57.2596 110.174C57.2649 110.375 57.207 110.572 57.0931 110.741C56.9793 110.91 56.8148 111.044 56.6206 111.124C56.4264 111.204 56.2113 111.228 56.0029 111.192C55.7945 111.156 55.6021 111.062 55.4504 110.921C55.2987 110.781 55.1945 110.602 55.1512 110.405C55.1079 110.209 55.1273 110.005 55.2072 109.819C55.287 109.633 55.4235 109.474 55.5993 109.362C55.775 109.25 55.9821 109.191 56.194 109.191C56.3322 109.189 56.4694 109.213 56.5977 109.261C56.7261 109.31 56.8431 109.382 56.942 109.473C57.041 109.565 57.12 109.674 57.1745 109.794C57.229 109.914 57.2579 110.043 57.2596 110.174Z" fill="white"/>
<path d="M55.5879 110.717C55.7038 110.832 55.8535 110.912 56.0177 110.947C56.182 110.981 56.3533 110.969 56.5099 110.91C56.6665 110.852 56.8012 110.751 56.8967 110.62C56.9923 110.489 57.0445 110.334 57.0465 110.175C57.0443 109.985 56.9684 109.804 56.8334 109.664C56.3948 109.989 55.9788 110.341 55.5879 110.717Z" fill="#263238"/>
<path d="M61.4091 110.174C61.3879 110.427 61.2668 110.663 61.0699 110.835C60.873 111.008 60.6148 111.103 60.3468 111.103C60.0787 111.103 59.8205 111.008 59.6236 110.835C59.4267 110.663 59.3056 110.427 59.2844 110.174C59.3056 109.921 59.4267 109.685 59.6236 109.513C59.8205 109.341 60.0787 109.245 60.3468 109.245C60.6148 109.245 60.873 109.341 61.0699 109.513C61.2668 109.685 61.3879 109.921 61.4091 110.174Z" fill="white"/>
<path d="M59.7371 110.717C59.8166 110.795 59.9118 110.857 60.017 110.899C60.1223 110.941 60.2355 110.963 60.3498 110.963C60.46 110.964 60.5693 110.944 60.6715 110.905C60.7736 110.866 60.8666 110.808 60.9452 110.735C61.0237 110.661 61.0863 110.574 61.1293 110.478C61.1722 110.382 61.1948 110.279 61.1957 110.175C61.196 109.985 61.1198 109.802 60.9825 109.664C60.544 109.989 60.1279 110.341 59.7371 110.717Z" fill="#263238"/>
<path d="M65.5585 110.174C65.5624 110.373 65.5037 110.569 65.3898 110.736C65.2759 110.903 65.1119 111.035 64.9188 111.114C64.7257 111.192 64.5121 111.215 64.3054 111.178C64.0987 111.142 63.9081 111.048 63.758 110.908C63.6079 110.769 63.505 110.591 63.4625 110.396C63.42 110.201 63.4398 109.998 63.5193 109.814C63.5989 109.63 63.7346 109.472 63.9091 109.361C64.0837 109.25 64.2892 109.191 64.4995 109.191C64.6374 109.189 64.7742 109.213 64.9022 109.262C65.0302 109.31 65.1467 109.382 65.2452 109.474C65.3436 109.565 65.4219 109.674 65.4757 109.794C65.5295 109.914 65.5576 110.044 65.5585 110.174Z" fill="white"/>
<path d="M63.8867 110.717C64.0036 110.831 64.1536 110.911 64.3179 110.945C64.4822 110.978 64.6535 110.966 64.8101 110.908C64.9667 110.85 65.1017 110.749 65.1982 110.619C65.2946 110.488 65.3481 110.334 65.352 110.175C65.3497 109.985 65.2739 109.804 65.1389 109.664C64.6968 109.988 64.2784 110.34 63.8867 110.717Z" fill="#263238"/>
<path d="M69.7076 110.174C69.7116 110.373 69.6529 110.569 69.539 110.736C69.425 110.903 69.2611 111.035 69.068 111.114C68.8748 111.192 68.6613 111.215 68.4546 111.178C68.2478 111.142 68.0573 111.048 67.9072 110.908C67.7571 110.769 67.6542 110.591 67.6117 110.396C67.5692 110.201 67.589 109.998 67.6685 109.814C67.748 109.63 67.8837 109.472 68.0583 109.361C68.2328 109.25 68.4384 109.191 68.6487 109.191C68.7865 109.189 68.9234 109.213 69.0514 109.262C69.1793 109.31 69.2959 109.382 69.3943 109.474C69.4928 109.565 69.5711 109.674 69.6249 109.794C69.6787 109.914 69.7068 110.044 69.7076 110.174Z" fill="white"/>
<path d="M68.0159 110.717C68.0956 110.794 68.1909 110.856 68.2961 110.898C68.4013 110.941 68.5143 110.962 68.6286 110.963C68.7394 110.964 68.8494 110.945 68.9523 110.907C69.0553 110.868 69.149 110.81 69.2283 110.737C69.3076 110.664 69.3707 110.576 69.4141 110.48C69.4575 110.383 69.4803 110.28 69.4811 110.175C69.4789 109.985 69.403 109.804 69.268 109.664C68.8274 109.989 68.4091 110.341 68.0159 110.717Z" fill="#263238"/>
<path d="M73.8571 110.174C73.861 110.373 73.8023 110.569 73.6884 110.736C73.5745 110.903 73.4105 111.035 73.2174 111.114C73.0242 111.192 72.8107 111.215 72.604 111.178C72.3973 111.142 72.2067 111.048 72.0566 110.908C71.9065 110.769 71.8036 110.591 71.7611 110.396C71.7186 110.201 71.7384 109.998 71.8179 109.814C71.8974 109.63 72.0331 109.472 72.2077 109.361C72.3823 109.25 72.5878 109.191 72.7981 109.191C72.9359 109.189 73.0728 109.213 73.2008 109.262C73.3288 109.31 73.4453 109.382 73.5437 109.474C73.6422 109.565 73.7205 109.674 73.7743 109.794C73.8281 109.914 73.8562 110.044 73.8571 110.174Z" fill="white"/>
<path d="M72.1919 110.717C72.3078 110.832 72.4575 110.912 72.6217 110.947C72.786 110.981 72.9573 110.969 73.1139 110.91C73.2705 110.852 73.4051 110.751 73.5007 110.62C73.5963 110.489 73.6485 110.334 73.6505 110.175C73.6483 109.985 73.5724 109.804 73.4374 109.664C72.9974 109.988 72.5812 110.34 72.1919 110.717Z" fill="#263238"/>
<path d="M78.0065 110.174C78.0118 110.375 77.9538 110.572 77.84 110.741C77.7261 110.91 77.5616 111.044 77.3674 111.124C77.1732 111.204 76.9582 111.228 76.7497 111.192C76.5413 111.156 76.3489 111.062 76.1972 110.921C76.0455 110.781 75.9413 110.602 75.898 110.405C75.8547 110.209 75.8742 110.005 75.954 109.819C76.0338 109.633 76.1703 109.474 76.3461 109.362C76.5219 109.25 76.7289 109.191 76.9408 109.191C77.079 109.189 77.2162 109.213 77.3445 109.261C77.4729 109.31 77.5899 109.382 77.6888 109.473C77.7878 109.565 77.8668 109.674 77.9213 109.794C77.9758 109.914 78.0047 110.043 78.0065 110.174Z" fill="white"/>
<path d="M76.3413 110.717C76.4573 110.832 76.6069 110.912 76.7711 110.947C76.9354 110.981 77.1067 110.969 77.2633 110.91C77.4199 110.852 77.5546 110.751 77.6502 110.62C77.7457 110.489 77.7979 110.334 77.7999 110.175C77.7977 109.985 77.7218 109.804 77.5868 109.664C77.1482 109.989 76.7322 110.341 76.3413 110.717Z" fill="#263238"/>
<path d="M82.1625 110.174C82.1665 110.373 82.1077 110.569 81.9938 110.736C81.8799 110.903 81.7159 111.035 81.5228 111.114C81.3297 111.192 81.1161 111.215 80.9094 111.178C80.7027 111.142 80.5121 111.048 80.362 110.908C80.2119 110.769 80.109 110.591 80.0665 110.396C80.024 110.201 80.0438 109.998 80.1233 109.814C80.2029 109.63 80.3386 109.472 80.5131 109.361C80.6877 109.25 80.8932 109.191 81.1035 109.191C81.2414 109.189 81.3782 109.213 81.5062 109.262C81.6342 109.31 81.7507 109.382 81.8492 109.474C81.9476 109.565 82.0259 109.674 82.0797 109.794C82.1335 109.914 82.1616 110.044 82.1625 110.174Z" fill="white"/>
<path d="M80.4907 110.717C80.5702 110.795 80.6654 110.857 80.7707 110.899C80.876 110.941 80.9891 110.963 81.1035 110.963C81.2137 110.964 81.323 110.944 81.4251 110.905C81.5273 110.866 81.6203 110.808 81.6988 110.735C81.7774 110.661 81.8399 110.574 81.8829 110.478C81.9259 110.382 81.9485 110.279 81.9493 110.175C81.9497 109.985 81.8735 109.802 81.7362 109.664C81.2976 109.989 80.8816 110.341 80.4907 110.717Z" fill="#263238"/>
<path d="M86.3119 110.174C86.3159 110.373 86.2571 110.569 86.1432 110.736C86.0293 110.903 85.8653 111.035 85.6722 111.114C85.4791 111.192 85.2655 111.215 85.0588 111.178C84.8521 111.142 84.6615 111.048 84.5114 110.908C84.3613 110.769 84.2585 110.591 84.216 110.396C84.1734 110.201 84.1932 109.998 84.2728 109.814C84.3523 109.63 84.488 109.472 84.6625 109.361C84.8371 109.25 85.0426 109.191 85.2529 109.191C85.3908 109.189 85.5276 109.213 85.6556 109.262C85.7836 109.31 85.9001 109.382 85.9986 109.474C86.097 109.565 86.1754 109.674 86.2291 109.794C86.2829 109.914 86.311 110.044 86.3119 110.174Z" fill="white"/>
<path d="M84.6667 110.717C84.7836 110.831 84.9336 110.911 85.0979 110.945C85.2623 110.978 85.4335 110.966 85.5901 110.908C85.7467 110.85 85.8818 110.749 85.9782 110.619C86.0746 110.488 86.1281 110.334 86.132 110.175C86.1298 109.985 86.0539 109.804 85.9189 109.664C85.4782 109.989 85.06 110.341 84.6667 110.717Z" fill="#263238"/>
<path d="M90.4613 110.174C90.4653 110.373 90.4066 110.569 90.2926 110.736C90.1787 110.903 90.0147 111.035 89.8216 111.114C89.6285 111.192 89.415 111.215 89.2082 111.178C89.0015 111.142 88.8109 111.048 88.6608 110.908C88.5107 110.769 88.4079 110.591 88.3654 110.396C88.3229 110.201 88.3426 109.998 88.4222 109.814C88.5017 109.63 88.6374 109.472 88.8119 109.361C88.9865 109.25 89.192 109.191 89.4023 109.191C89.5402 109.189 89.6771 109.213 89.805 109.262C89.933 109.31 90.0496 109.382 90.148 109.474C90.2464 109.565 90.3248 109.674 90.3785 109.794C90.4323 109.914 90.4604 110.044 90.4613 110.174Z" fill="white"/>
<path d="M88.7896 110.717C88.8693 110.794 88.9645 110.856 89.0698 110.898C89.175 110.941 89.288 110.962 89.4023 110.963C89.5131 110.964 89.6231 110.945 89.726 110.907C89.8289 110.868 89.9227 110.81 90.002 110.737C90.0812 110.664 90.1444 110.576 90.1878 110.48C90.2312 110.383 90.254 110.28 90.2548 110.175C90.2526 109.985 90.1767 109.804 90.0417 109.664C89.601 109.989 89.1828 110.341 88.7896 110.717Z" fill="#263238"/>
<path d="M94.611 110.174C94.6149 110.373 94.5562 110.569 94.4423 110.736C94.3284 110.903 94.1644 111.035 93.9713 111.114C93.7781 111.192 93.5646 111.215 93.3579 111.178C93.1512 111.142 92.9606 111.048 92.8105 110.908C92.6604 110.769 92.5575 110.591 92.515 110.396C92.4725 110.201 92.4923 109.998 92.5718 109.814C92.6513 109.63 92.787 109.472 92.9616 109.361C93.1362 109.25 93.3417 109.191 93.552 109.191C93.6898 109.189 93.8267 109.213 93.9547 109.262C94.0827 109.31 94.1992 109.382 94.2976 109.474C94.3961 109.565 94.4744 109.674 94.5282 109.794C94.582 109.914 94.6101 110.044 94.611 110.174Z" fill="white"/>
<path d="M92.9456 110.717C93.0615 110.832 93.2112 110.912 93.3754 110.947C93.5396 110.981 93.711 110.969 93.8676 110.91C94.0241 110.852 94.1588 110.751 94.2544 110.62C94.35 110.489 94.4021 110.334 94.4042 110.175C94.4019 109.985 94.326 109.804 94.191 109.664C93.7525 109.989 93.3364 110.341 92.9456 110.717Z" fill="#263238"/>
<path d="M98.7667 110.174C98.772 110.375 98.7139 110.573 98.5998 110.742C98.4856 110.911 98.3207 111.044 98.1261 111.124C97.9315 111.204 97.7161 111.228 97.5075 111.191C97.2989 111.155 97.1065 111.06 96.9551 110.919C96.8036 110.779 96.7 110.598 96.6574 110.402C96.6148 110.205 96.6353 110.001 96.7161 109.815C96.797 109.629 96.9345 109.471 97.1112 109.359C97.2878 109.248 97.4956 109.189 97.7077 109.191C97.8456 109.189 97.9825 109.213 98.1104 109.262C98.2384 109.31 98.355 109.382 98.4534 109.474C98.5518 109.565 98.6302 109.674 98.684 109.794C98.7377 109.914 98.7659 110.044 98.7667 110.174Z" fill="white"/>
<path d="M97.095 110.717C97.2109 110.832 97.3606 110.912 97.5248 110.947C97.689 110.981 97.8604 110.969 98.017 110.91C98.1735 110.852 98.3082 110.751 98.4038 110.62C98.4994 110.489 98.5515 110.334 98.5536 110.175C98.5539 109.985 98.4777 109.802 98.3405 109.664C97.9019 109.989 97.4859 110.341 97.095 110.717Z" fill="#263238"/>
<path d="M102.916 110.174C102.92 110.373 102.862 110.569 102.748 110.736C102.634 110.903 102.47 111.035 102.277 111.114C102.084 111.192 101.87 111.215 101.663 111.178C101.457 111.142 101.266 111.048 101.116 110.908C100.966 110.769 100.863 110.591 100.82 110.396C100.778 110.201 100.798 109.998 100.877 109.814C100.957 109.63 101.092 109.472 101.267 109.361C101.442 109.25 101.647 109.191 101.857 109.191C101.995 109.189 102.132 109.213 102.26 109.262C102.388 109.31 102.505 109.382 102.603 109.474C102.701 109.565 102.78 109.674 102.834 109.794C102.887 109.914 102.916 110.044 102.916 110.174Z" fill="white"/>
<path d="M101.244 110.717C101.361 110.831 101.511 110.911 101.676 110.945C101.84 110.978 102.011 110.966 102.168 110.908C102.324 110.85 102.459 110.749 102.556 110.619C102.652 110.488 102.706 110.334 102.71 110.175C102.707 109.985 102.632 109.804 102.497 109.664C102.054 109.988 101.636 110.34 101.244 110.717Z" fill="#263238"/>
<path d="M107.066 110.174C107.07 110.373 107.011 110.569 106.897 110.736C106.783 110.903 106.619 111.035 106.426 111.114C106.233 111.192 106.019 111.215 105.812 111.178C105.606 111.142 105.415 111.048 105.265 110.908C105.115 110.769 105.012 110.591 104.97 110.396C104.927 110.201 104.947 109.998 105.026 109.814C105.106 109.63 105.242 109.472 105.416 109.361C105.591 109.25 105.796 109.191 106.007 109.191C106.144 109.189 106.281 109.213 106.409 109.262C106.537 109.31 106.654 109.382 106.752 109.474C106.851 109.565 106.929 109.674 106.983 109.794C107.037 109.914 107.065 110.044 107.066 110.174Z" fill="white"/>
<path d="M105.394 110.717C105.474 110.794 105.569 110.856 105.674 110.898C105.779 110.941 105.892 110.962 106.007 110.963C106.117 110.964 106.227 110.945 106.33 110.907C106.433 110.868 106.527 110.81 106.606 110.737C106.685 110.664 106.749 110.576 106.792 110.48C106.835 110.383 106.858 110.28 106.859 110.175C106.857 109.985 106.781 109.804 106.646 109.664C106.205 109.989 105.787 110.341 105.394 110.717Z" fill="#263238"/>
<path d="M53.1035 116.423C53.1088 116.622 53.0512 116.818 52.9381 116.986C52.825 117.154 52.6615 117.287 52.4686 117.366C52.2756 117.446 52.0619 117.47 51.8547 117.434C51.6476 117.398 51.4564 117.305 51.3056 117.166C51.1548 117.026 51.0513 116.848 51.0082 116.653C50.9652 116.458 50.9845 116.255 51.0638 116.07C51.1431 115.886 51.2788 115.728 51.4535 115.616C51.6282 115.505 51.8339 115.445 52.0445 115.445C52.1818 115.444 52.3182 115.468 52.4457 115.516C52.5732 115.564 52.6895 115.636 52.7878 115.726C52.8862 115.817 52.9647 115.925 53.0188 116.045C53.073 116.164 53.1018 116.293 53.1035 116.423Z" fill="white"/>
<path d="M51.4385 116.971C51.5165 117.049 51.6105 117.111 51.7147 117.153C51.8189 117.195 51.9312 117.217 52.0446 117.217C52.1557 117.218 52.2658 117.198 52.3688 117.158C52.4717 117.119 52.5655 117.06 52.6446 116.987C52.7238 116.913 52.7868 116.825 52.8302 116.728C52.8735 116.631 52.8962 116.527 52.8971 116.422C52.8932 116.235 52.8174 116.056 52.684 115.918C52.244 116.242 51.8278 116.593 51.4385 116.971Z" fill="#263238"/>
<path d="M57.2595 116.423C57.2661 116.623 57.2093 116.821 57.0963 116.991C56.9833 117.161 56.8193 117.296 56.6252 117.377C56.4312 117.458 56.2159 117.482 56.0071 117.447C55.7982 117.412 55.6052 117.318 55.4528 117.179C55.3005 117.039 55.1956 116.859 55.1517 116.663C55.1078 116.466 55.1269 116.262 55.2065 116.076C55.2861 115.89 55.4225 115.73 55.5984 115.618C55.7743 115.506 55.9816 115.445 56.1938 115.445C56.4718 115.442 56.7399 115.543 56.9395 115.726C57.1392 115.909 57.2542 116.16 57.2595 116.423Z" fill="white"/>
<path d="M55.5879 116.971C55.6659 117.049 55.7599 117.111 55.8641 117.153C55.9683 117.195 56.0806 117.217 56.194 117.217C56.3051 117.218 56.4152 117.198 56.5182 117.158C56.6212 117.119 56.7149 117.06 56.7941 116.987C56.8732 116.913 56.9363 116.825 56.9796 116.728C57.0229 116.631 57.0456 116.527 57.0465 116.422C57.0426 116.235 56.9669 116.056 56.8334 115.918C56.3948 116.243 55.9788 116.595 55.5879 116.971Z" fill="#263238"/>
<path d="M61.4089 116.423C61.4155 116.624 61.3585 116.822 61.2452 116.992C61.132 117.162 60.9675 117.296 60.7731 117.377C60.5787 117.458 60.3631 117.483 60.154 117.447C59.945 117.411 59.752 117.317 59.5999 117.176C59.4477 117.036 59.3434 116.856 59.3003 116.659C59.2571 116.462 59.2772 116.257 59.3578 116.071C59.4384 115.885 59.5759 115.726 59.7527 115.615C59.9295 115.503 60.1374 115.444 60.3499 115.445C60.4872 115.444 60.6235 115.468 60.7511 115.516C60.8786 115.564 60.9949 115.636 61.0932 115.726C61.1915 115.817 61.27 115.925 61.3242 116.045C61.3784 116.164 61.4071 116.293 61.4089 116.423Z" fill="white"/>
<path d="M59.7371 116.971C59.8534 117.087 60.0037 117.167 60.1685 117.201C60.3334 117.235 60.5053 117.222 60.6621 117.163C60.819 117.104 60.9536 117.002 61.0487 116.87C61.1437 116.738 61.1949 116.582 61.1957 116.422C61.195 116.235 61.1188 116.054 60.9825 115.918C60.544 116.243 60.1279 116.595 59.7371 116.971Z" fill="#263238"/>
<path d="M65.5583 116.423C65.5636 116.622 65.506 116.818 65.393 116.986C65.2799 117.154 65.1164 117.287 64.9234 117.366C64.7304 117.446 64.5167 117.47 64.3096 117.434C64.1024 117.398 63.9112 117.305 63.7604 117.166C63.6097 117.026 63.5061 116.848 63.4631 116.653C63.42 116.458 63.4394 116.255 63.5187 116.07C63.598 115.886 63.7336 115.728 63.9083 115.616C64.083 115.505 64.2888 115.445 64.4993 115.445C64.6367 115.444 64.773 115.468 64.9005 115.516C65.0281 115.564 65.1443 115.636 65.2427 115.726C65.341 115.817 65.4195 115.925 65.4737 116.045C65.5278 116.164 65.5566 116.293 65.5583 116.423Z" fill="white"/>
<path d="M63.8867 116.971C64.004 117.086 64.1546 117.165 64.3195 117.199C64.4844 117.232 64.6562 117.219 64.8131 117.16C64.97 117.102 65.1049 117 65.2009 116.869C65.2968 116.737 65.3494 116.582 65.352 116.422C65.3481 116.235 65.2723 116.056 65.1389 115.918C64.6968 116.242 64.2784 116.593 63.8867 116.971Z" fill="#263238"/>
<path d="M69.7077 116.423C69.713 116.622 69.6555 116.818 69.5424 116.986C69.4293 117.154 69.2658 117.287 69.0728 117.366C68.8798 117.446 68.6661 117.47 68.459 117.434C68.2518 117.398 68.0606 117.305 67.9099 117.166C67.7591 117.026 67.6555 116.848 67.6125 116.653C67.5694 116.458 67.5888 116.255 67.6681 116.07C67.7474 115.886 67.883 115.728 68.0577 115.616C68.2324 115.505 68.4382 115.445 68.6487 115.445C68.7861 115.444 68.9224 115.468 69.0499 115.516C69.1775 115.564 69.2937 115.636 69.3921 115.726C69.4904 115.817 69.5689 115.925 69.6231 116.045C69.6772 116.164 69.706 116.293 69.7077 116.423Z" fill="white"/>
<path d="M68.0159 116.971C68.0956 117.048 68.1909 117.11 68.2961 117.152C68.4013 117.194 68.5143 117.216 68.6286 117.217C68.7397 117.218 68.8499 117.198 68.9528 117.158C69.0558 117.119 69.1495 117.06 69.2287 116.987C69.3079 116.913 69.3709 116.825 69.4142 116.728C69.4575 116.631 69.4803 116.527 69.4811 116.422C69.4773 116.235 69.4015 116.056 69.268 115.918C68.8274 116.243 68.4091 116.595 68.0159 116.971Z" fill="#263238"/>
<path d="M73.8569 116.423C73.8622 116.622 73.8046 116.818 73.6915 116.986C73.5784 117.154 73.415 117.287 73.222 117.366C73.029 117.446 72.8153 117.47 72.6081 117.434C72.401 117.398 72.2098 117.305 72.059 117.166C71.9083 117.026 71.8047 116.848 71.7616 116.653C71.7186 116.458 71.7379 116.255 71.8172 116.07C71.8966 115.886 72.0322 115.728 72.2069 115.616C72.3816 115.505 72.5873 115.445 72.7979 115.445C72.9352 115.444 73.0716 115.468 73.1991 115.516C73.3266 115.564 73.4429 115.636 73.5412 115.726C73.6396 115.817 73.7181 115.925 73.7722 116.045C73.8264 116.164 73.8552 116.293 73.8569 116.423Z" fill="white"/>
<path d="M72.1919 116.971C72.2699 117.049 72.3639 117.111 72.4681 117.153C72.5723 117.195 72.6846 117.217 72.798 117.217C72.9091 117.218 73.0192 117.198 73.1222 117.158C73.2252 117.119 73.3189 117.06 73.3981 116.987C73.4772 116.913 73.5403 116.825 73.5836 116.728C73.6269 116.631 73.6496 116.527 73.6505 116.422C73.6466 116.235 73.5709 116.056 73.4374 115.918C72.9974 116.242 72.5812 116.593 72.1919 116.971Z" fill="#263238"/>
<path d="M78.0065 116.423C78.0132 116.623 77.9563 116.821 77.8433 116.991C77.7303 117.161 77.5663 117.296 77.3723 117.377C77.1782 117.458 76.963 117.482 76.7541 117.447C76.5453 117.412 76.3523 117.318 76.1999 117.179C76.0475 117.039 75.9427 116.859 75.8988 116.663C75.8549 116.466 75.874 116.262 75.9536 116.076C76.0331 115.89 76.1696 115.73 76.3455 115.618C76.5214 115.506 76.7287 115.445 76.9409 115.445C77.2188 115.442 77.4869 115.543 77.6866 115.726C77.8863 115.909 78.0013 116.16 78.0065 116.423Z" fill="white"/>
<path d="M76.3413 116.971C76.4193 117.049 76.5133 117.111 76.6175 117.153C76.7218 117.195 76.834 117.217 76.9474 117.217C77.0585 117.218 77.1686 117.198 77.2716 117.158C77.3746 117.119 77.4683 117.06 77.5475 116.987C77.6266 116.913 77.6897 116.825 77.733 116.728C77.7763 116.631 77.7991 116.527 77.7999 116.422C77.7961 116.235 77.7203 116.056 77.5868 115.918C77.1482 116.243 76.7322 116.595 76.3413 116.971Z" fill="#263238"/>
<path d="M82.1623 116.423C82.1676 116.622 82.1101 116.818 81.997 116.986C81.8839 117.154 81.7204 117.287 81.5274 117.366C81.3344 117.446 81.1207 117.47 80.9136 117.434C80.7064 117.398 80.5152 117.305 80.3645 117.166C80.2137 117.026 80.1101 116.848 80.0671 116.653C80.024 116.458 80.0434 116.255 80.1227 116.07C80.202 115.886 80.3376 115.728 80.5123 115.616C80.687 115.505 80.8928 115.445 81.1033 115.445C81.2407 115.444 81.377 115.468 81.5045 115.516C81.6321 115.564 81.7483 115.636 81.8467 115.726C81.945 115.817 82.0235 115.925 82.0777 116.045C82.1318 116.164 82.1606 116.293 82.1623 116.423Z" fill="white"/>
<path d="M80.4907 116.971C80.6071 117.087 80.7573 117.167 80.9222 117.201C81.087 117.235 81.2589 117.222 81.4158 117.163C81.5726 117.104 81.7072 117.002 81.8023 116.87C81.8974 116.738 81.9486 116.582 81.9493 116.422C81.9487 116.235 81.8725 116.054 81.7362 115.918C81.2976 116.243 80.8816 116.595 80.4907 116.971Z" fill="#263238"/>
<path d="M86.312 116.423C86.3173 116.622 86.2597 116.818 86.1466 116.986C86.0335 117.154 85.87 117.287 85.6771 117.366C85.4841 117.446 85.2704 117.47 85.0632 117.434C84.8561 117.398 84.6649 117.305 84.5141 117.166C84.3633 117.026 84.2598 116.848 84.2167 116.653C84.1737 116.458 84.193 116.255 84.2723 116.07C84.3516 115.886 84.4873 115.728 84.662 115.616C84.8367 115.505 85.0424 115.445 85.253 115.445C85.3903 115.444 85.5266 115.468 85.6542 115.516C85.7817 115.564 85.898 115.636 85.9963 115.726C86.0947 115.817 86.1732 115.925 86.2273 116.045C86.2815 116.164 86.3103 116.293 86.312 116.423Z" fill="white"/>
<path d="M84.6667 116.971C84.784 117.086 84.9347 117.165 85.0996 117.199C85.2645 117.232 85.4362 117.219 85.5931 117.16C85.75 117.102 85.8849 117 85.9809 116.869C86.0768 116.737 86.1294 116.582 86.132 116.422C86.1281 116.235 86.0524 116.056 85.9189 115.918C85.4782 116.243 85.06 116.595 84.6667 116.971Z" fill="#263238"/>
<path d="M90.4612 116.423C90.4665 116.622 90.4089 116.818 90.2958 116.986C90.1827 117.154 90.0192 117.287 89.8262 117.366C89.6332 117.446 89.4195 117.47 89.2124 117.434C89.0052 117.398 88.8141 117.305 88.6633 117.166C88.5125 117.026 88.409 116.848 88.3659 116.653C88.3228 116.458 88.3422 116.255 88.4215 116.07C88.5008 115.886 88.6365 115.728 88.8111 115.616C88.9858 115.505 89.1916 115.445 89.4022 115.445C89.5395 115.444 89.6758 115.468 89.8034 115.516C89.9309 115.564 90.0472 115.636 90.1455 115.726C90.2438 115.817 90.3223 115.925 90.3765 116.045C90.4307 116.164 90.4594 116.293 90.4612 116.423Z" fill="white"/>
<path d="M88.7896 116.971C88.8693 117.048 88.9645 117.11 89.0698 117.152C89.175 117.194 89.288 117.216 89.4023 117.217C89.5134 117.218 89.6235 117.198 89.7265 117.158C89.8295 117.119 89.9232 117.06 90.0024 116.987C90.0815 116.913 90.1446 116.825 90.1879 116.728C90.2312 116.631 90.254 116.527 90.2548 116.422C90.251 116.235 90.1752 116.056 90.0417 115.918C89.601 116.243 89.1828 116.595 88.7896 116.971Z" fill="#263238"/>
<path d="M94.6108 116.423C94.6161 116.622 94.5585 116.818 94.4454 116.986C94.3323 117.154 94.1689 117.287 93.9759 117.366C93.7829 117.446 93.5692 117.47 93.362 117.434C93.1549 117.398 92.9637 117.305 92.8129 117.166C92.6622 117.026 92.5586 116.848 92.5156 116.653C92.4725 116.458 92.4918 116.255 92.5712 116.07C92.6505 115.886 92.7861 115.728 92.9608 115.616C93.1355 115.505 93.3412 115.445 93.5518 115.445C93.6891 115.444 93.8255 115.468 93.953 115.516C94.0806 115.564 94.1968 115.636 94.2952 115.726C94.3935 115.817 94.472 115.925 94.5261 116.045C94.5803 116.164 94.6091 116.293 94.6108 116.423Z" fill="white"/>
<path d="M92.9456 116.971C93.0236 117.049 93.1176 117.111 93.2218 117.153C93.326 117.195 93.4383 117.217 93.5517 117.217C93.6627 117.218 93.7729 117.198 93.8759 117.158C93.9788 117.119 94.0726 117.06 94.1517 116.987C94.2309 116.913 94.2939 116.825 94.3373 116.728C94.3806 116.631 94.4033 116.527 94.4042 116.422C94.4003 116.235 94.3245 116.056 94.191 115.918C93.7525 116.243 93.3364 116.595 92.9456 116.971Z" fill="#263238"/>
<path d="M98.7668 116.423C98.7734 116.624 98.7164 116.822 98.6031 116.992C98.4899 117.162 98.3254 117.296 98.131 117.377C97.9366 117.458 97.721 117.483 97.5119 117.447C97.3029 117.411 97.1099 117.317 96.9578 117.176C96.8057 117.036 96.7013 116.856 96.6582 116.659C96.615 116.462 96.6351 116.257 96.7157 116.071C96.7963 115.885 96.9338 115.726 97.1106 115.615C97.2874 115.503 97.4953 115.444 97.7078 115.445C97.8451 115.444 97.9814 115.468 98.109 115.516C98.2365 115.564 98.3528 115.636 98.4511 115.726C98.5494 115.817 98.6279 115.925 98.6821 116.045C98.7363 116.164 98.765 116.293 98.7668 116.423Z" fill="white"/>
<path d="M97.095 116.971C97.2113 117.087 97.3616 117.167 97.5264 117.201C97.6913 117.235 97.8632 117.222 98.02 117.163C98.1769 117.104 98.3115 117.002 98.4066 116.87C98.5017 116.738 98.5529 116.582 98.5536 116.422C98.5529 116.235 98.4767 116.054 98.3405 115.918C97.9019 116.243 97.4859 116.595 97.095 116.971Z" fill="#263238"/>
<path d="M102.916 116.423C102.922 116.622 102.864 116.818 102.751 116.986C102.638 117.154 102.474 117.287 102.281 117.366C102.088 117.446 101.875 117.47 101.667 117.434C101.46 117.398 101.269 117.305 101.118 117.166C100.968 117.026 100.864 116.848 100.821 116.653C100.778 116.458 100.797 116.255 100.877 116.07C100.956 115.886 101.092 115.728 101.266 115.616C101.441 115.505 101.647 115.445 101.857 115.445C101.995 115.444 102.131 115.468 102.258 115.516C102.386 115.564 102.502 115.636 102.601 115.726C102.699 115.817 102.777 115.925 102.832 116.045C102.886 116.164 102.914 116.293 102.916 116.423Z" fill="white"/>
<path d="M101.244 116.971C101.362 117.086 101.512 117.165 101.677 117.199C101.842 117.232 102.014 117.219 102.171 117.16C102.328 117.102 102.463 117 102.559 116.869C102.654 116.737 102.707 116.582 102.71 116.422C102.706 116.235 102.63 116.056 102.497 115.918C102.054 116.242 101.636 116.593 101.244 116.971Z" fill="#263238"/>
<path d="M107.066 116.423C107.071 116.622 107.013 116.818 106.9 116.986C106.787 117.154 106.624 117.287 106.431 117.366C106.238 117.446 106.024 117.47 105.817 117.434C105.61 117.398 105.419 117.305 105.268 117.166C105.117 117.026 105.013 116.848 104.97 116.653C104.927 116.458 104.947 116.255 105.026 116.07C105.105 115.886 105.241 115.728 105.416 115.616C105.59 115.505 105.796 115.445 106.007 115.445C106.144 115.444 106.28 115.468 106.408 115.516C106.535 115.564 106.652 115.636 106.75 115.726C106.848 115.817 106.927 115.925 106.981 116.045C107.035 116.164 107.064 116.293 107.066 116.423Z" fill="white"/>
<path d="M105.394 116.971C105.474 117.048 105.569 117.11 105.674 117.152C105.779 117.194 105.892 117.216 106.007 117.217C106.118 117.218 106.228 117.198 106.331 117.158C106.434 117.119 106.527 117.06 106.607 116.987C106.686 116.913 106.749 116.825 106.792 116.728C106.835 116.631 106.858 116.527 106.859 116.422C106.855 116.235 106.779 116.056 106.646 115.918C106.205 116.243 105.787 116.595 105.394 116.971Z" fill="#263238"/>
<path d="M153.055 110.174C153.059 110.373 153.001 110.569 152.887 110.736C152.773 110.903 152.609 111.035 152.416 111.114C152.222 111.192 152.009 111.215 151.802 111.178C151.596 111.142 151.405 111.048 151.255 110.908C151.105 110.769 151.002 110.591 150.959 110.396C150.917 110.201 150.937 109.998 151.016 109.814C151.096 109.63 151.231 109.472 151.406 109.361C151.58 109.25 151.786 109.191 151.996 109.191C152.134 109.189 152.271 109.213 152.399 109.262C152.527 109.31 152.644 109.382 152.742 109.474C152.84 109.565 152.919 109.674 152.973 109.794C153.026 109.914 153.054 110.044 153.055 110.174Z" fill="white"/>
<path d="M151.39 110.717C151.506 110.832 151.656 110.912 151.82 110.947C151.984 110.981 152.156 110.969 152.312 110.91C152.469 110.852 152.603 110.751 152.699 110.62C152.795 110.489 152.847 110.334 152.849 110.175C152.847 109.985 152.771 109.804 152.636 109.664C152.197 109.989 151.781 110.341 151.39 110.717Z" fill="#263238"/>
<path d="M157.211 110.174C157.217 110.375 157.158 110.573 157.044 110.742C156.93 110.911 156.765 111.044 156.571 111.124C156.376 111.204 156.161 111.228 155.952 111.191C155.743 111.155 155.551 111.06 155.4 110.919C155.248 110.779 155.145 110.598 155.102 110.402C155.059 110.205 155.08 110.001 155.161 109.815C155.242 109.629 155.379 109.471 155.556 109.359C155.732 109.248 155.94 109.189 156.152 109.191C156.29 109.189 156.427 109.213 156.555 109.262C156.683 109.31 156.8 109.382 156.898 109.474C156.996 109.565 157.075 109.674 157.129 109.794C157.182 109.914 157.21 110.044 157.211 110.174Z" fill="white"/>
<path d="M155.54 110.717C155.656 110.832 155.805 110.912 155.97 110.947C156.134 110.981 156.305 110.969 156.462 110.91C156.618 110.852 156.753 110.751 156.849 110.62C156.944 110.489 156.996 110.334 156.998 110.175C156.999 109.985 156.923 109.802 156.785 109.664C156.347 109.989 155.931 110.341 155.54 110.717Z" fill="#263238"/>
<path d="M161.361 110.174C161.365 110.373 161.306 110.569 161.192 110.736C161.078 110.903 160.914 111.035 160.721 111.114C160.528 111.192 160.314 111.215 160.108 111.178C159.901 111.142 159.71 111.048 159.56 110.908C159.41 110.769 159.307 110.591 159.265 110.396C159.222 110.201 159.242 109.998 159.322 109.814C159.401 109.63 159.537 109.472 159.711 109.361C159.886 109.25 160.091 109.191 160.302 109.191C160.44 109.189 160.576 109.213 160.704 109.262C160.832 109.31 160.949 109.382 161.047 109.474C161.146 109.565 161.224 109.674 161.278 109.794C161.332 109.914 161.36 110.044 161.361 110.174Z" fill="white"/>
<path d="M159.689 110.717C159.806 110.831 159.956 110.911 160.12 110.945C160.284 110.978 160.456 110.966 160.612 110.908C160.769 110.85 160.904 110.749 161 110.619C161.097 110.488 161.15 110.334 161.154 110.175C161.152 109.985 161.076 109.804 160.941 109.664C160.499 109.988 160.081 110.34 159.689 110.717Z" fill="#263238"/>
<path d="M165.51 110.174C165.514 110.373 165.455 110.569 165.341 110.736C165.228 110.903 165.064 111.035 164.87 111.114C164.677 111.192 164.464 111.215 164.257 111.178C164.05 111.142 163.86 111.048 163.71 110.908C163.56 110.769 163.457 110.591 163.414 110.396C163.372 110.201 163.391 109.998 163.471 109.814C163.551 109.63 163.686 109.472 163.861 109.361C164.035 109.25 164.241 109.191 164.451 109.191C164.589 109.189 164.726 109.213 164.854 109.262C164.982 109.31 165.098 109.382 165.197 109.474C165.295 109.565 165.374 109.674 165.427 109.794C165.481 109.914 165.509 110.044 165.51 110.174Z" fill="white"/>
<path d="M163.838 110.717C163.918 110.794 164.013 110.856 164.119 110.898C164.224 110.941 164.337 110.962 164.451 110.963C164.562 110.964 164.672 110.945 164.775 110.907C164.878 110.868 164.972 110.81 165.051 110.737C165.13 110.664 165.193 110.576 165.237 110.48C165.28 110.383 165.303 110.28 165.304 110.175C165.301 109.985 165.226 109.804 165.091 109.664C164.65 109.989 164.232 110.341 163.838 110.717Z" fill="#263238"/>
<path d="M169.66 110.174C169.664 110.373 169.605 110.569 169.491 110.736C169.377 110.903 169.213 111.035 169.02 111.114C168.827 111.192 168.613 111.215 168.406 111.178C168.2 111.142 168.009 111.048 167.859 110.908C167.709 110.769 167.606 110.591 167.564 110.396C167.521 110.201 167.541 109.998 167.62 109.814C167.7 109.63 167.836 109.472 168.01 109.361C168.185 109.25 168.39 109.191 168.601 109.191C168.738 109.189 168.875 109.213 169.003 109.262C169.131 109.31 169.248 109.382 169.346 109.474C169.445 109.565 169.523 109.674 169.577 109.794C169.631 109.914 169.659 110.044 169.66 110.174Z" fill="white"/>
<path d="M167.994 110.717C168.11 110.832 168.26 110.912 168.424 110.947C168.588 110.981 168.76 110.969 168.916 110.91C169.073 110.852 169.208 110.751 169.303 110.62C169.399 110.489 169.451 110.334 169.453 110.175C169.451 109.985 169.375 109.804 169.24 109.664C168.8 109.988 168.384 110.34 167.994 110.717Z" fill="#263238"/>
<path d="M173.816 110.174C173.821 110.375 173.763 110.572 173.649 110.741C173.535 110.91 173.371 111.044 173.177 111.124C172.983 111.204 172.768 111.228 172.559 111.192C172.351 111.156 172.158 111.062 172.007 110.921C171.855 110.781 171.751 110.602 171.707 110.405C171.664 110.209 171.683 110.005 171.763 109.819C171.843 109.633 171.98 109.474 172.155 109.362C172.331 109.25 172.538 109.191 172.75 109.191C172.888 109.189 173.026 109.213 173.154 109.261C173.282 109.31 173.399 109.382 173.498 109.473C173.597 109.565 173.676 109.674 173.731 109.794C173.785 109.914 173.814 110.043 173.816 110.174Z" fill="white"/>
<path d="M172.144 110.717C172.26 110.832 172.41 110.912 172.574 110.947C172.738 110.981 172.909 110.969 173.066 110.91C173.223 110.852 173.357 110.751 173.453 110.62C173.548 110.489 173.601 110.334 173.603 110.175C173.6 109.985 173.525 109.804 173.39 109.664C172.951 109.989 172.535 110.341 172.144 110.717Z" fill="#263238"/>
<path d="M177.965 110.174C177.97 110.375 177.912 110.573 177.798 110.742C177.684 110.911 177.519 111.044 177.324 111.124C177.13 111.204 176.914 111.228 176.706 111.191C176.497 111.155 176.305 111.06 176.153 110.919C176.002 110.779 175.898 110.598 175.856 110.402C175.813 110.205 175.834 110.001 175.914 109.815C175.995 109.629 176.133 109.471 176.309 109.359C176.486 109.248 176.694 109.189 176.906 109.191C177.044 109.189 177.181 109.213 177.309 109.262C177.437 109.31 177.553 109.382 177.652 109.474C177.75 109.565 177.828 109.674 177.882 109.794C177.936 109.914 177.964 110.044 177.965 110.174Z" fill="white"/>
<path d="M176.293 110.717C176.409 110.832 176.559 110.912 176.723 110.947C176.887 110.981 177.059 110.969 177.215 110.91C177.372 110.852 177.506 110.751 177.602 110.62C177.698 110.489 177.75 110.334 177.752 110.175C177.752 109.985 177.676 109.802 177.539 109.664C177.1 109.989 176.684 110.341 176.293 110.717Z" fill="#263238"/>
<path d="M182.114 110.174C182.118 110.373 182.06 110.569 181.946 110.736C181.832 110.903 181.668 111.035 181.475 111.114C181.282 111.192 181.068 111.215 180.861 111.178C180.655 111.142 180.464 111.048 180.314 110.908C180.164 110.769 180.061 110.591 180.018 110.396C179.976 110.201 179.996 109.998 180.075 109.814C180.155 109.63 180.29 109.472 180.465 109.361C180.64 109.25 180.845 109.191 181.055 109.191C181.193 109.189 181.33 109.213 181.458 109.262C181.586 109.31 181.703 109.382 181.801 109.474C181.899 109.565 181.978 109.674 182.032 109.794C182.085 109.914 182.114 110.044 182.114 110.174Z" fill="white"/>
<path d="M180.443 110.717C180.56 110.831 180.71 110.911 180.874 110.945C181.038 110.978 181.209 110.966 181.366 110.908C181.523 110.85 181.658 110.749 181.754 110.619C181.85 110.488 181.904 110.334 181.908 110.175C181.906 109.985 181.83 109.804 181.695 109.664C181.253 109.988 180.834 110.34 180.443 110.717Z" fill="#263238"/>
<path d="M186.264 110.174C186.268 110.373 186.209 110.569 186.095 110.736C185.981 110.903 185.817 111.035 185.624 111.114C185.431 111.192 185.217 111.215 185.011 111.178C184.804 111.142 184.613 111.048 184.463 110.908C184.313 110.769 184.21 110.591 184.168 110.396C184.125 110.201 184.145 109.998 184.225 109.814C184.304 109.63 184.44 109.472 184.614 109.361C184.789 109.25 184.995 109.191 185.205 109.191C185.343 109.189 185.48 109.213 185.608 109.262C185.735 109.31 185.852 109.382 185.95 109.474C186.049 109.565 186.127 109.674 186.181 109.794C186.235 109.914 186.263 110.044 186.264 110.174Z" fill="white"/>
<path d="M184.572 110.717C184.652 110.794 184.747 110.856 184.852 110.898C184.957 110.941 185.071 110.962 185.185 110.963C185.296 110.964 185.406 110.945 185.508 110.907C185.611 110.868 185.705 110.81 185.784 110.737C185.864 110.664 185.927 110.576 185.97 110.48C186.014 110.383 186.036 110.28 186.037 110.175C186.035 109.985 185.959 109.804 185.824 109.664C185.384 109.989 184.965 110.341 184.572 110.717Z" fill="#263238"/>
<path d="M190.413 110.174C190.417 110.373 190.358 110.569 190.245 110.736C190.131 110.903 189.967 111.035 189.774 111.114C189.58 111.192 189.367 111.215 189.16 111.178C188.953 111.142 188.763 111.048 188.613 110.908C188.463 110.769 188.36 110.591 188.317 110.396C188.275 110.201 188.295 109.998 188.374 109.814C188.454 109.63 188.589 109.472 188.764 109.361C188.938 109.25 189.144 109.191 189.354 109.191C189.492 109.189 189.629 109.213 189.757 109.262C189.885 109.31 190.001 109.382 190.1 109.474C190.198 109.565 190.277 109.674 190.33 109.794C190.384 109.914 190.412 110.044 190.413 110.174Z" fill="white"/>
<path d="M188.748 110.717C188.864 110.832 189.014 110.912 189.178 110.947C189.342 110.981 189.513 110.969 189.67 110.91C189.827 110.852 189.961 110.751 190.057 110.62C190.152 110.489 190.205 110.334 190.207 110.175C190.204 109.985 190.129 109.804 189.994 109.664C189.554 109.988 189.137 110.34 188.748 110.717Z" fill="#263238"/>
<path d="M194.563 110.174C194.568 110.375 194.51 110.572 194.396 110.741C194.282 110.91 194.118 111.044 193.924 111.124C193.729 111.204 193.514 111.228 193.306 111.192C193.097 111.156 192.905 111.062 192.753 110.921C192.602 110.781 192.497 110.602 192.454 110.405C192.411 110.209 192.43 110.005 192.51 109.819C192.59 109.633 192.726 109.474 192.902 109.362C193.078 109.25 193.285 109.191 193.497 109.191C193.635 109.189 193.772 109.213 193.901 109.261C194.029 109.31 194.146 109.382 194.245 109.473C194.344 109.565 194.423 109.674 194.477 109.794C194.532 109.914 194.561 110.043 194.563 110.174Z" fill="white"/>
<path d="M192.897 110.717C193.013 110.832 193.163 110.912 193.327 110.947C193.492 110.981 193.663 110.969 193.819 110.91C193.976 110.852 194.111 110.751 194.206 110.62C194.302 110.489 194.354 110.334 194.356 110.175C194.354 109.985 194.278 109.804 194.143 109.664C193.704 109.989 193.288 110.341 192.897 110.717Z" fill="#263238"/>
<path d="M198.719 110.174C198.723 110.373 198.664 110.569 198.55 110.736C198.436 110.903 198.272 111.035 198.079 111.114C197.886 111.192 197.672 111.215 197.466 111.178C197.259 111.142 197.068 111.048 196.918 110.908C196.768 110.769 196.665 110.591 196.623 110.396C196.58 110.201 196.6 109.998 196.679 109.814C196.759 109.63 196.895 109.472 197.069 109.361C197.244 109.25 197.449 109.191 197.66 109.191C197.798 109.189 197.934 109.213 198.062 109.262C198.19 109.31 198.307 109.382 198.405 109.474C198.504 109.565 198.582 109.674 198.636 109.794C198.69 109.914 198.718 110.044 198.719 110.174Z" fill="white"/>
<path d="M197.047 110.717C197.126 110.795 197.222 110.857 197.327 110.899C197.432 110.941 197.545 110.963 197.66 110.963C197.77 110.964 197.879 110.944 197.981 110.905C198.083 110.866 198.176 110.808 198.255 110.735C198.334 110.661 198.396 110.574 198.439 110.478C198.482 110.382 198.505 110.279 198.505 110.175C198.506 109.985 198.43 109.802 198.292 109.664C197.854 109.989 197.438 110.341 197.047 110.717Z" fill="#263238"/>
<path d="M202.868 110.174C202.872 110.373 202.813 110.569 202.699 110.736C202.585 110.903 202.421 111.035 202.228 111.114C202.035 111.192 201.822 111.215 201.615 111.178C201.408 111.142 201.218 111.048 201.068 110.908C200.917 110.769 200.815 110.591 200.772 110.396C200.73 110.201 200.749 109.998 200.829 109.814C200.908 109.63 201.044 109.472 201.219 109.361C201.393 109.25 201.599 109.191 201.809 109.191C201.947 109.189 202.084 109.213 202.212 109.262C202.34 109.31 202.456 109.382 202.555 109.474C202.653 109.565 202.732 109.674 202.785 109.794C202.839 109.914 202.867 110.044 202.868 110.174Z" fill="white"/>
<path d="M201.223 110.717C201.34 110.831 201.49 110.911 201.654 110.945C201.818 110.978 201.99 110.966 202.146 110.908C202.303 110.85 202.438 110.749 202.534 110.619C202.631 110.488 202.684 110.334 202.688 110.175C202.686 109.985 202.61 109.804 202.475 109.664C202.034 109.989 201.616 110.341 201.223 110.717Z" fill="#263238"/>
<path d="M207.017 110.174C207.021 110.373 206.963 110.569 206.849 110.736C206.735 110.903 206.571 111.035 206.378 111.114C206.185 111.192 205.971 111.215 205.764 111.178C205.558 111.142 205.367 111.048 205.217 110.908C205.067 110.769 204.964 110.591 204.922 110.396C204.879 110.201 204.899 109.998 204.978 109.814C205.058 109.63 205.194 109.472 205.368 109.361C205.543 109.25 205.748 109.191 205.958 109.191C206.096 109.189 206.233 109.213 206.361 109.262C206.489 109.31 206.606 109.382 206.704 109.474C206.803 109.565 206.881 109.674 206.935 109.794C206.988 109.914 207.017 110.044 207.017 110.174Z" fill="white"/>
<path d="M205.345 110.717C205.425 110.794 205.52 110.856 205.626 110.898C205.731 110.941 205.844 110.962 205.958 110.963C206.069 110.964 206.179 110.945 206.282 110.907C206.385 110.868 206.479 110.81 206.558 110.737C206.637 110.664 206.7 110.576 206.744 110.48C206.787 110.383 206.81 110.28 206.811 110.175C206.808 109.985 206.733 109.804 206.598 109.664C206.157 109.989 205.739 110.341 205.345 110.717Z" fill="#263238"/>
<path d="M153.055 116.423C153.061 116.622 153.003 116.818 152.89 116.986C152.777 117.154 152.613 117.287 152.42 117.366C152.227 117.446 152.014 117.47 151.807 117.434C151.599 117.398 151.408 117.305 151.258 117.166C151.107 117.026 151.003 116.848 150.96 116.653C150.917 116.458 150.936 116.255 151.016 116.07C151.095 115.886 151.231 115.728 151.405 115.616C151.58 115.505 151.786 115.445 151.996 115.445C152.134 115.444 152.27 115.468 152.398 115.516C152.525 115.564 152.641 115.636 152.74 115.726C152.838 115.817 152.917 115.925 152.971 116.045C153.025 116.164 153.054 116.293 153.055 116.423Z" fill="white"/>
<path d="M151.39 116.971C151.468 117.049 151.562 117.111 151.666 117.153C151.771 117.195 151.883 117.217 151.996 117.217C152.107 117.218 152.217 117.198 152.32 117.158C152.423 117.119 152.517 117.06 152.596 116.987C152.675 116.913 152.739 116.825 152.782 116.728C152.825 116.631 152.848 116.527 152.849 116.422C152.845 116.235 152.769 116.056 152.636 115.918C152.197 116.243 151.781 116.595 151.39 116.971Z" fill="#263238"/>
<path d="M157.211 116.423C157.218 116.624 157.161 116.822 157.048 116.992C156.934 117.162 156.77 117.296 156.576 117.377C156.381 117.458 156.166 117.483 155.956 117.447C155.747 117.411 155.554 117.317 155.402 117.176C155.25 117.036 155.146 116.856 155.103 116.659C155.06 116.462 155.08 116.257 155.16 116.071C155.241 115.885 155.378 115.726 155.555 115.615C155.732 115.503 155.94 115.444 156.152 115.445C156.29 115.444 156.426 115.468 156.554 115.516C156.681 115.564 156.797 115.636 156.896 115.726C156.994 115.817 157.073 115.925 157.127 116.045C157.181 116.164 157.21 116.293 157.211 116.423Z" fill="white"/>
<path d="M155.54 116.971C155.656 117.087 155.806 117.167 155.971 117.201C156.136 117.235 156.308 117.222 156.465 117.163C156.622 117.104 156.756 117.002 156.851 116.87C156.946 116.738 156.998 116.582 156.998 116.422C156.998 116.235 156.922 116.054 156.785 115.918C156.347 116.243 155.931 116.595 155.54 116.971Z" fill="#263238"/>
<path d="M161.361 116.423C161.366 116.622 161.309 116.818 161.195 116.986C161.082 117.154 160.919 117.287 160.726 117.366C160.533 117.446 160.319 117.47 160.112 117.434C159.905 117.398 159.714 117.305 159.563 117.166C159.412 117.026 159.309 116.848 159.266 116.653C159.222 116.458 159.242 116.255 159.321 116.07C159.4 115.886 159.536 115.728 159.711 115.616C159.885 115.505 160.091 115.445 160.302 115.445C160.439 115.444 160.575 115.468 160.703 115.516C160.831 115.564 160.947 115.636 161.045 115.726C161.143 115.817 161.222 115.925 161.276 116.045C161.33 116.164 161.359 116.293 161.361 116.423Z" fill="white"/>
<path d="M159.689 116.971C159.806 117.086 159.957 117.165 160.122 117.199C160.287 117.232 160.458 117.219 160.615 117.16C160.772 117.102 160.907 117 161.003 116.869C161.099 116.737 161.152 116.582 161.154 116.422C161.15 116.235 161.075 116.056 160.941 115.918C160.499 116.242 160.081 116.593 159.689 116.971Z" fill="#263238"/>
<path d="M165.51 116.423C165.515 116.622 165.458 116.818 165.345 116.986C165.232 117.154 165.068 117.287 164.875 117.366C164.682 117.446 164.468 117.47 164.261 117.434C164.054 117.398 163.863 117.305 163.712 117.166C163.561 117.026 163.458 116.848 163.415 116.653C163.372 116.458 163.391 116.255 163.47 116.07C163.55 115.886 163.685 115.728 163.86 115.616C164.035 115.505 164.24 115.445 164.451 115.445C164.588 115.444 164.725 115.468 164.852 115.516C164.98 115.564 165.096 115.636 165.194 115.726C165.293 115.817 165.371 115.925 165.425 116.045C165.479 116.164 165.508 116.293 165.51 116.423Z" fill="white"/>
<path d="M163.838 116.971C163.918 117.048 164.013 117.11 164.119 117.152C164.224 117.194 164.337 117.216 164.451 117.217C164.562 117.218 164.672 117.198 164.775 117.158C164.878 117.119 164.972 117.06 165.051 116.987C165.13 116.913 165.193 116.825 165.237 116.728C165.28 116.631 165.303 116.527 165.304 116.422C165.3 116.235 165.224 116.056 165.091 115.918C164.65 116.243 164.232 116.595 163.838 116.971Z" fill="#263238"/>
<path d="M169.66 116.423C169.665 116.622 169.607 116.818 169.494 116.986C169.381 117.154 169.218 117.287 169.025 117.366C168.832 117.446 168.618 117.47 168.411 117.434C168.204 117.398 168.013 117.305 167.862 117.166C167.711 117.026 167.607 116.848 167.564 116.653C167.521 116.458 167.541 116.255 167.62 116.07C167.699 115.886 167.835 115.728 168.01 115.616C168.184 115.505 168.39 115.445 168.601 115.445C168.738 115.444 168.874 115.468 169.002 115.516C169.129 115.564 169.246 115.636 169.344 115.726C169.442 115.817 169.521 115.925 169.575 116.045C169.629 116.164 169.658 116.293 169.66 116.423Z" fill="white"/>
<path d="M167.994 116.971C168.072 117.049 168.166 117.111 168.271 117.153C168.375 117.195 168.487 117.217 168.6 117.217C168.712 117.218 168.822 117.198 168.925 117.158C169.028 117.119 169.121 117.06 169.201 116.987C169.28 116.913 169.343 116.825 169.386 116.728C169.429 116.631 169.452 116.527 169.453 116.422C169.449 116.235 169.373 116.056 169.24 115.918C168.8 116.242 168.384 116.593 167.994 116.971Z" fill="#263238"/>
<path d="M173.816 116.423C173.822 116.623 173.765 116.821 173.652 116.991C173.539 117.161 173.375 117.296 173.181 117.377C172.987 117.458 172.772 117.482 172.563 117.447C172.354 117.412 172.161 117.318 172.009 117.179C171.857 117.039 171.752 116.859 171.708 116.663C171.664 116.466 171.683 116.262 171.763 116.076C171.842 115.89 171.979 115.73 172.155 115.618C172.33 115.506 172.538 115.445 172.75 115.445C173.028 115.442 173.296 115.543 173.496 115.726C173.695 115.909 173.81 116.16 173.816 116.423Z" fill="white"/>
<path d="M172.144 116.971C172.222 117.049 172.316 117.111 172.42 117.153C172.524 117.195 172.637 117.217 172.75 117.217C172.861 117.218 172.971 117.198 173.074 117.158C173.177 117.119 173.271 117.06 173.35 116.987C173.429 116.913 173.492 116.825 173.536 116.728C173.579 116.631 173.602 116.527 173.603 116.422C173.599 116.235 173.523 116.056 173.39 115.918C172.951 116.243 172.535 116.595 172.144 116.971Z" fill="#263238"/>
<path d="M177.965 116.423C177.972 116.624 177.915 116.822 177.801 116.992C177.688 117.162 177.524 117.296 177.329 117.377C177.135 117.458 176.919 117.483 176.71 117.447C176.501 117.411 176.308 117.317 176.156 117.176C176.004 117.036 175.9 116.856 175.856 116.659C175.813 116.462 175.833 116.257 175.914 116.071C175.995 115.885 176.132 115.726 176.309 115.615C176.486 115.503 176.694 115.444 176.906 115.445C177.043 115.444 177.18 115.468 177.307 115.516C177.435 115.564 177.551 115.636 177.649 115.726C177.748 115.817 177.826 115.925 177.88 116.045C177.935 116.164 177.963 116.293 177.965 116.423Z" fill="white"/>
<path d="M176.293 116.971C176.41 117.087 176.56 117.167 176.725 117.201C176.89 117.235 177.061 117.222 177.218 117.163C177.375 117.104 177.51 117.002 177.605 116.87C177.7 116.738 177.751 116.582 177.752 116.422C177.751 116.235 177.675 116.054 177.539 115.918C177.1 116.243 176.684 116.595 176.293 116.971Z" fill="#263238"/>
<path d="M182.114 116.423C182.12 116.622 182.062 116.818 181.949 116.986C181.836 117.154 181.672 117.287 181.479 117.366C181.286 117.446 181.073 117.47 180.865 117.434C180.658 117.398 180.467 117.305 180.316 117.166C180.166 117.026 180.062 116.848 180.019 116.653C179.976 116.458 179.995 116.255 180.075 116.07C180.154 115.886 180.29 115.728 180.464 115.616C180.639 115.505 180.845 115.445 181.055 115.445C181.193 115.444 181.329 115.468 181.456 115.516C181.584 115.564 181.7 115.636 181.799 115.726C181.897 115.817 181.975 115.925 182.03 116.045C182.084 116.164 182.112 116.293 182.114 116.423Z" fill="white"/>
<path d="M180.443 116.971C180.56 117.086 180.711 117.165 180.875 117.199C181.04 117.232 181.212 117.219 181.369 117.16C181.526 117.102 181.661 117 181.757 116.869C181.853 116.737 181.905 116.582 181.908 116.422C181.904 116.235 181.828 116.056 181.695 115.918C181.253 116.242 180.834 116.593 180.443 116.971Z" fill="#263238"/>
<path d="M186.264 116.423C186.269 116.622 186.212 116.818 186.099 116.986C185.985 117.154 185.822 117.287 185.629 117.366C185.436 117.446 185.222 117.47 185.015 117.434C184.808 117.398 184.617 117.305 184.466 117.166C184.315 117.026 184.212 116.848 184.169 116.653C184.126 116.458 184.145 116.255 184.224 116.07C184.304 115.886 184.439 115.728 184.614 115.616C184.789 115.505 184.994 115.445 185.205 115.445C185.342 115.444 185.479 115.468 185.606 115.516C185.734 115.564 185.85 115.636 185.948 115.726C186.047 115.817 186.125 115.925 186.179 116.045C186.233 116.164 186.262 116.293 186.264 116.423Z" fill="white"/>
<path d="M184.572 116.971C184.652 117.048 184.747 117.11 184.852 117.152C184.957 117.194 185.071 117.216 185.185 117.217C185.296 117.218 185.406 117.198 185.509 117.158C185.612 117.119 185.706 117.06 185.785 116.987C185.864 116.913 185.927 116.825 185.97 116.728C186.014 116.631 186.036 116.527 186.037 116.422C186.033 116.235 185.958 116.056 185.824 115.918C185.384 116.243 184.965 116.595 184.572 116.971Z" fill="#263238"/>
<path d="M190.413 116.423C190.418 116.622 190.361 116.818 190.248 116.986C190.135 117.154 189.971 117.287 189.778 117.366C189.585 117.446 189.371 117.47 189.164 117.434C188.957 117.398 188.766 117.305 188.615 117.166C188.464 117.026 188.361 116.848 188.318 116.653C188.275 116.458 188.294 116.255 188.373 116.07C188.453 115.886 188.588 115.728 188.763 115.616C188.938 115.505 189.143 115.445 189.354 115.445C189.491 115.444 189.628 115.468 189.755 115.516C189.883 115.564 189.999 115.636 190.097 115.726C190.196 115.817 190.274 115.925 190.328 116.045C190.383 116.164 190.411 116.293 190.413 116.423Z" fill="white"/>
<path d="M188.748 116.971C188.826 117.049 188.92 117.111 189.024 117.153C189.129 117.195 189.241 117.217 189.354 117.217C189.465 117.218 189.575 117.198 189.678 117.158C189.781 117.119 189.875 117.06 189.954 116.987C190.033 116.913 190.096 116.825 190.14 116.728C190.183 116.631 190.206 116.527 190.207 116.422C190.203 116.235 190.127 116.056 189.994 115.918C189.554 116.242 189.137 116.593 188.748 116.971Z" fill="#263238"/>
<path d="M194.563 116.423C194.569 116.623 194.512 116.821 194.4 116.991C194.287 117.161 194.122 117.296 193.928 117.377C193.734 117.458 193.519 117.482 193.31 117.447C193.101 117.412 192.908 117.318 192.756 117.179C192.604 117.039 192.499 116.859 192.455 116.663C192.411 116.466 192.43 116.262 192.51 116.076C192.589 115.89 192.726 115.73 192.902 115.618C193.078 115.506 193.285 115.445 193.497 115.445C193.775 115.442 194.043 115.543 194.243 115.726C194.442 115.909 194.557 116.16 194.563 116.423Z" fill="white"/>
<path d="M192.897 116.971C192.975 117.049 193.069 117.111 193.174 117.153C193.278 117.195 193.39 117.217 193.504 117.217C193.615 117.218 193.725 117.198 193.828 117.158C193.931 117.119 194.024 117.06 194.104 116.987C194.183 116.913 194.246 116.825 194.289 116.728C194.332 116.631 194.355 116.527 194.356 116.422C194.352 116.235 194.276 116.056 194.143 115.918C193.704 116.243 193.288 116.595 192.897 116.971Z" fill="#263238"/>
<path d="M198.718 116.423C198.724 116.622 198.666 116.818 198.553 116.986C198.44 117.154 198.277 117.287 198.084 117.366C197.891 117.446 197.677 117.47 197.47 117.434C197.263 117.398 197.071 117.305 196.921 117.166C196.77 117.026 196.666 116.848 196.623 116.653C196.58 116.458 196.6 116.255 196.679 116.07C196.758 115.886 196.894 115.728 197.068 115.616C197.243 115.505 197.449 115.445 197.659 115.445C197.797 115.444 197.933 115.468 198.061 115.516C198.188 115.564 198.304 115.636 198.403 115.726C198.501 115.817 198.58 115.925 198.634 116.045C198.688 116.164 198.717 116.293 198.718 116.423Z" fill="white"/>
<path d="M197.047 116.971C197.163 117.087 197.313 117.167 197.478 117.201C197.643 117.235 197.815 117.222 197.972 117.163C198.129 117.104 198.263 117.002 198.358 116.87C198.454 116.738 198.505 116.582 198.505 116.422C198.505 116.235 198.429 116.054 198.292 115.918C197.854 116.243 197.438 116.595 197.047 116.971Z" fill="#263238"/>
<path d="M202.868 116.423C202.873 116.622 202.816 116.818 202.703 116.986C202.589 117.154 202.426 117.287 202.233 117.366C202.04 117.446 201.826 117.47 201.619 117.434C201.412 117.398 201.221 117.305 201.07 117.166C200.919 117.026 200.816 116.848 200.773 116.653C200.73 116.458 200.749 116.255 200.828 116.07C200.908 115.886 201.043 115.728 201.218 115.616C201.393 115.505 201.598 115.445 201.809 115.445C201.946 115.444 202.083 115.468 202.21 115.516C202.338 115.564 202.454 115.636 202.552 115.726C202.651 115.817 202.729 115.925 202.783 116.045C202.837 116.164 202.866 116.293 202.868 116.423Z" fill="white"/>
<path d="M201.223 116.971C201.34 117.086 201.491 117.165 201.656 117.199C201.821 117.232 201.992 117.219 202.149 117.16C202.306 117.102 202.441 117 202.537 116.869C202.633 116.737 202.686 116.582 202.688 116.422C202.684 116.235 202.609 116.056 202.475 115.918C202.034 116.243 201.616 116.595 201.223 116.971Z" fill="#263238"/>
<path d="M207.017 116.423C207.023 116.622 206.965 116.818 206.852 116.986C206.739 117.154 206.575 117.287 206.382 117.366C206.189 117.446 205.976 117.47 205.769 117.434C205.561 117.398 205.37 117.305 205.219 117.166C205.069 117.026 204.965 116.848 204.922 116.653C204.879 116.458 204.898 116.255 204.978 116.07C205.057 115.886 205.193 115.728 205.367 115.616C205.542 115.505 205.748 115.445 205.958 115.445C206.096 115.444 206.232 115.468 206.36 115.516C206.487 115.564 206.603 115.636 206.702 115.726C206.8 115.817 206.878 115.925 206.933 116.045C206.987 116.164 207.016 116.293 207.017 116.423Z" fill="white"/>
<path d="M205.345 116.971C205.425 117.048 205.52 117.11 205.626 117.152C205.731 117.194 205.844 117.216 205.958 117.217C206.069 117.218 206.179 117.198 206.282 117.158C206.385 117.119 206.479 117.06 206.558 116.987C206.637 116.913 206.7 116.825 206.744 116.728C206.787 116.631 206.81 116.527 206.811 116.422C206.807 116.235 206.731 116.056 206.598 115.918C206.157 116.243 205.739 116.595 205.345 116.971Z" fill="#263238"/>
<path d="M145.549 105.326H113.44C112.742 105.326 112.072 105.068 111.574 104.606C111.076 104.144 110.789 103.515 110.775 102.855V88.8336C110.775 79.2695 119.174 71.4834 129.498 71.4834C139.821 71.4834 148.227 79.2695 148.227 88.8336V102.855C148.213 103.517 147.924 104.148 147.423 104.61C146.922 105.072 146.249 105.33 145.549 105.326ZM116.104 100.409H142.878V88.8336C142.878 85.4727 141.468 82.2495 138.957 79.873C136.447 77.4965 133.042 76.1614 129.491 76.1614C125.94 76.1614 122.535 77.4965 120.025 79.873C117.514 82.2495 116.104 85.4727 116.104 88.8336V100.409Z" fill="white" stroke="#263238" stroke-linecap="round" stroke-linejoin="round"/>
<path d="M149.665 98.5674H108.784V130.582H149.665V98.5674Z" fill="#188255" stroke="#263238" stroke-linecap="round" stroke-linejoin="round"/>
<path d="M133.481 111.864C133.436 110.775 132.947 109.744 132.117 108.988C131.287 108.232 130.18 107.81 129.028 107.81C127.876 107.81 126.769 108.232 125.939 108.988C125.109 109.744 124.62 110.775 124.576 111.864C124.579 112.614 124.799 113.348 125.211 113.988C125.623 114.628 126.212 115.149 126.913 115.496L126.168 122.765H131.889L131.143 115.496C131.845 115.149 132.433 114.628 132.845 113.988C133.257 113.348 133.477 112.614 133.481 111.864Z" fill="#263238" stroke="#263238" stroke-linecap="round" stroke-linejoin="round"/>
<path d="M221.537 241C239.009 241 253.174 238.037 253.174 234.381C253.174 230.725 239.009 227.761 221.537 227.761C204.065 227.761 189.9 230.725 189.9 234.381C189.9 238.037 204.065 241 221.537 241Z" fill="#188255"/>
<path opacity="0.5" d="M221.537 241C239.009 241 253.174 238.037 253.174 234.381C253.174 230.725 239.009 227.761 221.537 227.761C204.065 227.761 189.9 230.725 189.9 234.381C189.9 238.037 204.065 241 221.537 241Z" fill="white"/>
<path d="M204.993 227.609C204.993 227.609 197.32 231.694 197.32 233.661C197.32 235.628 202.056 234.418 205.153 233.031C208.25 231.644 210.707 230.61 210.707 227.886C210.707 225.163 204.993 227.609 204.993 227.609Z" fill="#188255" stroke="#263238" stroke-miterlimit="10"/>
<path d="M241.724 227.609C241.724 227.609 249.397 231.694 249.397 233.661C249.397 235.628 244.662 234.418 241.564 233.031C238.467 231.644 236.01 230.61 236.01 227.886C236.01 225.163 241.724 227.609 241.724 227.609Z" fill="#188255" stroke="#263238" stroke-miterlimit="10"/>
<path d="M208.096 160.736L204.826 228.391C205.278 228.743 205.801 229.005 206.363 229.161C206.925 229.317 207.515 229.364 208.096 229.298C209.111 229.156 210.038 228.673 210.707 227.937L221.81 172.715H224.094L235.856 228.971C236.559 229.339 237.339 229.554 238.141 229.601C239.28 229.601 241.078 228.239 241.078 228.239L237.322 160.78L208.096 160.736Z" fill="#263238" stroke="#263238" stroke-miterlimit="10"/>
<path d="M219.525 119.738L204.666 125.482L208.583 158.164H236.989L242.217 124.271L226.053 119.436L219.525 119.738Z" fill="#188255" stroke="#263238" stroke-miterlimit="10"/>
<path d="M221.157 124.422L222.949 127.146L220.012 150.599L223.602 155.592L226.705 150.145L224.254 126.843L226.379 123.672L223.275 122.386L221.157 124.422Z" fill="#263238" stroke="#263238" stroke-miterlimit="10"/>
<path d="M223.275 122.386L220.891 126.25L216.641 120.891L219.019 118.212L223.275 122.386Z" fill="#188255" stroke="#263238" stroke-miterlimit="10"/>
<path d="M223.275 122.385L226.166 126.641L229.649 120.576L227.611 118.13L223.275 122.385Z" fill="#188255" stroke="#263238" stroke-miterlimit="10"/>
<path d="M217.507 131.534H207.497V134.762L212.505 136.578L217.507 134.56V131.534Z" fill="#188255" stroke="#263238" stroke-miterlimit="10"/>
<path d="M237.535 131.534H227.525V134.762L232.527 136.578L237.535 134.56V131.534Z" fill="#188255" stroke="#263238" stroke-miterlimit="10"/>
<path d="M237.322 157.56H208.096V160.737H237.322V157.56Z" fill="#263238" stroke="#263238" stroke-miterlimit="10"/>
<path d="M207.604 160.131L202.542 162.098C202.459 163.467 202.568 164.841 202.868 166.183C203.361 167.999 204.014 171.933 204.5 172.69C204.986 173.446 207.444 174.959 207.77 174.505C208.096 174.051 209.728 160.736 209.728 160.736L207.604 160.131Z" fill="#263238" stroke="#263238" stroke-miterlimit="10"/>
<path d="M219.019 112.696V118.213L223.275 122.386L227.611 118.131V112.614L219.019 112.696Z" fill="white" stroke="#263238" stroke-miterlimit="10"/>
<path d="M216.049 107.577C216.049 107.577 215.283 105.919 214.77 106.946C214.257 107.974 214.857 109.544 215.622 110.174C216.186 110.561 216.884 110.73 217.574 110.647L217.148 108.283L216.049 107.577Z" fill="white" stroke="#263238" stroke-miterlimit="10"/>
<path d="M229.902 107.577C229.902 107.577 230.668 105.919 231.181 106.946C231.694 107.974 231.094 109.544 230.329 110.174C229.763 110.561 229.063 110.73 228.37 110.647L228.797 108.283L229.902 107.577Z" fill="white" stroke="#263238" stroke-miterlimit="10"/>
<path d="M217.494 96.625C217.494 96.625 213.917 98.0436 213.917 100.408C213.917 102.772 214.43 105.451 215.283 106.479C216.135 107.507 216.808 108.213 216.808 108.213L216.981 104.821L219.446 100.805C219.446 100.805 223.528 103.245 225.566 103.245C226.706 103.254 227.844 103.176 228.97 103.012L229.736 107.028L230.841 104.115V101.435C230.841 101.435 232.88 99.6197 232.453 98.4408C232.027 97.2618 225.127 93.5547 220.891 94.5004C216.655 95.4461 217.494 96.625 217.494 96.625Z" fill="#263238" stroke="#263238" stroke-miterlimit="10"/>
<path d="M215.789 104.582C215.789 104.582 216.808 110.489 217.661 112.065C218.782 113.814 220.156 115.406 221.743 116.794C222.336 117.185 224.547 116.869 225.4 116.869C226.252 116.869 228.73 112.141 229.136 111.277C229.543 110.414 229.802 103.006 229.802 103.006L229.056 101.669C229.056 101.669 225.4 102.539 222.509 101.436C220.94 100.904 219.537 100.009 218.427 98.832C218.427 98.832 218.173 101.511 217.148 103.088C216.122 104.664 215.789 104.582 215.789 104.582Z" fill="white" stroke="#263238" stroke-miterlimit="10"/>
<path d="M222.336 105.213C221.308 104.704 220.166 104.434 219.006 104.425C218.01 104.387 217.019 104.575 216.115 104.973C216.115 104.973 216.115 107.653 217.055 108.68C217.994 109.708 220.711 109.386 221.477 108.523C222.243 107.659 222.336 105.213 222.336 105.213Z" fill="#263238" stroke="#263238" stroke-miterlimit="10"/>
<path d="M223.529 105.213C224.557 104.704 225.698 104.434 226.859 104.425C227.855 104.387 228.846 104.575 229.749 104.973C229.749 104.973 229.749 107.653 228.81 108.68C227.871 109.708 225.154 109.386 224.394 108.523C223.635 107.659 223.529 105.213 223.529 105.213Z" fill="#263238" stroke="#263238" stroke-miterlimit="10"/>
<path d="M222.336 105.212H223.528" stroke="#263238" stroke-miterlimit="10"/>
<path d="M204.826 155.139L210.214 154.987L214.297 158.467C214.291 158.912 214.118 159.341 213.811 159.678C213.318 160.132 212.013 159.829 212.013 159.829C212.013 159.829 211.034 162.099 209.235 162.099C207.437 162.099 202.575 158.947 202.575 158.947L204.826 155.139Z" fill="white" stroke="#263238" stroke-miterlimit="10"/>
<path d="M204.666 125.481L186.543 148.027L202.542 158.921L204.826 155.138L199.931 146.211L206.624 140.461L204.666 125.481Z" fill="#188255" stroke="#263238" stroke-miterlimit="10"/>
<path d="M203.521 152.565L200.75 157.256" stroke="#263238" stroke-linecap="round" stroke-linejoin="round"/>
<path d="M199.931 146.211L197.806 141.066" stroke="#263238" stroke-linecap="round" stroke-linejoin="round"/>
<path d="M242.217 155.139L236.829 154.987L232.746 158.467C232.755 158.913 232.929 159.342 233.239 159.678C233.725 160.132 235.031 159.829 235.031 159.829C235.031 159.829 236.01 162.099 237.808 162.099C239.607 162.099 244.502 158.947 244.502 158.947L242.217 155.139Z" fill="white" stroke="#263238" stroke-miterlimit="10"/>
<path d="M242.217 124.271L260.5 148.026L244.502 158.92L242.217 155.138L247.113 146.21L239.44 140.309L242.217 124.271Z" fill="#188255" stroke="#263238" stroke-miterlimit="10"/>
<path d="M243.523 152.565L246.293 157.256" stroke="#263238" stroke-linecap="round" stroke-linejoin="round"/>
<path d="M247.113 146.211L249.237 141.066" stroke="#263238" stroke-linecap="round" stroke-linejoin="round"/>
<path d="M36.3793 241C53.8518 241 68.016 238.037 68.016 234.381C68.016 230.725 53.8518 227.761 36.3793 227.761C18.9069 227.761 4.74268 230.725 4.74268 234.381C4.74268 238.037 18.9069 241 36.3793 241Z" fill="#188255"/>
<path opacity="0.5" d="M36.3793 241C53.8518 241 68.016 238.037 68.016 234.381C68.016 230.725 53.8518 227.761 36.3793 227.761C18.9069 227.761 4.74268 230.725 4.74268 234.381C4.74268 238.037 18.9069 241 36.3793 241Z" fill="white"/>
<path d="M19.9415 227.609C19.9415 227.609 12.2688 231.694 12.2688 233.661C12.2688 235.628 17.0043 234.418 20.108 233.031C23.2117 231.644 25.6561 230.61 25.6561 227.886C25.6561 225.163 19.9415 227.609 19.9415 227.609Z" fill="#188255" stroke="#263238" stroke-miterlimit="10"/>
<path d="M56.6933 227.609C56.6933 227.609 64.3661 231.694 64.3661 233.661C64.3661 235.628 59.6372 234.418 56.5335 233.031C53.4298 231.644 50.9788 230.61 50.9788 227.886C50.9788 225.163 56.6933 227.609 56.6933 227.609Z" fill="#188255" stroke="#263238" stroke-miterlimit="10"/>
<path d="M23.0453 160.736L19.7817 228.391C20.2326 228.743 20.7543 229.005 21.3152 229.161C21.8762 229.317 22.4647 229.364 23.0453 229.298C24.0602 229.156 24.987 228.673 25.6562 227.937L36.759 172.715H39.0435L50.799 228.996C51.5016 229.364 52.282 229.579 53.0835 229.626C54.2291 229.626 56.0207 228.265 56.0207 228.265L52.2643 160.806L23.0453 160.736Z" fill="#263238" stroke="#263238" stroke-miterlimit="10"/>
<path d="M34.4742 119.738L19.615 125.482L23.5313 158.164H51.9443L57.166 124.271L41.0014 119.436L34.4742 119.738Z" fill="#188255" stroke="#263238" stroke-miterlimit="10"/>
<path d="M52.2708 157.56H23.0452V160.737H52.2708V157.56Z" fill="#263238" stroke="#263238" stroke-miterlimit="10"/>
<path d="M22.5526 160.131L17.4907 162.098C17.4077 163.467 17.5174 164.841 17.8171 166.183C18.3099 167.999 18.9626 171.933 19.4555 172.69C19.9484 173.446 22.3927 174.959 22.7191 174.505C23.0454 174.051 24.6772 160.736 24.6772 160.736L22.5526 160.131Z" fill="#263238" stroke="#263238" stroke-miterlimit="10"/>
<path d="M33.9749 112.696V118.213L38.2242 122.386L42.56 118.131V112.614L33.9749 112.696Z" fill="white" stroke="#263238" stroke-miterlimit="10"/>
<path d="M30.9977 107.577C30.9977 107.577 30.2318 105.919 29.7189 106.946C29.2061 107.974 29.8055 109.544 30.5714 110.174C31.1371 110.561 31.8371 110.73 32.5296 110.647L32.1033 108.283L30.9977 107.577Z" fill="white" stroke="#263238" stroke-miterlimit="10"/>
<path d="M44.8511 107.577C44.8511 107.577 45.6171 105.919 46.1299 106.946C46.6428 107.974 46.0433 109.544 45.2774 110.174C44.7141 110.561 44.0163 110.73 43.3259 110.647L43.7455 108.283L44.8511 107.577Z" fill="white" stroke="#263238" stroke-miterlimit="10"/>
<path d="M32.4427 96.625C32.4427 96.625 28.8728 98.0436 28.8728 100.408C28.8728 102.772 29.379 105.451 30.2049 106.479C31.0308 107.507 31.7367 108.213 31.7367 108.213L31.9033 104.821L34.3676 100.805C34.3676 100.805 38.4504 103.245 40.4884 103.245C41.6277 103.254 42.7659 103.176 43.8919 103.012L44.6578 107.028L45.7634 104.115V101.435C45.7634 101.435 47.8015 99.6197 47.3752 98.4408C46.949 97.2618 40.0489 93.5547 35.8129 94.5004C31.5769 95.4461 32.4427 96.625 32.4427 96.625Z" fill="#263238" stroke="#263238" stroke-miterlimit="10"/>
<path d="M30.718 104.582C30.718 104.582 31.7437 110.489 32.5896 112.065C33.7242 113.818 35.1118 115.411 36.7123 116.8C37.3051 117.191 39.5163 116.876 40.3689 116.876C41.2214 116.876 43.699 112.147 44.112 111.284C44.5249 110.42 44.778 103.012 44.778 103.012L44.0387 101.669C44.0387 101.669 40.3822 102.539 37.4916 101.436C35.9225 100.904 34.519 100.009 33.4088 98.832C33.4088 98.832 33.1557 101.511 32.1367 103.088C31.1176 104.664 30.718 104.582 30.718 104.582Z" fill="white" stroke="#263238" stroke-miterlimit="10"/>
<path d="M37.2852 105.213C36.2568 104.704 35.1154 104.434 33.955 104.425C32.9591 104.387 31.9682 104.575 31.0645 104.973C31.0645 104.973 31.0645 107.653 31.9969 108.68C32.9294 109.708 35.6534 109.386 36.4194 108.523C37.1853 107.659 37.2852 105.213 37.2852 105.213Z" fill="#263238" stroke="#263238" stroke-miterlimit="10"/>
<path d="M38.4773 105.213C39.5058 104.704 40.6471 104.434 41.8075 104.425C42.8034 104.387 43.7943 104.575 44.6981 104.973C44.6981 104.973 44.6981 107.653 43.759 108.68C42.8198 109.708 40.1091 109.386 39.3431 108.523C38.5772 107.659 38.4773 105.213 38.4773 105.213Z" fill="#263238" stroke="#263238" stroke-miterlimit="10"/>
<path d="M37.2852 105.212H38.4774" stroke="#263238" stroke-miterlimit="10"/>
<path d="M36.106 124.422L37.8977 127.146L34.9604 150.599L38.557 155.592L41.6541 150.145L39.2097 126.843L41.3277 123.672L38.224 122.386L36.106 124.422Z" fill="#263238" stroke="#263238" stroke-miterlimit="10"/>
<path d="M38.224 122.386L35.8396 126.25L31.5903 120.891L33.9747 118.212L38.224 122.386Z" fill="#188255" stroke="#263238" stroke-miterlimit="10"/>
<path d="M38.2241 122.385L41.1147 126.641L44.5981 120.576L42.56 118.13L38.2241 122.385Z" fill="#188255" stroke="#263238" stroke-miterlimit="10"/>
<path d="M19.6152 125.481L1.49243 148.027L17.4906 158.921L19.7817 155.138L14.8797 146.211L21.5734 140.461L19.6152 125.481Z" fill="#188255" stroke="#263238" stroke-miterlimit="10"/>
<path d="M19.7815 155.139L25.1631 154.987L29.2459 158.467C29.2394 158.912 29.0672 159.341 28.7597 159.678C28.2668 160.132 26.9614 159.829 26.9614 159.829C26.9614 159.829 25.9823 162.099 24.184 162.099C22.3857 162.099 17.5237 158.947 17.5237 158.947L19.7815 155.139Z" fill="white" stroke="#263238" stroke-miterlimit="10"/>
<path d="M18.4763 152.565L15.699 157.256" stroke="#263238" stroke-linecap="round" stroke-linejoin="round"/>
<path d="M14.8797 146.211L12.7617 141.066" stroke="#263238" stroke-linecap="round" stroke-linejoin="round"/>
<path d="M57.166 124.271L75.4487 148.026L59.4505 158.92L57.166 155.138L62.0614 146.21L54.3887 140.309L57.166 124.271Z" fill="#188255" stroke="#263238" stroke-miterlimit="10"/>
<path d="M57.1663 155.139L51.7781 154.987L47.6953 158.467C47.7037 158.913 47.8783 159.342 48.1882 159.678C48.6744 160.132 49.9798 159.829 49.9798 159.829C49.9798 159.829 50.9589 162.099 52.7572 162.099C54.5555 162.099 59.4175 158.947 59.4175 158.947L57.1663 155.139Z" fill="white" stroke="#263238" stroke-miterlimit="10"/>
<path d="M58.4717 152.565L61.249 157.256" stroke="#263238" stroke-linecap="round" stroke-linejoin="round"/>
<path d="M62.0615 146.211L64.1862 141.066" stroke="#263238" stroke-linecap="round" stroke-linejoin="round"/>
<path d="M32.4563 131.534H22.4458V134.762L27.4544 136.578L32.4563 134.56V131.534Z" fill="#188255" stroke="#263238" stroke-miterlimit="10"/>
<path d="M52.4841 131.534H42.4736V134.762L47.4822 136.578L52.4841 134.56V131.534Z" fill="#188255" stroke="#263238" stroke-miterlimit="10"/>
</svg>
