<svg width="835" height="444" viewBox="0 0 835 444" fill="none" xmlns="http://www.w3.org/2000/svg">
<path d="M42.1038 404.454L266.086 213.196L361.449 298.311L549.561 211.285L766.552 383.414" stroke="#263238" stroke-linecap="round" stroke-linejoin="round"/>
<path d="M216.517 255.409L235.54 248.843L245.052 259.242L263.081 245.554L270.593 251.032L281.098 239.532L308.13 266.352L312.638 255.953" stroke="#263238" stroke-linecap="round" stroke-linejoin="round"/>
<path d="M470.843 248.287L501.377 242.821L505.884 257.041L521.406 247.743L531.414 260.33L563.462 241.177L579.48 251.032L587.489 242.821" stroke="#263238" stroke-linecap="round" stroke-linejoin="round"/>
<path d="M701.947 441.976H811.518C809.412 428.275 800.8 430.694 799.688 409.46C799.108 398.771 808.785 385.543 807.969 371.504C807.271 359.932 796.139 348.07 795.252 334.841C794.471 322.894 803.994 309.654 803.071 296.776C802.196 284.611 790.886 272.931 789.881 260.294C788.899 247.949 798.233 234.563 797.133 222.096C796.032 209.629 784.522 198.166 783.303 185.82C782.049 173.172 791.064 159.569 789.691 147.465C788.224 134.623 776.371 123.535 774.762 111.709C772.928 98.565 781.351 84.49 779.387 73.172C777.021 59.2421 764.292 49.1574 761.642 38.8793C756.661 19.7257 757.288 1.2734 751.409 0.0642053C745.139 -1.21754 743.707 16.8841 738.963 37.1138C736.597 47.2711 724.164 57.5613 722.117 71.5033C720.473 82.7971 729.215 96.5215 727.808 109.641C726.518 121.395 714.96 132.688 713.836 145.457C712.783 157.465 722.117 170.717 721.242 183.269C720.343 195.482 709.128 207.126 708.359 219.545C707.59 231.963 717.255 244.938 716.64 257.175C715.965 269.726 704.952 281.576 704.384 293.644C703.792 306.413 713.647 319.291 713.174 331.129C712.641 344.261 701.781 356.28 701.343 367.755C700.858 381.685 710.808 394.539 710.559 405.144C709.897 428.118 699.581 423.39 699.214 441.915L701.947 441.976Z" fill="#92E3A9"/>
<path opacity="0.3" d="M701.947 441.976H811.518C809.412 428.275 800.8 430.694 799.688 409.46C799.108 398.771 808.785 385.543 807.969 371.504C807.271 359.932 796.139 348.07 795.252 334.841C794.471 322.894 803.994 309.654 803.071 296.776C802.196 284.611 790.886 272.931 789.881 260.294C788.899 247.949 798.233 234.563 797.133 222.096C796.032 209.629 784.522 198.166 783.303 185.82C782.049 173.172 791.064 159.569 789.691 147.465C788.224 134.623 776.371 123.535 774.762 111.709C772.928 98.565 781.351 84.49 779.387 73.172C777.021 59.2421 764.292 49.1574 761.642 38.8793C756.661 19.7257 757.288 1.2734 751.409 0.0642053C745.139 -1.21754 743.707 16.8841 738.963 37.1138C736.597 47.2711 724.164 57.5613 722.117 71.5033C720.473 82.7971 729.215 96.5215 727.808 109.641C726.518 121.395 714.96 132.688 713.836 145.457C712.783 157.465 722.117 170.717 721.242 183.269C720.343 195.482 709.128 207.126 708.359 219.545C707.59 231.963 717.255 244.938 716.64 257.175C715.965 269.726 704.952 281.576 704.384 293.644C703.792 306.413 713.647 319.291 713.174 331.129C712.641 344.261 701.781 356.28 701.343 367.755C700.858 381.685 710.808 394.539 710.559 405.144C709.897 428.118 699.581 423.39 699.214 441.915L701.947 441.976Z" fill="white"/>
<path d="M749.007 36.8115V436.788" stroke="#263238" stroke-linecap="round" stroke-linejoin="round"/>
<path d="M766.114 78.7452L748.274 94.4889L733.675 74.5977" stroke="#263238" stroke-linecap="round" stroke-linejoin="round"/>
<path d="M766.114 148.36L748.274 164.116L733.675 144.225" stroke="#263238" stroke-linecap="round" stroke-linejoin="round"/>
<path d="M766.114 213.838L748.274 229.582L733.675 209.69" stroke="#263238" stroke-linecap="round" stroke-linejoin="round"/>
<path d="M766.114 291.746L748.274 307.49L733.675 287.599" stroke="#263238" stroke-linecap="round" stroke-linejoin="round"/>
<path d="M766.114 370.477L748.274 386.22L733.675 366.329" stroke="#263238" stroke-linecap="round" stroke-linejoin="round"/>
<path d="M598.669 441.976H680.522C678.949 431.746 672.525 433.512 671.673 417.684C671.235 409.703 678.464 399.824 677.849 389.328C677.328 380.682 668.988 371.819 668.384 361.94C667.793 353.016 674.915 343.113 674.217 333.5C673.566 324.406 665.119 315.688 664.374 306.244C663.64 297.03 670.608 287.018 669.792 277.707C668.976 268.397 660.328 259.824 659.453 250.646C658.518 241.202 665.261 231.033 664.185 221.988C663.096 212.399 654.235 204.116 653.04 195.277C651.704 185.434 657.974 174.926 656.507 166.426C654.709 156.014 645.233 148.481 643.233 140.803C639.519 126.498 639.98 112.701 635.591 111.782C630.859 110.827 629.841 124.346 626.292 139.461C624.506 147.042 615.231 154.733 613.717 165.156C612.534 173.62 619.029 183.838 617.952 193.644C616.994 202.423 608.37 210.863 607.53 220.404C606.737 229.376 613.74 239.267 613.054 248.651C612.38 257.768 604.004 266.474 603.425 275.736C602.845 284.999 610.073 294.697 609.576 303.85C609.068 313.221 600.846 322.073 600.431 331.093C599.982 340.634 607.352 350.259 606.985 359.11C606.595 368.917 598.479 377.901 598.184 386.474C597.817 396.873 605.282 406.486 605.069 414.407C604.56 431.601 596.859 428.034 596.587 441.88L598.669 441.976Z" fill="#92E3A9"/>
<path opacity="0.3" d="M598.669 441.976H680.522C678.949 431.746 672.525 433.512 671.673 417.684C671.235 409.703 678.464 399.824 677.849 389.328C677.328 380.682 668.988 371.819 668.384 361.94C667.793 353.016 674.915 343.113 674.217 333.5C673.566 324.406 665.119 315.688 664.374 306.244C663.64 297.03 670.608 287.018 669.792 277.707C668.976 268.397 660.328 259.824 659.453 250.646C658.518 241.202 665.261 231.033 664.185 221.988C663.096 212.399 654.235 204.116 653.04 195.277C651.704 185.434 657.974 174.926 656.507 166.426C654.709 156.014 645.233 148.481 643.233 140.803C639.519 126.498 639.98 112.701 635.591 111.782C630.859 110.827 629.841 124.346 626.292 139.461C624.506 147.042 615.231 154.733 613.717 165.156C612.534 173.62 619.029 183.838 617.952 193.644C616.994 202.423 608.37 210.863 607.53 220.404C606.737 229.376 613.74 239.267 613.054 248.651C612.38 257.768 604.004 266.474 603.425 275.736C602.845 284.999 610.073 294.697 609.576 303.85C609.068 313.221 600.846 322.073 600.431 331.093C599.982 340.634 607.352 350.259 606.985 359.11C606.595 368.917 598.479 377.901 598.184 386.474C597.817 396.873 605.282 406.486 605.069 414.407C604.56 431.601 596.859 428.034 596.587 441.88L598.669 441.976Z" fill="white"/>
<path d="M633.805 139.278V438.094" stroke="#263238" stroke-linecap="round" stroke-linejoin="round"/>
<path d="M646.593 170.608L633.261 182.374L622.353 167.513" stroke="#263238" stroke-linecap="round" stroke-linejoin="round"/>
<path d="M646.593 222.616L633.261 234.381L622.353 219.521" stroke="#263238" stroke-linecap="round" stroke-linejoin="round"/>
<path d="M646.593 271.528L633.261 283.294L622.353 268.433" stroke="#263238" stroke-linecap="round" stroke-linejoin="round"/>
<path d="M646.593 329.738L633.261 341.504L622.353 326.643" stroke="#263238" stroke-linecap="round" stroke-linejoin="round"/>
<path d="M646.593 388.554L633.261 400.319L622.353 385.458" stroke="#263238" stroke-linecap="round" stroke-linejoin="round"/>
<path d="M57.5067 441.976H117.048C115.865 434.54 111.228 435.846 110.601 424.31C110.293 418.506 115.546 411.323 115.096 403.681C114.718 397.405 108.661 390.96 108.187 383.766C107.761 377.284 112.919 370.078 112.434 363.088C111.961 356.474 105.81 350.138 105.265 343.258C104.745 336.559 109.808 329.279 109.205 322.508C108.601 315.736 102.355 309.509 101.693 302.822C101.03 296.135 105.916 288.566 105.171 281.988C104.366 275.011 97.9306 268.989 97.0551 262.556C96.0851 255.398 100.604 247.756 99.575 241.577C98.2737 234.007 91.3766 228.529 89.9215 222.943C87.2242 212.532 87.5555 202.508 84.3731 201.855C80.966 201.153 80.1852 210.984 77.6062 221.976C76.3049 227.502 69.5617 233.088 68.4496 240.67C67.5624 246.8 72.3181 254.261 71.5373 261.395C70.8394 267.768 64.5693 273.91 63.9542 280.851C63.3745 287.369 68.4733 294.576 67.9764 301.408C67.4914 308.034 61.3988 314.37 60.9729 321.105C60.5471 327.84 65.8115 334.902 65.4448 341.553C65.078 348.203 59.1038 354.854 58.7962 361.371C58.4649 368.3 63.824 375.301 63.5283 381.734C63.2443 388.868 57.3411 395.41 57.1281 401.637C56.856 409.207 62.2979 416.148 62.1323 421.952C61.7656 434.455 56.2172 431.867 55.9688 441.928L57.5067 441.976Z" fill="#92E3A9"/>
<path opacity="0.3" d="M57.5067 441.976H117.048C115.865 434.54 111.228 435.846 110.601 424.31C110.293 418.506 115.546 411.323 115.096 403.681C114.718 397.405 108.661 390.96 108.187 383.766C107.761 377.284 112.919 370.078 112.434 363.088C111.961 356.474 105.81 350.138 105.265 343.258C104.745 336.559 109.808 329.279 109.205 322.508C108.601 315.736 102.355 309.509 101.693 302.822C101.03 296.135 105.916 288.566 105.171 281.988C104.366 275.011 97.9306 268.989 97.0551 262.556C96.0851 255.398 100.604 247.756 99.575 241.577C98.2737 234.007 91.3766 228.529 89.9215 222.943C87.2242 212.532 87.5555 202.508 84.3731 201.855C80.966 201.153 80.1852 210.984 77.6062 221.976C76.3049 227.502 69.5617 233.088 68.4496 240.67C67.5624 246.8 72.3181 254.261 71.5373 261.395C70.8394 267.768 64.5693 273.91 63.9542 280.851C63.3745 287.369 68.4733 294.576 67.9764 301.408C67.4914 308.034 61.3988 314.37 60.9729 321.105C60.5471 327.84 65.8115 334.902 65.4448 341.553C65.078 348.203 59.1038 354.854 58.7962 361.371C58.4649 368.3 63.824 375.301 63.5283 381.734C63.2443 388.868 57.3411 395.41 57.1281 401.637C56.856 409.207 62.2979 416.148 62.1323 421.952C61.7656 434.455 56.2172 431.867 55.9688 441.928L57.5067 441.976Z" fill="white"/>
<path d="M83.0718 221.83V439.146" stroke="#263238" stroke-linecap="round" stroke-linejoin="round"/>
<path d="M92.3589 244.611L82.6699 253.16L74.7437 242.362" stroke="#263238" stroke-linecap="round" stroke-linejoin="round"/>
<path d="M92.3589 282.435L82.6699 290.996L74.7437 280.186" stroke="#263238" stroke-linecap="round" stroke-linejoin="round"/>
<path d="M92.3589 318.01L82.6699 326.571L74.7437 315.761" stroke="#263238" stroke-linecap="round" stroke-linejoin="round"/>
<path d="M92.3589 360.343L82.6699 368.892L74.7437 358.094" stroke="#263238" stroke-linecap="round" stroke-linejoin="round"/>
<path d="M92.3589 403.124L82.6699 411.673L74.7437 400.863" stroke="#263238" stroke-linecap="round" stroke-linejoin="round"/>
<path d="M171.16 101.986H179.583" stroke="#263238" stroke-linecap="round" stroke-linejoin="round"/>
<path d="M653.171 101.986H684.461C684.461 101.986 685.538 98.7217 681.622 96.5451C677.706 94.3686 675.932 96.1824 674.524 94.3565C673.116 92.5306 678.44 87.8268 667.769 83.0989C667.769 83.0989 667.059 72.9296 652.484 72.5668C646.203 72.4096 643.351 74.2839 641.837 76.666" stroke="#263238" stroke-linecap="round" stroke-linejoin="round"/>
<path d="M643.623 101.986H648.829" stroke="#263238" stroke-linecap="round" stroke-linejoin="round"/>
<path d="M639.921 81.6367C639.707 83.0565 638.991 84.347 637.91 85.2643C633.994 87.8157 632.929 83.8133 629.013 86.3526C625.097 88.8919 626.884 93.9826 623.69 94.7202C620.496 95.4578 616.225 91.4433 612.309 93.9826C608.393 96.5219 608.405 98.7105 606.63 98.7105C604.856 98.7105 601.295 97.2595 599.166 98.7105C597.036 100.162 594.54 101.975 594.54 101.975H634.514" stroke="#263238" stroke-linecap="round" stroke-linejoin="round"/>
<path d="M489.523 202.193H520.814C520.814 202.193 521.878 198.928 517.975 196.751C514.071 194.575 512.284 196.388 510.876 194.563C509.469 192.737 514.78 188.021 504.121 183.305C504.121 183.305 503.411 173.136 488.837 172.773C482.555 172.616 479.704 174.49 478.189 176.872" stroke="#263238" stroke-linecap="round" stroke-linejoin="round"/>
<path d="M479.976 202.192H485.181" stroke="#263238" stroke-linecap="round" stroke-linejoin="round"/>
<path d="M476.273 181.891C476.052 183.311 475.333 184.6 474.25 185.518C470.346 188.058 469.281 184.067 465.366 186.606C461.45 189.146 463.236 194.236 460.03 194.962C456.824 195.688 452.577 191.697 448.661 194.236C444.746 196.776 444.757 198.964 442.971 198.964C441.185 198.964 437.647 197.513 435.506 198.964C433.365 200.415 430.892 202.229 430.892 202.229H470.855" stroke="#263238" stroke-linecap="round" stroke-linejoin="round"/>
<path d="M230.252 441.974H235.978V418.358C236.093 413.929 237.896 409.722 241.001 406.631C244.107 403.54 248.27 401.811 252.605 401.811C256.94 401.811 261.103 403.54 264.209 406.631C267.314 409.722 269.117 413.929 269.232 418.358V441.974H274.958V418.358C274.824 412.39 272.41 406.712 268.232 402.539C264.055 398.366 258.446 396.03 252.605 396.03C246.764 396.03 241.155 398.366 236.978 402.539C232.8 406.712 230.386 412.39 230.252 418.358V441.974Z" fill="#BDBDBD" stroke="#263238" stroke-miterlimit="10"/>
<path d="M181.535 431.576H219.013L219.013 153.087H181.535L181.535 431.576Z" fill="#919191" stroke="#263238" stroke-miterlimit="10"/>
<path d="M181.535 431.576H197.932L197.932 153.087H181.535L181.535 431.576Z" fill="white" stroke="#263238" stroke-miterlimit="10"/>
<path d="M181.535 172.725H219.013V150.681H181.535V172.725Z" fill="#263238" stroke="#263238" stroke-miterlimit="10"/>
<path d="M181.535 172.725H197.932V150.681H181.535V172.725Z" fill="#263238" stroke="#263238" stroke-miterlimit="10"/>
<path d="M174.141 432.035H181.582L181.582 289.641H174.141L174.141 432.035Z" fill="#BDBDBD" stroke="#263238" stroke-miterlimit="10"/>
<path d="M160.051 432.035H177.666L177.666 289.641H160.051L160.051 432.035Z" fill="white" stroke="#263238" stroke-miterlimit="10"/>
<path d="M132.321 432.035H176.14V334.973H132.321V432.035Z" fill="#92E3A9" stroke="#263238" stroke-linecap="round" stroke-linejoin="round"/>
<path d="M132.321 394.574H176.14V334.973H132.321V394.574Z" fill="#263238" stroke="#263238" stroke-miterlimit="10"/>
<path d="M132.321 355.965H176.14V334.961H132.321V355.965Z" fill="#BDBDBD" stroke="#263238" stroke-miterlimit="10"/>
<path d="M132.321 365.312H176.14V355.771H132.321V365.312Z" fill="white" stroke="#263238" stroke-miterlimit="10"/>
<path d="M126.051 432.035H133.492L133.492 289.641H126.051L126.051 432.035Z" fill="#BDBDBD" stroke="#263238" stroke-miterlimit="10"/>
<path d="M111.961 432.035H129.576L129.576 289.641H111.961L111.961 432.035Z" fill="white" stroke="#263238" stroke-miterlimit="10"/>
<path d="M105.171 291.854H187.048V283.172H105.171V291.854Z" fill="#92E3A9" stroke="#263238" stroke-linecap="round" stroke-linejoin="round"/>
<path d="M105.171 291.854H125.341V283.172H105.171V291.854Z" fill="#92E3A9" stroke="#263238" stroke-linecap="round" stroke-linejoin="round"/>
<path d="M105.171 432.047H187.048V429.508H105.171V432.047Z" fill="white" stroke="#263238" stroke-miterlimit="10"/>
<path d="M105.171 432.047H125.341V429.508H105.171V432.047Z" fill="white" stroke="#263238" stroke-miterlimit="10"/>
<path d="M145.736 350.535H164.617V337.863H145.736V350.535Z" fill="#263238" stroke="#263238" stroke-miterlimit="10"/>
<path d="M149.783 347.827H160.572V340.584H149.783V347.827Z" fill="white" stroke="#263238" stroke-miterlimit="10"/>
<path d="M145.736 339.387H164.617V337.875H145.736V339.387Z" fill="white" stroke="#263238" stroke-miterlimit="10"/>
<path d="M159.317 362.604H171.124V357.477H159.317V362.604Z" fill="white" stroke="#263238" stroke-miterlimit="10"/>
<path d="M159.317 359.896H171.124V357.477H159.317V359.896Z" fill="white" stroke="#263238" stroke-miterlimit="10"/>
<path d="M138.354 362.604H150.161V357.477H138.354V362.604Z" fill="white" stroke="#263238" stroke-miterlimit="10"/>
<path d="M138.354 359.896H150.161V357.477H138.354V359.896Z" fill="white" stroke="#263238" stroke-miterlimit="10"/>
<path d="M116.244 376.23H125.341V342.349H116.244V376.23Z" fill="white" stroke="#263238" stroke-miterlimit="10"/>
<path d="M116.256 376.23H123.022V342.349H116.256V376.23Z" fill="white" stroke="#263238" stroke-miterlimit="10"/>
<path d="M117.687 374.707H121.579V343.885H117.687V374.707Z" fill="white" stroke="#263238" stroke-miterlimit="10"/>
<path d="M126.725 365.457H129.233V361.515H126.725V365.457Z" fill="white" stroke="#263238" stroke-miterlimit="10"/>
<path d="M93.435 441.95H314.258V431.769H93.435V441.95Z" fill="#919191" stroke="#263238" stroke-miterlimit="10"/>
<path d="M93.4232 441.95H120.645V431.769H93.4232V441.95Z" fill="#BDBDBD" stroke="#263238" stroke-miterlimit="10"/>
<path d="M575.458 441.975H581.183V418.359C581.183 413.853 582.935 409.532 586.052 406.346C589.169 403.16 593.397 401.37 597.805 401.37C602.213 401.37 606.441 403.16 609.558 406.346C612.675 409.532 614.426 413.853 614.426 418.359V441.975H620.152V418.359C620.152 412.301 617.798 406.491 613.607 402.208C609.416 397.924 603.732 395.518 597.805 395.518C591.878 395.518 586.194 397.924 582.003 402.208C577.812 406.491 575.458 412.301 575.458 418.359V441.975Z" fill="#BDBDBD" stroke="#263238" stroke-miterlimit="10"/>
<path d="M526.729 431.576H564.207V153.087H526.729V431.576Z" fill="#919191" stroke="#263238" stroke-miterlimit="10"/>
<path d="M526.729 431.576H543.125V153.087H526.729V431.576Z" fill="white" stroke="#263238" stroke-miterlimit="10"/>
<path d="M526.729 175.131H564.207V153.087H526.729V175.131Z" fill="#263238" stroke="#263238" stroke-miterlimit="10"/>
<path d="M526.729 175.131H543.125V153.087H526.729V175.131Z" fill="#263238" stroke="#263238" stroke-miterlimit="10"/>
<path d="M519.335 432.035H526.776V289.641H519.335V432.035Z" fill="#BDBDBD" stroke="#263238" stroke-miterlimit="10"/>
<path d="M505.245 432.035H522.86V289.641H505.245V432.035Z" fill="white" stroke="#263238" stroke-miterlimit="10"/>
<path d="M477.515 432.035H521.334V334.973H477.515V432.035Z" fill="#92E3A9" stroke="#263238" stroke-linecap="round" stroke-linejoin="round"/>
<path d="M477.515 394.574H521.334V334.973H477.515V394.574Z" fill="#263238" stroke="#263238" stroke-miterlimit="10"/>
<path d="M477.515 355.965H521.334V334.961H477.515V355.965Z" fill="#BDBDBD" stroke="#263238" stroke-miterlimit="10"/>
<path d="M477.515 365.312H521.334V355.771H477.515V365.312Z" fill="white" stroke="#263238" stroke-miterlimit="10"/>
<path d="M471.245 432.035H478.686V289.641H471.245V432.035Z" fill="#BDBDBD" stroke="#263238" stroke-miterlimit="10"/>
<path d="M457.155 432.035H474.771V289.641H457.155V432.035Z" fill="white" stroke="#263238" stroke-miterlimit="10"/>
<path d="M450.365 291.854H532.242V283.172H450.365V291.854Z" fill="#92E3A9" stroke="#263238" stroke-linecap="round" stroke-linejoin="round"/>
<path d="M450.365 291.854H470.535V283.172H450.365V291.854Z" fill="#92E3A9" stroke="#263238" stroke-linecap="round" stroke-linejoin="round"/>
<path d="M450.365 432.047H532.242V429.508H450.365V432.047Z" fill="white" stroke="#263238" stroke-miterlimit="10"/>
<path d="M450.365 432.047H470.535V429.508H450.365V432.047Z" fill="white" stroke="#263238" stroke-miterlimit="10"/>
<path d="M490.942 350.535H509.823V337.863H490.942V350.535Z" fill="#263238" stroke="#263238" stroke-miterlimit="10"/>
<path d="M494.988 347.827H505.778V340.584H494.988V347.827Z" fill="white" stroke="#263238" stroke-miterlimit="10"/>
<path d="M490.942 339.387H509.823V337.875H490.942V339.387Z" fill="white" stroke="#263238" stroke-miterlimit="10"/>
<path d="M504.5 362.604H516.307V357.477H504.5V362.604Z" fill="white" stroke="#263238" stroke-miterlimit="10"/>
<path d="M504.5 359.896H516.307V357.477H504.5V359.896Z" fill="white" stroke="#263238" stroke-miterlimit="10"/>
<path d="M483.549 362.604H495.355V357.477H483.549V362.604Z" fill="white" stroke="#263238" stroke-miterlimit="10"/>
<path d="M483.549 359.896H495.355V357.477H483.549V359.896Z" fill="white" stroke="#263238" stroke-miterlimit="10"/>
<path d="M461.438 376.23H470.535V342.349H461.438V376.23Z" fill="white" stroke="#263238" stroke-miterlimit="10"/>
<path d="M461.45 376.23H468.217V342.349H461.45V376.23Z" fill="white" stroke="#263238" stroke-miterlimit="10"/>
<path d="M462.881 374.707H466.773V343.885H462.881V374.707Z" fill="white" stroke="#263238" stroke-miterlimit="10"/>
<path d="M466.43 343.934C462.242 346.678 459.865 353.825 459.758 354.151L461.249 354.659C461.249 354.587 463.213 348.746 466.43 345.929V343.934Z" fill="white" stroke="#263238" stroke-miterlimit="10"/>
<path d="M464.951 347.984C464.987 347.983 465.021 347.974 465.053 347.959C465.085 347.943 465.113 347.921 465.137 347.894C465.16 347.867 465.177 347.835 465.188 347.801C465.199 347.766 465.203 347.73 465.2 347.694L465.058 345.143C465.056 345.108 465.048 345.074 465.034 345.042C465.019 345.01 464.999 344.982 464.973 344.958C464.948 344.935 464.919 344.916 464.886 344.905C464.854 344.893 464.82 344.887 464.786 344.889C464.752 344.891 464.718 344.899 464.687 344.914C464.656 344.929 464.628 344.95 464.605 344.975C464.582 345.001 464.564 345.031 464.553 345.064C464.541 345.097 464.536 345.132 464.537 345.167L464.679 347.731C464.679 347.766 464.686 347.801 464.7 347.834C464.714 347.866 464.735 347.895 464.76 347.919C464.786 347.943 464.816 347.961 464.849 347.973C464.882 347.984 464.917 347.988 464.951 347.984Z" fill="white" stroke="#263238" stroke-width="0.5" stroke-miterlimit="10"/>
<path d="M463.142 350.258C463.176 350.258 463.21 350.251 463.241 350.237C463.273 350.224 463.301 350.204 463.326 350.18C463.35 350.155 463.369 350.126 463.382 350.093C463.395 350.061 463.402 350.027 463.402 349.992V347.428C463.402 347.393 463.395 347.359 463.382 347.326C463.369 347.294 463.35 347.265 463.326 347.24C463.301 347.215 463.273 347.196 463.241 347.182C463.21 347.169 463.176 347.162 463.142 347.162C463.107 347.162 463.074 347.169 463.042 347.182C463.01 347.196 462.982 347.215 462.958 347.24C462.933 347.265 462.914 347.294 462.901 347.326C462.888 347.359 462.881 347.393 462.881 347.428V349.992C462.881 350.027 462.888 350.061 462.901 350.093C462.914 350.126 462.933 350.155 462.958 350.18C462.982 350.204 463.01 350.224 463.042 350.237C463.074 350.251 463.107 350.258 463.142 350.258Z" fill="white" stroke="#263238" stroke-width="0.5" stroke-miterlimit="10"/>
<path d="M461.888 353.099C461.956 353.084 462.016 353.044 462.055 352.985C462.095 352.927 462.111 352.855 462.101 352.785L461.533 350.076C461.527 350.041 461.515 350.008 461.496 349.978C461.477 349.948 461.452 349.923 461.423 349.904C461.394 349.884 461.362 349.871 461.328 349.866C461.294 349.86 461.259 349.862 461.225 349.87C461.158 349.885 461.099 349.926 461.061 349.985C461.023 350.044 461.01 350.116 461.024 350.185L461.58 352.893C461.597 352.961 461.638 353.019 461.695 353.057C461.752 353.095 461.82 353.11 461.888 353.099Z" fill="white" stroke="#263238" stroke-width="0.5" stroke-miterlimit="10"/>
<path d="M461.189 361.66C461.189 361.66 460.491 368.492 460.633 369.06C460.775 369.629 463.839 370.342 463.839 370.342" stroke="#263238" stroke-miterlimit="10"/>
<path d="M457.392 373.475L462.396 372.266C463.023 372.102 463.573 371.715 463.946 371.174C464.319 370.633 464.491 369.974 464.431 369.315L463.686 361.976L462.112 362.145L462.87 369.485C462.881 369.753 462.804 370.017 462.652 370.236C462.5 370.455 462.281 370.616 462.03 370.694L457.025 371.903L457.392 373.475Z" fill="black"/>
<path d="M459.314 372.406L457.233 372.648L457.689 376.733L459.77 376.491L459.314 372.406Z" fill="black" stroke="#263238" stroke-miterlimit="10"/>
<path d="M458.094 361.498L456.013 361.74L457.232 372.661L459.313 372.418L458.094 361.498Z" fill="white" stroke="#263238" stroke-miterlimit="10"/>
<path d="M459.474 352.954L462.574 354.405L462.183 356.11L464.502 357.694L463.863 362.035L455.996 364.151L454.198 362.035L455.606 354.925L458.575 354.405L459.474 352.954Z" fill="white" stroke="#263238" stroke-miterlimit="10"/>
<path d="M457.155 355.977L460.503 355.324L461.26 353.788L459.474 352.954L458.575 354.405L455.606 354.925L454.198 362.035L455.617 363.704L457.155 355.977Z" fill="white" stroke="#263238" stroke-miterlimit="10"/>
<path d="M452.388 310.693C453.867 297.476 458.599 294.671 462.361 294.671H462.479C463.667 294.68 464.839 294.945 465.92 295.45C467 295.954 467.964 296.686 468.749 297.597C475.137 304.635 474.25 322.277 474.191 323.425V363.655C474.207 363.814 474.19 363.974 474.142 364.125C474.094 364.276 474.015 364.415 473.911 364.534C473.806 364.652 473.679 364.746 473.537 364.811C473.394 364.876 473.241 364.909 473.085 364.909C472.929 364.909 472.775 364.876 472.633 364.811C472.491 364.746 472.363 364.652 472.259 364.534C472.155 364.415 472.076 364.276 472.028 364.125C471.979 363.974 471.963 363.814 471.979 363.655V323.329C471.979 323.147 472.961 305.554 467.128 299.145C466.54 298.452 465.813 297.897 464.997 297.517C464.18 297.138 463.293 296.942 462.396 296.944H462.325C457.191 296.944 455.227 304.55 454.529 310.959C453.846 317.305 454.189 323.723 455.546 329.955L457.226 337.851V348.492L453.382 330.439C451.984 323.958 451.648 317.286 452.388 310.693Z" fill="#263238"/>
<path d="M471.919 365.457H474.427V361.515H471.919V365.457Z" fill="white" stroke="#263238" stroke-miterlimit="10"/>
<path d="M453.145 409.182C455.511 404.49 458.291 399.17 458.291 392.834C458.291 383.16 457.522 375.3 457.522 375.216L459.722 374.998C459.722 375.071 460.503 383.039 460.503 392.834C460.503 399.738 457.498 405.554 455.097 410.234C453.204 413.922 451.548 417.114 452.222 419.303C452.329 419.84 452.554 420.346 452.88 420.781C453.206 421.217 453.624 421.571 454.103 421.818C455.177 422.136 456.329 422.033 457.333 421.528V423.946C456.643 424.168 455.926 424.286 455.203 424.297C454.548 424.304 453.897 424.18 453.287 423.934C452.497 423.571 451.8 423.027 451.25 422.343C450.7 421.659 450.312 420.854 450.116 419.992C449.17 416.897 451.015 413.317 453.145 409.182Z" fill="black"/>
<path d="M387.109 441.95H607.932V431.769H387.109V441.95Z" fill="#919191" stroke="#263238" stroke-miterlimit="10"/>
<path d="M387.109 441.95H414.33V431.769H387.109V441.95Z" fill="#BDBDBD" stroke="#263238" stroke-miterlimit="10"/>
<path d="M653.241 115.577H221.461V161.853H653.241V115.577Z" fill="#263238" stroke="#263238" stroke-miterlimit="10"/>
<path d="M58.2992 161.853L413.336 161.853V115.577L58.2992 115.577V161.853Z" fill="#92E3A9" stroke="#263238" stroke-linecap="round" stroke-linejoin="round"/>
<path d="M413.289 161.853V117.585L312.886 143.304C298.76 146.929 283.883 145.995 270.297 140.632L248.34 131.986C238.225 128 227.182 127.158 216.6 129.568L74.637 161.817L413.289 161.853Z" fill="#919191" stroke="#263238" stroke-miterlimit="10"/>
<path d="M230.773 432.073C230.773 432.073 228.324 437.309 228.761 438.397C229.199 439.486 232.05 439.437 232.05 439.437L232.168 432.303C232.168 432.303 231.53 430.404 230.773 432.073Z" fill="white" stroke="#263238" stroke-linecap="round" stroke-linejoin="round"/>
<path d="M237.48 435.93C237.48 435.93 240.568 437.877 241.443 438.349C242.319 438.82 246.01 439.618 246.081 440.417C246.152 441.215 242.532 441.735 240.674 442.001C237.22 441.897 233.785 441.419 230.429 440.574C230.063 440.283 231.435 435.495 231.435 435.495L237.48 435.93Z" fill="white" stroke="#263238" stroke-linecap="round" stroke-linejoin="round"/>
<path d="M249.583 367.393C249.583 367.393 247.974 395.555 248.092 399.255C248.21 402.955 246.909 405.519 246.803 406.571C246.696 407.623 238.06 429.437 238.06 429.437L236.416 434.467L233.044 429.195L236.593 404.491L233.044 368.022L242.047 366.812L249.583 367.393Z" fill="#525252" stroke="#263238" stroke-linecap="round" stroke-linejoin="round"/>
<path d="M221.332 368.215C221.332 368.215 223.319 380.392 225.402 385.567C227.484 390.743 230.134 404.685 230.134 404.685C230.134 404.685 228.477 411.698 229.566 414.552C230.654 417.405 230.749 433.004 230.749 433.004C230.619 433.917 230.556 434.838 230.56 435.761C230.642 436.305 230.713 437.224 230.713 437.224C230.713 437.224 233.328 436.764 234.262 436.692C235.197 436.619 238.308 436.075 238.308 436.075C238.308 436.075 238.45 434.104 238.663 432.931C238.876 431.758 238.107 429.848 238.131 429.449C238.155 429.05 239.42 418.711 239.42 418.711C239.42 418.711 241.313 404.709 241.503 402.085C241.692 399.461 238.758 371.48 238.758 371.48C238.758 371.48 230.619 365.99 227.543 365.628C224.467 365.265 221.332 368.215 221.332 368.215Z" fill="#525252" stroke="#263238" stroke-linecap="round" stroke-linejoin="round"/>
<path d="M230.595 318.13C230.595 318.13 219.25 324.636 219.203 325.265C219.155 325.893 221.462 351.069 221.462 351.069C221.462 351.069 220.043 365.422 219.936 366.982C219.88 368.103 219.904 369.226 220.007 370.343L226.49 367.26C226.49 367.26 237.93 372.411 239.503 372.737L242.544 373.378L244.082 370.549L244.235 374.176C245.555 373.172 246.772 372.033 247.867 370.779L250.352 367.502L249.24 351.468C249.24 351.468 248.057 330.464 248.187 329.315C248.317 328.167 246.826 321.963 245.821 321.141C244.018 320.192 242.147 319.383 240.225 318.723L232.287 317.103L230.595 318.13Z" fill="white" stroke="#263238" stroke-linecap="round" stroke-linejoin="round"/>
<path d="M228.915 305.615C229.161 306.758 229.559 307.86 230.098 308.892C230.749 309.811 232.559 312.52 232.559 312.52L236.581 310.102L235.836 302.919L228.915 305.615Z" fill="#263238" stroke="#263238" stroke-linecap="round" stroke-linejoin="round"/>
<path d="M231.944 309.207L231.269 316.583L239.349 322.036L240.769 316.474L233.99 307.889L231.944 309.207Z" fill="white" stroke="#263238" stroke-linecap="round" stroke-linejoin="round"/>
<path d="M236.735 315.156L239.669 319.304L240.45 317.115L236.735 315.156Z" fill="#263238"/>
<path d="M246.247 301.553L246.022 306.148L245.43 307.26L245.537 311.577L244.768 312.254C244.768 312.254 243.585 315.882 243.36 316.244C242.804 316.803 242.179 317.287 241.503 317.683C241.089 317.853 236.948 315.446 236.297 314.455C235.647 313.463 234.913 312.254 234.913 312.254L235.043 309.013L234.748 302.968L246.247 301.553Z" fill="white" stroke="#263238" stroke-linecap="round" stroke-linejoin="round"/>
<path d="M242.733 307.587V308.796C242.456 308.933 242.148 308.99 241.842 308.963C241.536 308.935 241.243 308.823 240.994 308.639" stroke="#263238" stroke-linecap="round" stroke-linejoin="round"/>
<path d="M243.277 313.863C243.277 313.863 242.887 313.947 242.023 313.379" stroke="#263238" stroke-linecap="round" stroke-linejoin="round"/>
<path d="M240.118 304.116L245.974 304.455L246.246 301.553L239.551 303.427L240.118 304.116Z" fill="#263238"/>
<path d="M243.703 307.029L240.438 306.679" stroke="#263238" stroke-linecap="round" stroke-linejoin="round"/>
<path d="M244.768 312.254L242.603 312.411" stroke="#263238" stroke-linecap="round" stroke-linejoin="round"/>
<path d="M246.956 301.335C246.956 301.335 246.329 296.994 244.886 295.628C243.443 294.261 235.907 293.149 235.161 293.512C234.416 293.875 233.079 294.564 233.079 294.564C232.161 295.087 231.293 295.698 230.489 296.39C229.889 296.832 229.396 297.408 229.047 298.074C228.699 298.741 228.504 299.48 228.477 300.235C228.466 302.038 228.613 303.839 228.915 305.616L246.956 301.335Z" fill="#92E3A9" stroke="#263238" stroke-linecap="round" stroke-linejoin="round"/>
<path d="M230.773 314.152L237.528 317.284L239.61 322.786L229.471 317.937L230.773 314.152Z" fill="white" stroke="#263238" stroke-linecap="round" stroke-linejoin="round"/>
<path d="M235.41 307.961C235.41 307.961 234.641 304.914 233.044 305.966C231.447 307.018 233.304 310.343 233.564 310.803C233.825 311.262 234.747 311.335 235.256 310.271" fill="white"/>
<path d="M235.41 307.961C235.41 307.961 234.641 304.914 233.044 305.966C231.447 307.018 233.304 310.343 233.564 310.803C233.825 311.262 234.747 311.335 235.256 310.271" stroke="#263238" stroke-linecap="round" stroke-linejoin="round"/>
<path d="M237.232 303.584C237.232 303.584 241.077 305.495 243.845 305.313C246.968 305.096 253.475 304.322 251.89 303.052C250.044 302.423 248.158 301.922 246.247 301.553C246.247 301.553 239.562 302.52 237.232 303.584Z" fill="#92E3A9" stroke="#263238" stroke-linecap="round" stroke-linejoin="round"/>
<path d="M280.436 361.807C276.769 358.361 269.398 357.853 269.067 357.829L268.972 359.437C269.043 359.437 275.065 359.848 278.555 362.315L280.436 361.807Z" fill="white" stroke="#263238" stroke-miterlimit="10"/>
<path d="M276.236 361.371C276.247 361.405 276.264 361.436 276.286 361.462C276.309 361.489 276.336 361.511 276.367 361.527C276.398 361.542 276.431 361.552 276.466 361.554C276.5 361.557 276.535 361.552 276.567 361.541L278.933 360.755C278.998 360.73 279.051 360.681 279.081 360.619C279.112 360.556 279.118 360.483 279.099 360.416C279.077 360.348 279.031 360.291 278.969 360.258C278.907 360.224 278.835 360.216 278.768 360.235L276.402 361.033C276.337 361.057 276.285 361.106 276.254 361.169C276.223 361.232 276.217 361.304 276.236 361.371Z" fill="white" stroke="#263238" stroke-width="0.5" stroke-miterlimit="10"/>
<path d="M273.61 360.162C273.629 360.23 273.673 360.287 273.732 360.323C273.791 360.359 273.862 360.371 273.929 360.356L276.354 359.703C276.42 359.683 276.477 359.638 276.512 359.578C276.547 359.517 276.558 359.445 276.544 359.376C276.535 359.342 276.52 359.31 276.5 359.281C276.479 359.253 276.453 359.229 276.424 359.211C276.394 359.193 276.361 359.181 276.327 359.176C276.292 359.172 276.258 359.174 276.224 359.183L273.858 359.836C273.82 359.838 273.783 359.849 273.749 359.868C273.716 359.886 273.686 359.912 273.663 359.942C273.639 359.973 273.623 360.009 273.613 360.046C273.604 360.084 273.603 360.124 273.61 360.162Z" fill="white" stroke="#263238" stroke-width="0.5" stroke-miterlimit="10"/>
<path d="M270.605 359.654C270.605 359.654 270.605 359.654 270.605 359.714C270.621 359.745 270.643 359.773 270.67 359.795C270.696 359.818 270.727 359.834 270.76 359.844C270.793 359.855 270.828 359.858 270.862 359.854C270.896 359.85 270.93 359.84 270.96 359.823L273.326 358.614C273.389 358.582 273.436 358.526 273.458 358.457C273.481 358.389 273.476 358.315 273.444 358.251C273.413 358.187 273.358 358.138 273.291 358.115C273.225 358.093 273.152 358.098 273.089 358.13L270.723 359.339C270.671 359.37 270.631 359.418 270.609 359.475C270.588 359.532 270.586 359.595 270.605 359.654Z" fill="white" stroke="#263238" stroke-width="0.5" stroke-miterlimit="10"/>
<path d="M262.336 361.166C262.336 361.166 255.699 362.23 255.238 362.52C254.776 362.811 254.847 366.003 254.847 366.003" stroke="#263238" stroke-miterlimit="10"/>
<path d="M250.186 360.44L252.635 365.071C252.954 365.645 253.464 366.082 254.072 366.304C254.68 366.526 255.345 366.517 255.947 366.28L262.691 363.657L262.135 362.157L255.391 364.769C255.141 364.868 254.864 364.871 254.612 364.777C254.36 364.684 254.149 364.501 254.019 364.261L251.57 359.63L250.186 360.44Z" fill="black"/>
<path d="M250.855 360.101L247.109 361.599L247.872 363.592L251.618 362.094L250.855 360.101Z" fill="black" stroke="#263238" stroke-miterlimit="10"/>
<path d="M260.879 356.084L250.865 360.089L251.628 362.082L261.642 358.077L260.879 356.084Z" fill="white" stroke="#263238" stroke-miterlimit="10"/>
<path d="M270.132 357.236L269.552 360.67L267.837 360.731L266.938 363.427L262.655 363.899L258.645 356.68L260.182 354.358L267.269 353.923L268.523 356.716L270.132 357.236Z" fill="#92E3A9" stroke="#263238" stroke-linecap="round" stroke-linejoin="round"/>
<path d="M266.665 355.725L268.144 358.868L269.8 359.219L270.132 357.236L268.523 356.716L267.269 353.923L260.182 354.358L258.964 356.196L266.665 355.725Z" fill="#92E3A9" stroke="#263238" stroke-linecap="round" stroke-linejoin="round"/>
<path d="M227.034 346.365L229.46 350.077L251.275 360.234L254.906 363.705L258.538 362.459L261.697 361.963L257.817 355.277L250.068 355.035L235.529 345.373L233.34 342.641L227.034 346.365Z" fill="white" stroke="#263238" stroke-linecap="round" stroke-linejoin="round"/>
<path d="M219.203 325.265L224.372 349.581L235.765 343.39L228.253 326.051" fill="white"/>
<path d="M219.203 325.265L224.372 349.581L235.765 343.39L228.253 326.051" stroke="#263238" stroke-linecap="round" stroke-linejoin="round"/>
<path d="M247.134 361.565C237.553 363.963 228.843 369.111 222.03 376.402C212.294 387.284 202.368 397.961 192.064 408.276C180.305 420.041 170.9 427.913 155.639 434.769C144.779 439.606 128.713 444.443 117.167 439.606C102.592 433.415 106.39 412.315 106.082 399.582C105.467 374.261 105.479 348.868 106.236 323.56C106.33 320.44 106.437 317.32 106.614 314.213C106.875 309.521 107.229 300.331 109.146 296.075C110.637 292.762 113.878 291.033 115.913 291.117C122.845 291.407 124.892 299.666 125.637 306.97C126.383 314.273 127.66 358.723 127.66 358.723" stroke="#263238" stroke-width="3" stroke-linejoin="round"/>
<path d="M213.619 358.722H213.11C212.596 358.721 212.089 358.596 211.631 358.357C211.173 358.117 210.777 357.771 210.476 357.345C210.175 356.919 209.976 356.426 209.898 355.906C209.819 355.387 209.861 354.856 210.022 354.356C210.673 352.313 211.773 350.245 213.571 349.931C217.404 349.278 227.933 352.53 227.933 354.767C227.933 357.004 227.933 358.02 226.656 358.02H218.682L212.306 365.203L212.164 365.082C211.835 364.799 211.571 364.447 211.39 364.049C211.209 363.651 211.115 363.217 211.115 362.778C211.115 362.339 211.209 361.906 211.39 361.508C211.571 361.11 211.835 360.757 212.164 360.475C212.748 359.985 213.241 359.391 213.619 358.722Z" fill="#263238" stroke="#263238" stroke-linecap="round" stroke-linejoin="round"/>
<path d="M285.7 419.363H391.581C391.581 419.363 406.889 408.928 403.695 381.539C400.501 354.151 383.288 372.422 376.911 390.669H329.709C329.709 390.669 319.499 369.81 302.925 372.422C286.351 375.034 285.7 419.363 285.7 419.363Z" fill="#263238" stroke="#263238" stroke-linecap="round" stroke-linejoin="round"/>
<path d="M311.715 413.933C311.865 406.679 309.82 399.555 305.859 393.534V385.916H293.094C282.802 385.916 274.462 398.455 274.462 413.933C274.462 429.411 282.802 441.974 293.094 441.974H305.859V434.356C309.825 428.329 311.87 421.195 311.715 413.933Z" fill="#263238" stroke="#263238" stroke-linecap="round" stroke-linejoin="round"/>
<path d="M305.859 441.95C316.143 441.95 324.48 429.406 324.48 413.933C324.48 398.46 316.143 385.916 305.859 385.916C295.575 385.916 287.238 398.46 287.238 413.933C287.238 429.406 295.575 441.95 305.859 441.95Z" fill="#263238"/>
<mask id="mask0_348_614" style="mask-type:luminance" maskUnits="userSpaceOnUse" x="287" y="385" width="38" height="57">
<path d="M305.859 441.949C316.143 441.949 324.48 429.405 324.48 413.932C324.48 398.459 316.143 385.915 305.859 385.915C295.575 385.915 287.238 398.459 287.238 413.932C287.238 429.405 295.575 441.949 305.859 441.949Z" fill="white"/>
</mask>
<g mask="url(#mask0_348_614)">
<path opacity="0.2" d="M305.859 441.949C316.143 441.949 324.48 429.405 324.48 413.932C324.48 398.459 316.143 385.915 305.859 385.915C295.575 385.915 287.238 398.459 287.238 413.932C287.238 429.405 295.575 441.949 305.859 441.949Z" fill="white" stroke="#263238" stroke-linecap="round" stroke-linejoin="round"/>
</g>
<path d="M305.859 441.95C316.143 441.95 324.48 429.406 324.48 413.933C324.48 398.46 316.143 385.916 305.859 385.916C295.575 385.916 287.238 398.46 287.238 413.933C287.238 429.406 295.575 441.95 305.859 441.95Z" stroke="#263238" stroke-linecap="round" stroke-linejoin="round"/>
<path d="M196.654 385.916H184.599C174.875 385.916 166.996 398.455 166.996 413.933C166.996 429.411 174.875 441.974 184.599 441.974H196.654C206.378 441.974 214.257 429.435 214.257 413.957C214.257 398.479 206.378 385.916 196.654 385.916Z" fill="#263238" stroke="#263238" stroke-linecap="round" stroke-linejoin="round"/>
<path d="M305.859 436.291C314.065 436.291 320.718 426.281 320.718 413.933C320.718 401.585 314.065 391.575 305.859 391.575C297.652 391.575 291 401.585 291 413.933C291 426.281 297.652 436.291 305.859 436.291Z" fill="white" stroke="#263238" stroke-linecap="round" stroke-linejoin="round"/>
<path d="M398.939 413.933C399.084 406.944 397.815 399.999 395.213 393.534V385.916H383.938C377.384 385.916 372.108 398.455 372.108 413.933C372.108 429.411 377.408 441.95 383.938 441.95H395.213V434.332C397.815 427.867 399.084 420.922 398.939 413.933Z" fill="#263238" stroke="#263238" stroke-linecap="round" stroke-linejoin="round"/>
<path d="M395.213 441.95C401.759 441.95 407.066 429.406 407.066 413.933C407.066 398.46 401.759 385.916 395.213 385.916C388.666 385.916 383.359 398.46 383.359 413.933C383.359 429.406 388.666 441.95 395.213 441.95Z" fill="#263238"/>
<mask id="mask1_348_614" style="mask-type:luminance" maskUnits="userSpaceOnUse" x="383" y="385" width="25" height="57">
<path d="M395.213 441.949C401.759 441.949 407.066 429.405 407.066 413.932C407.066 398.459 401.759 385.915 395.213 385.915C388.666 385.915 383.359 398.459 383.359 413.932C383.359 429.405 388.666 441.949 395.213 441.949Z" fill="white"/>
</mask>
<g mask="url(#mask1_348_614)">
<path opacity="0.2" d="M395.213 441.949C401.759 441.949 407.066 429.405 407.066 413.932C407.066 398.459 401.759 385.915 395.213 385.915C388.666 385.915 383.359 398.459 383.359 413.932C383.359 429.405 388.666 441.949 395.213 441.949Z" fill="white" stroke="#263238" stroke-linecap="round" stroke-linejoin="round"/>
</g>
<path d="M395.213 441.95C401.759 441.95 407.066 429.406 407.066 413.933C407.066 398.46 401.759 385.916 395.213 385.916C388.666 385.916 383.359 398.46 383.359 413.933C383.359 429.406 388.666 441.95 395.213 441.95Z" stroke="#263238" stroke-linecap="round" stroke-linejoin="round"/>
<path d="M404.665 413.933C404.665 426.279 400.43 436.291 395.201 436.291C389.972 436.291 385.737 426.279 385.737 413.933C385.737 401.587 389.972 391.575 395.201 391.575C400.43 391.575 404.665 401.587 404.665 413.933Z" fill="white" stroke="#263238" stroke-linecap="round" stroke-linejoin="round"/>
<path d="M290.16 420.777C290.16 398.455 297.755 380.354 307.113 380.354C316.471 380.354 324.066 398.492 324.066 420.777C324.066 421.986 324.066 423.195 323.995 424.405H384.388C384.388 423.195 384.329 421.986 384.329 420.777C384.329 398.443 389.865 380.305 396.727 380.305C401.282 380.305 405.257 388.395 407.374 400.414V367.488C407.376 365.985 406.862 364.529 405.922 363.373C404.982 362.217 403.674 361.436 402.228 361.164L401.932 361.103C397.756 360.245 390.22 352.119 378.497 341.853C366.773 331.587 356.315 330.729 356.315 330.729H250.553C248.554 330.729 246.612 331.405 245.028 332.651L208.969 361.103C208.969 361.103 176.685 367.512 169.587 374.791C162.488 382.071 163.305 424.368 163.305 424.368H290.255C290.184 423.22 290.16 422.01 290.16 420.777Z" fill="white" stroke="#263238" stroke-linecap="round" stroke-linejoin="round"/>
<path d="M330.347 330.729H250.553C248.554 330.729 246.612 331.405 245.028 332.651L208.969 361.103H311.088L330.347 330.729Z" fill="white" stroke="#263238" stroke-linecap="round" stroke-linejoin="round"/>
<path d="M288.551 372.542C282.802 372.615 272.758 373.002 268.44 374.791C264.838 376.242 261.344 377.955 257.982 379.918H278.425L288.551 372.542Z" fill="#263238" stroke="#263238" stroke-linecap="round" stroke-linejoin="round"/>
<path d="M279.702 386.351V382.506H257.935L261.874 386.218C261.811 386.257 261.752 386.301 261.697 386.351H279.702Z" fill="#263238" stroke="#263238" stroke-linecap="round" stroke-linejoin="round"/>
<path d="M281.796 380.777V386.352C282.641 386.275 283.457 386.001 284.181 385.55C284.905 385.099 285.518 384.484 285.972 383.752C288.066 380.33 292.775 372.519 292.775 372.519L281.796 380.777Z" fill="#263238" stroke="#263238" stroke-linecap="round" stroke-linejoin="round"/>
<path d="M171.645 386.206L175.584 382.494H166.298C166.014 383.703 165.742 384.985 165.505 386.339H171.822C171.767 386.289 171.708 386.245 171.645 386.206Z" fill="#263238" stroke="#263238" stroke-linecap="round" stroke-linejoin="round"/>
<path d="M168.534 376.267C167.9 377.417 167.389 378.633 167.008 379.894H175.584C173.298 378.559 170.945 377.349 168.534 376.267Z" fill="#263238" stroke="#263238" stroke-linecap="round" stroke-linejoin="round"/>
<path d="M311.088 361.104H373.066C373.066 361.104 381.856 358.105 379.348 346.981C378.497 343.208 360.929 334.574 358.421 334.574H328.254L311.088 361.104Z" fill="#263238"/>
<mask id="mask2_348_614" style="mask-type:luminance" maskUnits="userSpaceOnUse" x="311" y="334" width="69" height="28">
<path d="M311.088 361.103H373.067C373.067 361.103 381.857 358.104 379.349 346.98C378.497 343.207 360.929 334.573 358.421 334.573H328.254L311.088 361.103Z" fill="white"/>
</mask>
<g mask="url(#mask2_348_614)">
<path opacity="0.2" d="M311.088 361.103H373.067C373.067 361.103 381.857 358.104 379.349 346.98C378.497 343.207 360.929 334.573 358.421 334.573H328.254L311.088 361.103Z" fill="white" stroke="#263238" stroke-linecap="round" stroke-linejoin="round"/>
</g>
<path d="M311.088 361.104H373.066C373.066 361.104 381.856 358.105 379.348 346.981C378.497 343.208 360.929 334.574 358.421 334.574H328.254L311.088 361.104Z" stroke="#263238" stroke-linecap="round" stroke-linejoin="round"/>
<path d="M242.591 334.574L208.958 361.104H311.088L327.899 334.574H242.591Z" fill="#263238" stroke="#263238" stroke-linecap="round" stroke-linejoin="round"/>
<path d="M177.158 380.777V389.762L183.428 394.465H234.073L245.797 389.338V380.777H177.158Z" fill="#263238" stroke="#263238" stroke-linecap="round" stroke-linejoin="round"/>
<path opacity="0.3" d="M179.5 380.777H177.158V383.172H179.5V380.777Z" fill="white" stroke="#263238" stroke-linecap="round" stroke-linejoin="round"/>
<path opacity="0.3" d="M182.079 383.425H179.737V385.819H182.079V383.425Z" fill="white" stroke="#263238" stroke-linecap="round" stroke-linejoin="round"/>
<path opacity="0.3" d="M184.67 386.073H182.328V388.467H184.67V386.073Z" fill="white" stroke="#263238" stroke-linecap="round" stroke-linejoin="round"/>
<path opacity="0.3" d="M187.261 388.709H184.918V391.103H187.261V388.709Z" fill="white" stroke="#263238" stroke-linecap="round" stroke-linejoin="round"/>
<path opacity="0.3" d="M245.336 380.777H242.993V383.172H245.336V380.777Z" fill="white" stroke="#263238" stroke-linecap="round" stroke-linejoin="round"/>
<path opacity="0.3" d="M242.744 383.425H240.402V385.819H242.744V383.425Z" fill="white" stroke="#263238" stroke-linecap="round" stroke-linejoin="round"/>
<path opacity="0.3" d="M240.154 386.073H237.812V388.467H240.154V386.073Z" fill="white" stroke="#263238" stroke-linecap="round" stroke-linejoin="round"/>
<path opacity="0.3" d="M237.575 388.709H235.232V391.103H237.575V388.709Z" fill="white" stroke="#263238" stroke-linecap="round" stroke-linejoin="round"/>
<path opacity="0.3" d="M190.857 388.709H188.515V391.103H190.857V388.709Z" fill="white" stroke="#263238" stroke-linecap="round" stroke-linejoin="round"/>
<path opacity="0.3" d="M194.442 388.709H192.099V391.103H194.442V388.709Z" fill="white" stroke="#263238" stroke-linecap="round" stroke-linejoin="round"/>
<path opacity="0.3" d="M198.038 388.709H195.696V391.103H198.038V388.709Z" fill="white" stroke="#263238" stroke-linecap="round" stroke-linejoin="round"/>
<path opacity="0.3" d="M201.635 388.709H199.292V391.103H201.635V388.709Z" fill="white" stroke="#263238" stroke-linecap="round" stroke-linejoin="round"/>
<path opacity="0.3" d="M205.231 388.709H202.888V391.103H205.231V388.709Z" fill="white" stroke="#263238" stroke-linecap="round" stroke-linejoin="round"/>
<path opacity="0.3" d="M208.816 388.709H206.473V391.103H208.816V388.709Z" fill="white" stroke="#263238" stroke-linecap="round" stroke-linejoin="round"/>
<path opacity="0.3" d="M212.412 388.709H210.07V391.103H212.412V388.709Z" fill="white" stroke="#263238" stroke-linecap="round" stroke-linejoin="round"/>
<path opacity="0.3" d="M216.008 388.709H213.666V391.103H216.008V388.709Z" fill="white" stroke="#263238" stroke-linecap="round" stroke-linejoin="round"/>
<path opacity="0.3" d="M219.605 388.709H217.262V391.103H219.605V388.709Z" fill="white" stroke="#263238" stroke-linecap="round" stroke-linejoin="round"/>
<path opacity="0.3" d="M223.201 388.709H220.859V391.103H223.201V388.709Z" fill="white" stroke="#263238" stroke-linecap="round" stroke-linejoin="round"/>
<path opacity="0.3" d="M226.786 388.709H224.443V391.103H226.786V388.709Z" fill="white" stroke="#263238" stroke-linecap="round" stroke-linejoin="round"/>
<path opacity="0.3" d="M230.382 388.709H228.04V391.103H230.382V388.709Z" fill="white" stroke="#263238" stroke-linecap="round" stroke-linejoin="round"/>
<path opacity="0.3" d="M233.978 388.709H231.636V391.103H233.978V388.709Z" fill="white" stroke="#263238" stroke-linecap="round" stroke-linejoin="round"/>
<path d="M270.073 405.589H165.848L164.452 394.175C163.813 400.45 163.53 407.137 163.399 412.627L163.766 414.15L165.848 409.87H174.792L169.208 414.574H252.02L249.05 409.87H270.013L275.869 413.292H280.057V391.526L270.073 405.589Z" fill="#263238" stroke="#263238" stroke-linecap="round" stroke-linejoin="round"/>
<path d="M351.926 361.104H355.416C355.049 355.856 353.582 344.296 347.833 334.574H344.283C346.354 339.048 351.133 350.572 351.926 361.104Z" fill="#263238" stroke="#263238" stroke-linecap="round" stroke-linejoin="round"/>
<path d="M276.449 341.781L277.727 345.408C276.155 346.944 275.237 349.051 275.171 351.273V361.152H267.328L273.894 341.805L276.449 341.781ZM239.775 346.617C234.393 349.967 226.253 357.355 222.314 361.055H248.53L262.099 339.773L253.167 340.426C248.456 341.899 243.953 343.997 239.775 346.666V346.617ZM293.993 344.03L290.799 343.377H286.339L285.061 344.683C285.061 344.683 288.256 345.009 288.611 346.968C288.83 348.915 288.937 350.873 288.93 352.833H291.166C291.166 352.833 291.166 349.205 292.763 347.621C293.666 346.689 294.626 345.816 295.638 345.009L293.993 344.03Z" fill="#525252" stroke="#263238" stroke-linecap="round" stroke-linejoin="round"/>
<path d="M332.903 358.722H332.382C331.868 358.721 331.361 358.596 330.903 358.357C330.445 358.117 330.05 357.771 329.748 357.345C329.447 356.919 329.249 356.426 329.17 355.906C329.091 355.387 329.134 354.856 329.295 354.356C329.945 352.313 331.045 350.245 332.903 349.931C336.724 349.278 347.253 352.53 347.253 354.767C347.253 357.004 347.253 358.02 345.975 358.02H338.002L331.661 365.251L331.519 365.13C331.19 364.848 330.926 364.495 330.745 364.097C330.564 363.699 330.47 363.266 330.47 362.827C330.47 362.388 330.564 361.954 330.745 361.556C330.926 361.158 331.19 360.806 331.519 360.523C332.075 360.006 332.543 359.397 332.903 358.722Z" fill="white" stroke="#263238" stroke-linecap="round" stroke-linejoin="round"/>
<path d="M331.483 365.13L331.625 365.25L338.002 358.068H345.975C347.028 358.068 347.158 357.391 347.241 355.867H329.176C329.282 356.659 329.666 357.384 330.255 357.909C330.845 358.434 331.6 358.722 332.382 358.721H332.903C332.533 359.399 332.053 360.008 331.483 360.523C331.155 360.805 330.891 361.158 330.709 361.556C330.528 361.954 330.434 362.387 330.434 362.826C330.434 363.265 330.528 363.699 330.709 364.096C330.891 364.494 331.155 364.847 331.483 365.13Z" fill="#263238" stroke="#263238" stroke-linecap="round" stroke-linejoin="round"/>
<path d="M351.18 368.976H344V370.548H351.18V368.976Z" fill="#263238" stroke="#263238" stroke-linecap="round" stroke-linejoin="round"/>
<path d="M383.477 368.976H376.296V370.548H383.477V368.976Z" fill="#263238" stroke="#263238" stroke-linecap="round" stroke-linejoin="round"/>
<path d="M383.986 362.688C383.986 362.688 389.179 366.315 392.196 378.939C392.196 378.939 379.372 380.511 379.372 416.666" stroke="#263238" stroke-linecap="round" stroke-linejoin="round"/>
<path d="M377.799 418.237H324.03C324.03 419.043 324.03 419.89 324.03 420.777C324.03 421.986 324.03 423.195 323.959 424.404H384.353C384.353 423.195 384.293 421.986 384.293 420.777C384.293 420.692 384.293 420.607 384.293 420.523L377.799 418.237Z" fill="#263238" stroke="#263238" stroke-linecap="round" stroke-linejoin="round"/>
<path d="M290.16 420.777C290.16 419.93 290.16 419.084 290.16 418.237H163.317C163.317 422.01 163.317 424.416 163.317 424.416H290.255C290.184 423.219 290.16 422.01 290.16 420.777Z" fill="#263238" stroke="#263238" stroke-linecap="round" stroke-linejoin="round"/>
<path d="M405.103 365.795C404.464 365.795 403.837 365.965 403.282 366.287C402.727 366.61 402.264 367.075 401.939 367.636C401.613 368.197 401.435 368.835 401.424 369.488C401.412 370.14 401.567 370.784 401.873 371.357L407.35 381.623V367.488C407.344 366.927 407.264 366.37 407.114 365.831H405.103V365.795Z" fill="#263238" stroke="#263238" stroke-linecap="round" stroke-linejoin="round"/>
<path d="M355.865 366.545C355.865 366.545 367.341 383.474 355.865 412.18" stroke="#263238" stroke-linecap="round" stroke-linejoin="round"/>
<path d="M765.25 124.721H675.518V441.952H765.25V124.721Z" fill="#666666" stroke="#263238" stroke-miterlimit="10"/>
<path d="M758.661 124.721H668.928V441.952H758.661V124.721Z" fill="#919191" stroke="#263238" stroke-miterlimit="10"/>
<path d="M758.661 124.721H668.928V354.612H758.661V124.721Z" fill="white" stroke="#263238" stroke-linecap="round" stroke-linejoin="round"/>
<path d="M758.661 212.629H668.928V266.571H758.661V212.629Z" fill="#263238" stroke="#263238" stroke-miterlimit="10"/>
<path d="M746.31 277.031H678.807V287.974H746.31V277.031Z" fill="white" stroke="#263238" stroke-linecap="round" stroke-linejoin="round"/>
<path d="M746.31 303.535H678.807V314.478H746.31V303.535Z" fill="white" stroke="#263238" stroke-linecap="round" stroke-linejoin="round"/>
<path d="M746.31 225.277H678.807V236.221H746.31V225.277Z" fill="#8F8F8F" stroke="#263238" stroke-linecap="round" stroke-linejoin="round"/>
<path d="M746.31 244.636H678.807V255.579H746.31V244.636Z" fill="#8F8F8F" stroke="#263238" stroke-linecap="round" stroke-linejoin="round"/>
<path d="M763.002 387.32C764.836 388.143 769.343 388.034 769.355 388.034C769.367 388.034 768.385 385.023 768.302 384.841C767.309 382.725 764.185 379.231 761.642 379.594C761.222 379.663 760.82 379.822 760.464 380.06C760.108 380.299 759.805 380.611 759.575 380.978C759.345 381.344 759.193 381.756 759.129 382.186C759.066 382.616 759.091 383.056 759.205 383.475C759.619 385.277 761.429 386.619 763.002 387.32Z" fill="#263238"/>
<path d="M764.552 400.658C766.469 400.948 770.467 399.751 770.81 399.654C771.466 402.01 772.281 404.317 773.247 406.559C773.803 407.864 774.43 409.17 775.01 410.464L774.265 409.364C772.762 407.586 768.847 405.071 766.48 406.099C766.092 406.281 765.746 406.543 765.464 406.871C765.182 407.198 764.971 407.582 764.843 407.998C764.716 408.415 764.676 408.854 764.726 409.287C764.776 409.72 764.914 410.138 765.132 410.513C766.007 412.133 768.089 412.931 769.793 413.185C771.852 413.188 773.899 412.865 775.862 412.23C776.11 412.725 776.347 413.221 776.584 413.717C777.767 416.135 778.95 418.445 780.002 420.803C780.381 421.625 780.724 422.459 781.079 423.282C780.748 422.798 780.476 422.387 780.428 422.339C778.926 420.561 775.01 418.034 772.644 419.062C772.256 419.243 771.91 419.506 771.628 419.833C771.346 420.16 771.134 420.545 771.007 420.961C770.88 421.377 770.84 421.816 770.889 422.249C770.939 422.683 771.077 423.1 771.295 423.475C772.171 425.095 774.265 425.894 775.957 426.16C777.962 426.168 779.957 425.862 781.872 425.253C782.203 426.111 782.534 426.97 782.818 427.816C782.995 428.409 783.208 428.953 783.362 429.545C783.516 430.138 783.682 430.755 783.835 431.299C784.108 432.411 784.38 433.572 784.616 434.672C784.782 435.434 784.924 436.172 785.066 436.909C784.699 436.075 783.883 434.491 783.883 434.346C782.7 432.363 779.151 429.255 776.678 429.908C776.268 430.027 775.888 430.233 775.561 430.513C775.234 430.792 774.969 431.139 774.781 431.53C774.594 431.921 774.489 432.348 774.473 432.783C774.458 433.218 774.532 433.652 774.691 434.056C775.318 435.797 777.258 436.909 778.902 437.429C780.547 437.949 784.699 437.429 785.196 437.429C785.433 438.638 785.657 439.848 785.847 440.96C785.906 441.311 785.965 441.637 786.012 441.976H787.586C787.503 441.553 787.432 441.129 787.337 440.682C787.101 439.473 786.828 438.118 786.521 436.764C787.737 436.279 788.922 435.718 790.07 435.083C791.619 436.442 793.342 437.577 795.192 438.457C794.731 439.606 794.27 440.718 793.832 441.77C793.796 441.836 793.764 441.905 793.737 441.976H795.382C795.808 440.924 796.234 439.811 796.659 438.651C797.144 438.759 801.096 439.57 802.941 439.146C804.609 438.759 806.632 437.804 807.378 436.111C807.566 435.72 807.672 435.293 807.689 434.857C807.706 434.421 807.632 433.987 807.474 433.582C807.315 433.177 807.075 432.811 806.769 432.507C806.463 432.203 806.098 431.969 805.698 431.819C803.261 430.984 799.546 433.814 798.185 435.688C798.115 435.809 797.369 437.115 796.92 437.949C797.109 437.417 797.31 436.897 797.499 436.353C797.89 435.265 798.245 434.176 798.682 433.004C798.848 432.435 799.014 431.855 799.191 431.262C799.369 430.67 799.487 430.053 799.641 429.449C799.972 428.034 800.244 426.571 800.481 425.095C802.37 425.871 804.365 426.344 806.396 426.498C808.111 426.377 810.252 425.736 811.234 424.189C811.48 423.832 811.65 423.425 811.732 422.997C811.814 422.568 811.807 422.127 811.711 421.701C811.615 421.276 811.432 420.876 811.175 420.527C810.917 420.178 810.591 419.889 810.217 419.678C807.934 418.469 803.852 420.694 802.22 422.351C802.125 422.447 801.037 423.777 800.528 424.503C800.67 423.62 800.8 422.738 800.918 421.843C801.226 419.231 801.474 416.595 801.723 413.959L801.971 411.54C802.302 411.661 806.206 413.149 808.123 413.016C809.838 412.895 811.98 412.254 812.962 410.694C813.207 410.338 813.377 409.933 813.459 409.505C813.541 409.077 813.534 408.637 813.438 408.212C813.342 407.788 813.159 407.388 812.901 407.041C812.644 406.694 812.318 406.406 811.944 406.196C809.661 404.987 805.579 407.212 803.947 408.868C803.828 408.989 802.338 410.887 801.983 411.395C802.172 409.618 802.362 407.852 802.634 406.123C802.972 403.782 803.466 401.467 804.112 399.195C804.266 399.195 808.336 400.827 810.3 400.682C812.015 400.561 814.156 399.92 815.138 398.36C815.384 398.004 815.554 397.599 815.636 397.171C815.718 396.744 815.71 396.303 815.614 395.878C815.518 395.454 815.336 395.055 815.078 394.707C814.821 394.36 814.495 394.072 814.121 393.862C811.838 392.653 807.744 394.878 806.124 396.534C805.993 396.655 804.396 398.711 804.136 399.098C804.136 398.965 804.136 398.832 804.231 398.699C804.936 396.432 805.839 394.235 806.928 392.133C807.508 390.924 808.111 389.884 808.762 388.844C809.483 389.219 812.831 390.887 814.618 390.96C816.404 391.033 818.534 390.621 819.681 389.195C819.962 388.866 820.172 388.481 820.297 388.065C820.423 387.648 820.463 387.209 820.413 386.776C820.362 386.343 820.224 385.926 820.006 385.551C819.789 385.176 819.496 384.852 819.149 384.6C817.007 383.149 812.701 384.902 810.868 386.365C810.773 386.438 809.862 387.357 809.211 388.034L810.087 386.643C811.163 384.999 812.24 383.548 813.21 382.278C813.766 381.552 814.286 380.912 814.771 380.319C815.682 380.319 819.314 380.198 820.9 379.436C822.485 378.675 824.224 377.296 824.602 375.494C824.704 375.07 824.718 374.629 824.642 374.2C824.567 373.77 824.404 373.361 824.164 373C823.924 372.639 823.613 372.333 823.25 372.102C822.888 371.872 822.482 371.721 822.059 371.661C819.504 371.383 816.475 374.962 815.54 377.103C815.458 377.284 814.523 380.331 814.57 380.331H814.63C814.144 380.887 813.624 381.54 813.08 382.169C812.086 383.378 810.962 384.854 809.85 386.486C808.633 388.237 807.515 390.057 806.502 391.939C805.38 394.02 804.438 396.197 803.687 398.445C803.681 398.473 803.681 398.502 803.687 398.53C803.687 397.756 803.687 395.603 803.687 395.446C803.391 393.124 801.486 388.808 798.954 388.324C798.529 388.25 798.094 388.269 797.676 388.38C797.259 388.491 796.87 388.692 796.534 388.968C796.198 389.245 795.924 389.592 795.729 389.985C795.535 390.379 795.424 390.81 795.405 391.25C795.252 393.1 796.588 394.938 797.842 396.087C799.096 397.236 803.272 398.675 803.592 398.771C802.88 401.109 802.318 403.492 801.912 405.906C801.664 407.308 801.463 408.723 801.273 410.162C801.273 409.497 801.273 408.892 801.273 408.82C800.977 406.486 799.073 402.181 796.541 401.698C796.116 401.625 795.681 401.646 795.265 401.758C794.848 401.87 794.46 402.071 794.124 402.347C793.789 402.623 793.515 402.969 793.32 403.362C793.125 403.754 793.013 404.184 792.992 404.624C792.85 406.462 794.175 408.312 795.429 409.461C797.147 410.624 799.031 411.509 801.013 412.085C800.954 412.641 800.883 413.185 800.812 413.729C800.504 416.365 800.208 419.001 799.842 421.565C799.712 422.472 799.558 423.366 799.392 424.249C799.392 423.657 799.392 423.161 799.392 423.04C799.096 420.718 797.192 416.401 794.66 415.918C794.235 415.844 793.799 415.863 793.382 415.974C792.965 416.085 792.575 416.285 792.24 416.562C791.904 416.839 791.63 417.186 791.435 417.579C791.241 417.972 791.13 418.404 791.111 418.844C790.969 420.694 792.294 422.532 793.548 423.681C795.217 424.821 797.049 425.69 798.978 426.256C798.789 427.163 798.6 428.07 798.375 428.941C798.221 429.521 798.103 430.15 797.902 430.682C797.7 431.214 797.535 431.891 797.357 432.411C796.967 433.499 796.577 434.612 796.174 435.664C795.902 436.389 795.63 437.091 795.358 437.78C795.488 436.885 795.725 435.12 795.725 434.963C795.701 432.902 795.159 430.883 794.151 429.098C794.169 428.869 794.169 428.638 794.151 428.409C794.098 427.976 793.956 427.56 793.735 427.187C793.514 426.814 793.219 426.493 792.869 426.244C792.518 425.996 792.121 425.825 791.702 425.744C791.283 425.663 790.852 425.673 790.437 425.773C787.952 426.45 786.379 430.9 786.261 433.245C786.261 433.378 786.343 434.89 786.414 435.833C786.296 435.289 786.178 434.745 786.048 434.189C785.787 433.064 785.492 431.952 785.184 430.755C785.007 430.186 784.841 429.606 784.664 429.013C784.486 428.421 784.273 427.804 784.072 427.248C783.575 425.869 783.019 424.503 782.416 423.149C783.374 422.907 786.781 422.024 788.142 420.948C789.502 419.872 790.945 418.143 790.934 416.293C790.945 415.856 790.866 415.422 790.703 415.019C790.539 414.616 790.294 414.252 789.984 413.952C789.673 413.652 789.305 413.422 788.902 413.277C788.499 413.133 788.07 413.077 787.645 413.112C785.089 413.391 782.913 417.55 782.416 419.848C782.416 419.993 782.238 421.673 782.167 422.605C781.801 421.782 781.446 420.972 781.055 420.186C779.872 417.768 778.689 415.494 777.506 413.149C777.128 412.435 776.773 411.71 776.406 410.996C776.749 410.912 780.807 409.956 782.321 408.759C783.67 407.695 785.113 405.942 785.101 404.092C785.113 403.656 785.034 403.224 784.871 402.821C784.708 402.419 784.464 402.056 784.155 401.756C783.846 401.456 783.479 401.226 783.078 401.081C782.676 400.935 782.249 400.878 781.824 400.912C779.269 401.202 777.092 405.349 776.584 407.647C776.584 407.828 776.335 410.247 776.311 410.863C775.507 409.279 774.726 407.695 774.016 406.111C773.037 403.966 772.199 401.756 771.508 399.497C771.662 399.497 775.909 398.469 777.423 397.236C778.784 396.172 780.227 394.43 780.215 392.58C780.227 392.144 780.148 391.71 779.984 391.307C779.821 390.903 779.576 390.54 779.266 390.24C778.955 389.94 778.587 389.71 778.184 389.565C777.781 389.421 777.352 389.364 776.927 389.4C774.383 389.69 772.195 393.838 771.698 396.135C771.698 396.317 771.437 398.929 771.426 399.4C771.426 399.267 771.331 399.134 771.295 399.001C770.662 396.719 770.227 394.384 769.994 392.024C769.852 390.718 769.781 389.461 769.746 388.239C770.562 388.143 774.253 387.635 775.779 386.692C777.305 385.748 778.867 384.273 779.044 382.375C779.104 381.943 779.075 381.504 778.957 381.085C778.84 380.666 778.637 380.277 778.362 379.944C778.087 379.61 777.747 379.34 777.363 379.151C776.979 378.961 776.56 378.857 776.134 378.844C773.567 378.844 770.917 382.725 770.219 384.89C770.219 385.011 769.923 386.293 769.746 387.224C769.746 386.667 769.746 386.099 769.746 385.579C769.746 383.584 769.876 381.77 769.994 380.162C770.065 379.255 770.16 378.421 770.242 377.659C770.988 377.127 773.957 374.987 774.868 373.463C775.401 372.691 775.763 371.81 775.929 370.881C776.094 369.951 776.059 368.996 775.826 368.082C775.683 367.673 775.457 367.299 775.163 366.984C774.869 366.67 774.513 366.422 774.12 366.257C773.726 366.091 773.303 366.012 772.877 366.025C772.452 366.037 772.034 366.141 771.65 366.329C769.367 367.538 768.764 372.23 769.142 374.539C769.142 374.733 770.03 377.804 770.077 377.768C769.97 378.505 769.876 379.303 769.781 380.186C769.627 381.794 769.462 383.608 769.414 385.603C769.345 387.749 769.396 389.897 769.568 392.036C769.754 394.434 770.15 396.809 770.751 399.134C770.744 399.162 770.744 399.191 770.751 399.219C770.349 398.578 769.154 396.8 769.048 396.667C767.545 394.902 763.629 392.375 761.263 393.403C760.875 393.584 760.529 393.847 760.247 394.174C759.965 394.502 759.754 394.886 759.628 395.303C759.501 395.72 759.463 396.159 759.514 396.592C759.566 397.025 759.706 397.442 759.927 397.816C760.767 399.654 762.86 400.416 764.552 400.658Z" fill="#263238"/>
<path d="M808.584 388.336C808.584 388.336 809.4 385.277 809.424 385.071C809.743 382.75 809.022 378.082 806.715 376.933C806.325 376.754 805.903 376.661 805.476 376.659C805.049 376.658 804.626 376.748 804.235 376.925C803.844 377.102 803.495 377.361 803.208 377.686C802.922 378.01 802.706 378.392 802.574 378.808C802.366 379.727 802.357 380.681 802.547 381.604C802.737 382.527 803.122 383.397 803.675 384.152C804.763 385.881 808.584 388.336 808.584 388.336Z" fill="#263238"/>
<path d="M707.542 407.091C708.865 407.45 710.233 407.605 711.6 407.55C711.6 407.55 710.985 405.628 710.926 405.507C710.299 404.165 708.299 401.94 706.679 402.157C706.41 402.203 706.153 402.306 705.926 402.46C705.698 402.614 705.504 402.814 705.357 403.049C705.21 403.284 705.113 403.547 705.071 403.823C705.03 404.098 705.046 404.379 705.117 404.648C705.325 405.21 705.649 405.72 706.068 406.141C706.486 406.563 706.989 406.887 707.542 407.091Z" fill="#263238"/>
<path d="M708.536 415.603C709.889 415.595 711.233 415.378 712.523 414.962C712.95 416.462 713.471 417.932 714.084 419.363C714.439 420.197 714.818 421.032 715.267 421.866C715.031 421.515 714.818 421.201 714.794 421.153C713.836 420.028 711.328 418.42 709.825 419.073C709.577 419.188 709.356 419.356 709.175 419.565C708.995 419.774 708.86 420.019 708.778 420.285C708.697 420.55 708.671 420.831 708.703 421.107C708.734 421.384 708.822 421.651 708.962 421.89C709.306 422.378 709.75 422.782 710.263 423.077C710.776 423.371 711.345 423.548 711.931 423.595C713.247 423.602 714.557 423.398 715.811 422.991L716.273 423.934C717.018 425.445 717.763 426.957 718.45 428.456C718.698 428.988 718.923 429.508 719.136 430.04C718.935 429.726 718.757 429.472 718.722 429.436C717.763 428.299 715.267 426.691 713.753 427.344C713.507 427.462 713.288 427.631 713.11 427.841C712.932 428.05 712.799 428.295 712.718 428.56C712.638 428.825 712.613 429.105 712.645 429.38C712.676 429.656 712.763 429.922 712.901 430.161C713.246 430.649 713.689 431.056 714.202 431.352C714.714 431.648 715.284 431.828 715.871 431.878C717.15 431.88 718.422 431.684 719.644 431.298C719.857 431.842 720.07 432.398 720.248 432.93C720.425 433.462 720.508 433.656 720.603 434.043C720.697 434.43 720.804 434.78 720.898 435.155C721.076 435.869 721.253 436.606 721.395 437.308C721.502 437.791 721.596 438.263 721.691 438.734C721.454 438.202 720.969 437.175 720.922 437.102C720.141 435.832 717.905 433.849 716.32 434.26C716.058 434.338 715.815 434.471 715.607 434.651C715.398 434.831 715.229 435.053 715.11 435.304C714.991 435.554 714.924 435.828 714.914 436.106C714.905 436.385 714.953 436.662 715.054 436.921C715.322 437.456 715.701 437.925 716.165 438.295C716.629 438.664 717.166 438.926 717.74 439.061C719.068 439.273 720.421 439.273 721.75 439.061C721.904 439.847 722.046 440.597 722.164 441.322C722.164 441.54 722.235 441.757 722.271 441.963H723.241C723.241 441.697 723.146 441.419 723.087 441.141C722.933 440.343 722.756 439.508 722.566 438.638C723.334 438.33 724.081 437.97 724.802 437.561C725.788 438.43 726.887 439.154 728.068 439.714C727.784 440.451 727.488 441.165 727.204 441.83C727.186 441.875 727.167 441.92 727.145 441.963H728.198L729.014 439.847C730.324 440.152 731.672 440.258 733.013 440.161C733.595 440.068 734.15 439.847 734.64 439.513C735.13 439.179 735.544 438.74 735.852 438.227C735.971 437.976 736.038 437.703 736.048 437.425C736.058 437.146 736.01 436.869 735.909 436.61C735.807 436.352 735.654 436.118 735.459 435.923C735.264 435.729 735.031 435.578 734.775 435.482C733.225 434.95 730.859 436.751 729.984 437.961C729.984 438.021 729.463 438.855 729.168 439.387L729.546 438.372C729.795 437.682 730.019 436.993 730.268 436.243L730.587 435.131C730.706 434.768 730.788 434.357 730.883 433.922C731.096 433.015 731.262 432.084 731.415 431.153C732.629 431.645 733.91 431.943 735.213 432.035C735.802 432.036 736.384 431.904 736.917 431.649C737.451 431.394 737.923 431.022 738.301 430.56C738.459 430.334 738.569 430.076 738.622 429.803C738.675 429.53 738.671 429.248 738.609 428.977C738.548 428.706 738.43 428.451 738.265 428.23C738.1 428.009 737.89 427.826 737.65 427.694C736.195 426.921 733.592 428.335 732.551 429.387C732.48 429.46 731.83 430.306 731.475 430.766C731.557 430.21 731.652 429.641 731.711 429.061C731.924 427.404 732.066 425.723 732.232 424.031C732.232 423.523 732.338 423.003 732.386 422.495C733.641 423.008 734.965 423.326 736.313 423.438C736.903 423.433 737.485 423.298 738.019 423.044C738.554 422.789 739.029 422.421 739.413 421.963C739.569 421.734 739.677 421.474 739.728 421.2C739.779 420.926 739.774 420.644 739.711 420.373C739.649 420.101 739.531 419.846 739.365 419.624C739.199 419.402 738.99 419.218 738.75 419.085C737.295 418.323 734.692 419.738 733.651 420.79C733.58 420.863 732.622 422.084 732.397 422.398C732.516 421.274 732.646 420.149 732.811 419.037C733.036 417.543 733.352 416.065 733.758 414.611C735.02 415.132 736.352 415.454 737.709 415.566C738.298 415.566 738.88 415.434 739.413 415.179C739.947 414.925 740.419 414.553 740.797 414.091C740.954 413.863 741.062 413.604 741.114 413.33C741.166 413.057 741.162 412.775 741.1 412.504C741.039 412.232 740.922 411.977 740.758 411.754C740.593 411.532 740.385 411.348 740.146 411.213C738.691 410.451 736.077 411.866 735.035 412.918C734.964 413.003 733.935 414.309 733.77 414.551L733.841 414.297C734.288 412.852 734.862 411.452 735.556 410.113C735.923 409.375 736.325 408.674 736.739 408.009C737.914 408.654 739.179 409.111 740.489 409.363C741.075 409.423 741.666 409.353 742.223 409.159C742.781 408.965 743.29 408.651 743.719 408.239C743.898 408.029 744.032 407.784 744.112 407.519C744.192 407.253 744.217 406.973 744.185 406.697C744.152 406.421 744.064 406.156 743.924 405.917C743.785 405.678 743.598 405.472 743.376 405.312C742.015 404.381 739.259 405.494 738.123 406.425L737.07 407.501C737.248 407.199 737.437 406.896 737.626 406.606C738.312 405.554 738.999 404.635 739.614 403.825C739.969 403.366 740.3 402.954 740.619 402.616C741.944 402.637 743.264 402.454 744.535 402.072C745.084 401.853 745.58 401.514 745.989 401.08C746.397 400.646 746.709 400.126 746.901 399.557C746.965 399.288 746.973 399.009 746.924 398.737C746.875 398.465 746.771 398.206 746.618 397.978C746.465 397.75 746.267 397.558 746.037 397.413C745.806 397.268 745.549 397.175 745.28 397.138C743.66 396.957 741.731 399.242 741.128 400.609C741.128 400.717 740.477 402.664 740.501 402.664C740.194 403.015 739.874 403.402 739.519 403.873C738.88 404.671 738.171 405.578 737.461 406.63C736.685 407.744 735.974 408.903 735.331 410.101C734.6 411.446 733.987 412.854 733.498 414.309C733.498 413.825 733.498 412.447 733.498 412.338C733.308 410.863 732.09 408.106 730.481 407.803C730.212 407.761 729.938 407.776 729.675 407.849C729.413 407.922 729.168 408.05 728.957 408.225C728.746 408.401 728.574 408.62 728.451 408.868C728.329 409.116 728.258 409.388 728.245 409.665C728.268 410.268 728.42 410.859 728.69 411.395C728.96 411.932 729.341 412.402 729.807 412.773C730.937 413.528 732.174 414.103 733.474 414.478C733.019 415.972 732.66 417.495 732.397 419.037C732.244 419.931 732.113 420.838 731.995 421.745C731.995 421.322 731.995 420.947 731.995 420.887C731.806 419.411 730.587 416.655 728.978 416.352C728.71 416.31 728.435 416.325 728.173 416.398C727.91 416.471 727.666 416.599 727.455 416.774C727.244 416.95 727.072 417.169 726.949 417.417C726.826 417.665 726.756 417.937 726.743 418.214C726.768 418.816 726.919 419.404 727.186 419.941C727.454 420.477 727.831 420.948 728.292 421.322C729.384 422.061 730.582 422.624 731.841 422.991C731.841 423.341 731.747 423.692 731.711 424.043C731.51 425.724 731.321 427.404 731.084 429.049C730.997 429.621 730.903 430.189 730.8 430.754C730.8 430.379 730.8 430.064 730.8 430.016C730.611 428.529 729.393 425.772 727.784 425.47C727.515 425.427 727.24 425.442 726.978 425.515C726.715 425.588 726.471 425.716 726.26 425.892C726.049 426.067 725.877 426.286 725.754 426.534C725.631 426.782 725.561 427.054 725.548 427.332C725.569 427.934 725.719 428.524 725.986 429.061C726.254 429.598 726.633 430.068 727.097 430.439C728.165 431.163 729.334 431.718 730.564 432.084C730.445 432.664 730.327 433.233 730.185 433.789C730.043 434.345 729.996 434.539 729.878 434.913L729.523 436.014C729.286 436.703 729.026 437.416 728.777 438.081C728.6 438.553 728.422 438.988 728.245 439.436C728.34 438.867 728.493 437.731 728.493 437.634C728.472 436.32 728.122 435.034 727.476 433.898C727.494 433.753 727.494 433.607 727.476 433.462C727.443 433.186 727.354 432.92 727.214 432.682C727.074 432.443 726.885 432.238 726.662 432.079C726.438 431.92 726.185 431.812 725.917 431.761C725.65 431.709 725.375 431.716 725.11 431.782C723.525 432.205 722.519 435.046 722.448 436.546C722.448 436.63 722.448 437.586 722.543 438.19C722.46 437.84 722.389 437.501 722.306 437.138C722.141 436.425 721.951 435.711 721.75 434.95L721.431 433.849C721.324 433.474 721.17 433.087 721.04 432.713C720.733 431.842 720.366 430.971 719.987 430.101C721.267 429.821 722.499 429.348 723.643 428.698C724.133 428.365 724.546 427.926 724.853 427.412C725.159 426.898 725.352 426.322 725.418 425.723C725.425 425.445 725.375 425.169 725.271 424.911C725.167 424.654 725.011 424.422 724.814 424.23C724.616 424.039 724.381 423.892 724.125 423.799C723.868 423.706 723.595 423.67 723.324 423.692C721.703 423.873 720.283 426.534 719.987 427.997C719.987 428.081 719.869 429.206 719.834 429.75C719.597 429.23 719.372 428.71 719.112 428.19C718.39 426.691 717.61 425.191 716.829 423.704L716.131 422.326C717.456 422.047 718.732 421.566 719.916 420.899C720.407 420.565 720.82 420.126 721.126 419.612C721.433 419.099 721.626 418.522 721.691 417.924C721.699 417.646 721.649 417.369 721.545 417.112C721.441 416.855 721.285 416.623 721.087 416.431C720.89 416.24 720.655 416.093 720.398 416C720.141 415.907 719.868 415.871 719.597 415.893C717.976 416.074 716.557 418.734 716.261 420.197C716.261 420.306 716.107 421.854 716.083 422.241C715.575 421.237 715.078 420.222 714.617 419.206C713.995 417.836 713.462 416.426 713.019 414.986C714.352 414.702 715.636 414.217 716.829 413.547C717.306 413.2 717.703 412.751 717.993 412.231C718.283 411.711 718.459 411.132 718.509 410.536C718.514 410.259 718.463 409.983 718.359 409.728C718.254 409.472 718.098 409.241 717.9 409.051C717.703 408.861 717.469 408.715 717.213 408.623C716.957 408.531 716.685 408.495 716.415 408.517C714.782 408.698 713.374 411.346 713.079 412.809C713.079 412.93 712.913 414.587 712.901 414.889C712.901 414.804 712.901 414.732 712.818 414.647C712.413 413.188 712.136 411.695 711.99 410.185C711.896 409.351 711.86 408.553 711.836 407.767C713.159 407.635 714.455 407.301 715.681 406.775C716.203 406.498 716.66 406.107 717.019 405.631C717.379 405.155 717.633 404.605 717.763 404.018C717.802 403.743 717.783 403.463 717.708 403.196C717.633 402.929 717.503 402.681 717.328 402.468C717.153 402.256 716.935 402.084 716.69 401.963C716.445 401.843 716.178 401.777 715.906 401.769C714.262 401.769 712.582 404.188 712.12 405.663C712.12 405.736 711.931 406.558 711.825 407.15C711.825 406.8 711.825 406.437 711.825 406.098C711.825 404.889 711.896 403.68 711.978 402.64C711.978 402.06 712.085 401.54 712.144 401.044C713.251 400.308 714.244 399.407 715.09 398.372C715.43 397.879 715.661 397.317 715.767 396.724C715.873 396.131 715.852 395.521 715.705 394.937C715.614 394.675 715.47 394.434 715.282 394.232C715.094 394.03 714.866 393.871 714.614 393.764C714.362 393.658 714.09 393.608 713.818 393.616C713.545 393.624 713.277 393.692 713.031 393.813C711.576 394.587 711.198 397.573 711.434 399.049C711.434 399.182 712.002 401.141 712.026 401.116C711.955 401.588 711.896 402.096 711.836 402.652C711.742 403.668 711.635 404.829 711.6 406.11C711.561 407.478 711.596 408.846 711.706 410.21C711.819 411.74 712.064 413.258 712.44 414.744C712.179 414.333 711.422 413.196 711.351 413.124C710.393 411.987 707.897 410.379 706.395 411.032C706.147 411.147 705.925 411.315 705.745 411.524C705.564 411.732 705.429 411.978 705.348 412.244C705.266 412.509 705.24 412.79 705.272 413.066C705.303 413.343 705.392 413.61 705.531 413.849C705.873 414.352 706.32 414.77 706.839 415.073C707.359 415.376 707.939 415.557 708.536 415.603Z" fill="#263238"/>
<path d="M736.633 407.744C736.633 407.744 737.154 405.785 737.177 405.664C737.378 404.177 736.917 401.19 735.438 400.465C735.189 400.351 734.919 400.293 734.646 400.293C734.373 400.293 734.104 400.352 733.855 400.467C733.606 400.581 733.383 400.747 733.201 400.955C733.02 401.163 732.883 401.408 732.8 401.674C732.665 402.26 732.657 402.869 732.778 403.458C732.899 404.047 733.144 404.602 733.498 405.084C734.41 406.122 735.466 407.019 736.633 407.744Z" fill="#263238"/>
<path d="M0 441.951H828.909" stroke="#263238" stroke-miterlimit="10"/>
</svg>
